<svg width="27" height="27" fill="none" xmlns="http://www.w3.org/2000/svg"><g clip-path="url(#clip0_5_2)" fill="#000"><path d="M13.47.62c.731.092 1.245.533 1.743 1.036 3.42 3.433 6.854 6.86 10.289 10.288.391.391.676.833.742 1.402a2.164 2.164 0 01-.518 1.711 3.355 3.355 0 01-.265.274c-3.414 3.418-6.839 6.83-10.248 10.253-.498.503-1.011.94-1.743 1.036h-.407c-.106-.086-.244-.046-.366-.081-1.56-.422-2.225-2.412-.914-3.717 2.332-2.321 4.66-4.652 6.986-6.978.702-.7 1.398-1.406 2.104-2.097.127-.127.081-.178-.015-.274a1637.614 1637.614 0 01-4.202-4.2l-4.522-4.52c-.305-.304-.615-.593-.819-.99-.665-1.28.194-2.925 1.637-3.102.04-.005.076-.026.116-.04h.402z"/><path d="M2.749 24.436c-1.347 0-2.317-.873-2.455-1.93-.111-.857.158-1.568.747-2.183 1.82-1.91 3.633-3.829 5.447-5.743.432-.452.864-.91 1.301-1.35.117-.123.132-.189.005-.32-1.189-1.24-2.368-2.484-3.552-3.728C3.13 8.009 2.012 6.846.914 5.662c-1.097-1.182-.772-3.04.64-3.752.717-.36 1.647-.26 2.251.27.63.553 1.169 1.192 1.748 1.797 1.255 1.305 2.495 2.62 3.74 3.935l3.262 3.443c.783.828.935 1.925.391 2.915-.183.335-.462.6-.726.873l-4.893 5.15c-1.062 1.117-2.124 2.224-3.181 3.346-.457.488-.996.792-1.397.797z"/></g><defs><clipPath id="clip0_5_2"><path fill="#fff" transform="translate(.259 .62)" d="M0 0h26v26H0z"/></clipPath></defs></svg>