<svg width="1418" height="478" fill="none" xmlns="http://www.w3.org/2000/svg"><path d="M840.209 19.976c.504.488.756 1.108.756 1.86s-.252 1.372-.756 1.86c-.496.48-1.156.72-1.98.72h-1.944v3.372h-1.296v-8.544h3.24c.824 0 1.484.244 1.98.732zm-.948 2.916c.272-.256.408-.608.408-1.056 0-.448-.136-.796-.408-1.044-.272-.256-.64-.384-1.104-.384h-1.872v2.856h1.872c.464 0 .832-.124 1.104-.372zm7.403-.684l-.924.924c-.272-.272-.576-.408-.912-.408-.344 0-.632.128-.864.384-.232.248-.348.576-.348.984v3.696h-1.224v-6.084h1.2v.66c.16-.216.384-.392.672-.528.296-.136.612-.204.948-.204.584 0 1.068.192 1.452.576zm5.426 2.532c0 .56-.052 1.028-.156 1.404a2.34 2.34 0 01-.564.996c-.464.48-1.072.72-1.824.72-.744 0-1.348-.24-1.812-.72a2.34 2.34 0 01-.564-.996c-.104-.376-.156-.844-.156-1.404 0-.552.052-1.016.156-1.392.104-.384.292-.716.564-.996.464-.48 1.068-.72 1.812-.72.752 0 1.36.24 1.824.72.272.28.46.612.564.996.104.376.156.84.156 1.392zm-1.644 1.668c.28-.28.42-.836.42-1.668s-.14-1.388-.42-1.668c-.232-.232-.532-.348-.9-.348-.36 0-.656.116-.888.348-.28.28-.42.836-.42 1.668s.14 1.388.42 1.668c.24.24.536.36.888.36.36 0 .66-.12.9-.36zm7.768-4.704l-2.232 6.084h-.996l-2.232-6.084h1.296l1.44 4.284 1.428-4.284h1.296zm2.288 6.084h-1.224v-6.084h1.224v6.084zm.036-7.284h-1.296v-1.296h1.296v1.296zm6.404 5.424c0 .616-.236 1.092-.708 1.428-.464.336-1.072.504-1.824.504-1.112 0-1.964-.292-2.556-.876l.804-.804c.416.424 1 .636 1.752.636.4 0 .72-.068.96-.204a.693.693 0 00.372-.636c0-.424-.272-.664-.816-.72l-.972-.084c-1.2-.112-1.8-.672-1.8-1.68 0-.584.216-1.04.648-1.368.432-.328.98-.492 1.644-.492.984 0 1.736.228 2.256.684l-.768.78c-.352-.296-.852-.444-1.5-.444-.36 0-.636.072-.828.216a.662.662 0 00-.276.564c0 .216.064.38.192.492.136.104.352.172.648.204l.852.072c1.28.112 1.92.688 1.92 1.728zm2.713 1.86h-1.224v-6.084h1.224v6.084zm.036-7.284h-1.296v-1.296h1.296v1.296zm6.692 4.236c0 .56-.052 1.028-.156 1.404a2.34 2.34 0 01-.564.996c-.464.48-1.072.72-1.824.72-.744 0-1.348-.24-1.812-.72a2.34 2.34 0 01-.564-.996c-.104-.376-.156-.844-.156-1.404 0-.552.052-1.016.156-1.392.104-.384.292-.716.564-.996.464-.48 1.068-.72 1.812-.72.752 0 1.36.24 1.824.72.272.28.46.612.564.996.104.376.156.84.156 1.392zm-1.644 1.668c.28-.28.42-.836.42-1.668s-.14-1.388-.42-1.668c-.232-.232-.532-.348-.9-.348-.36 0-.656.116-.888.348-.28.28-.42.836-.42 1.668s.14 1.388.42 1.668c.24.24.536.36.888.36.36 0 .66-.12.9-.36zm8.233 1.38h-1.224V24.08c0-.456-.112-.796-.336-1.02-.224-.224-.52-.336-.888-.336s-.672.116-.912.348c-.232.224-.348.56-.348 1.008v3.708h-1.224v-6.084h1.2v.612c.424-.456.964-.684 1.62-.684.616 0 1.116.184 1.5.552.408.4.612.972.612 1.716v3.888zm6.388-1.86c0 .616-.236 1.092-.708 1.428-.464.336-1.072.504-1.824.504-1.112 0-1.964-.292-2.556-.876l.804-.804c.416.424 1 .636 1.752.636.4 0 .72-.068.96-.204a.693.693 0 00.372-.636c0-.424-.272-.664-.816-.72l-.972-.084c-1.2-.112-1.8-.672-1.8-1.68 0-.584.216-1.04.648-1.368.432-.328.98-.492 1.644-.492.984 0 1.736.228 2.256.684l-.768.78c-.352-.296-.852-.444-1.5-.444-.36 0-.636.072-.828.216a.662.662 0 00-.276.564c0 .216.064.38.192.492.136.104.352.172.648.204l.852.072c1.28.112 1.92.688 1.92 1.728zm12.051 1.86h-1.296v-5.712l-1.968 4.164h-.96l-2.016-4.164v5.712h-1.296v-8.544h1.296l2.496 5.316 2.448-5.316h1.296v8.544zm6.87-3.048c0 .56-.052 1.028-.156 1.404a2.34 2.34 0 01-.564.996c-.464.48-1.072.72-1.824.72-.744 0-1.348-.24-1.812-.72a2.34 2.34 0 01-.564-.996c-.104-.376-.156-.844-.156-1.404 0-.552.052-1.016.156-1.392.104-.384.292-.716.564-.996.464-.48 1.068-.72 1.812-.72.752 0 1.36.24 1.824.72.272.28.46.612.564.996.104.376.156.84.156 1.392zm-1.644 1.668c.28-.28.42-.836.42-1.668s-.14-1.388-.42-1.668c-.232-.232-.532-.348-.9-.348-.36 0-.656.116-.888.348-.28.28-.42.836-.42 1.668s.14 1.388.42 1.668c.24.24.536.36.888.36.36 0 .66-.12.9-.36zm8.233 1.38h-1.224V24.08c0-.456-.112-.796-.336-1.02-.224-.224-.52-.336-.888-.336s-.672.116-.912.348c-.232.224-.348.56-.348 1.008v3.708h-1.224v-6.084h1.2v.612c.424-.456.964-.684 1.62-.684.616 0 1.116.184 1.5.552.408.4.612.972.612 1.716v3.888zm4.433 0h-.732c-.536 0-.948-.164-1.236-.492-.288-.328-.432-.728-.432-1.2V22.64h-.696v-.936h.696v-1.74h1.224v1.74h1.176v.936h-1.176v3.396c0 .472.224.708.672.708h.504v1.044zm6.489 0h-1.224V24.08c0-.456-.112-.796-.336-1.02-.224-.224-.52-.336-.888-.336s-.672.116-.912.348c-.232.224-.348.56-.348 1.008v3.708h-1.224v-8.544h1.224v3.072c.408-.456.94-.684 1.596-.684.616 0 1.116.184 1.5.552.408.4.612.972.612 1.716v3.888z" fill="#D0D1D2"/><rect x="957.373" y="8.288" width="29" height="29" rx="3.5" fill="#fff"/><path clip-rule="evenodd" d="M971.873 23.955a1.166 1.166 0 100-2.333 1.166 1.166 0 000 2.333zm4.666 0a1.167 1.167 0 100-2.333 1.167 1.167 0 000 2.333zm-9.333 0a1.167 1.167 0 100-2.335 1.167 1.167 0 000 2.335z" stroke="#422F8A" stroke-opacity=".87" stroke-width="1.167" stroke-linecap="round" stroke-linejoin="round"/><rect x="957.373" y="8.288" width="29" height="29" rx="3.5" stroke="#ECE9F1"/><rect x="1017.37" y="8.288" width="125" height="29" rx="3.5" fill="#fff"/><path d="M1037.85 18.1v9.688h-1.28v-7.224l-3.22 7.224h-.89l-3.24-7.238v7.238h-1.27V18.1h1.37l3.59 8.008 3.58-8.008h1.36zm1.68 5.824c0-.784.16-1.47.48-2.058.32-.597.75-1.06 1.3-1.386a3.62 3.62 0 011.86-.49c.68 0 1.26.145 1.75.434.5.29.87.653 1.11 1.092v-1.4h1.29v7.672h-1.29V26.36c-.25.448-.63.821-1.13 1.12-.5.29-1.08.434-1.74.434-.68 0-1.3-.168-1.85-.504a3.552 3.552 0 01-1.3-1.414c-.32-.607-.48-1.297-.48-2.072zm6.5.014c0-.579-.12-1.083-.35-1.512-.23-.43-.55-.756-.95-.98-.39-.233-.83-.35-1.3-.35-.48 0-.91.112-1.31.336-.39.224-.7.55-.93.98-.24.43-.35.933-.35 1.512 0 .588.11 1.101.35 1.54.23.43.54.76.93.994.4.224.83.336 1.31.336.47 0 .91-.112 1.3-.336.4-.233.72-.565.95-.994.23-.439.35-.947.35-1.526zm4.71-2.576c.23-.439.55-.78.96-1.022.42-.243.92-.364 1.52-.364v1.316h-.33c-1.43 0-2.15.775-2.15 2.324v4.172h-1.27v-7.672h1.27v1.246zm3.48 2.576c0-.793.16-1.484.47-2.072.32-.597.76-1.06 1.32-1.386.57-.327 1.22-.49 1.94-.49.95 0 1.72.229 2.33.686.61.457 1.02 1.092 1.22 1.904h-1.38a1.922 1.922 0 00-.77-1.106c-.37-.27-.84-.406-1.4-.406-.72 0-1.31.252-1.76.756-.45.495-.67 1.2-.67 2.114 0 .924.22 1.638.67 2.142.45.504 1.04.756 1.76.756.56 0 1.03-.13 1.4-.392.38-.261.63-.635.77-1.12h1.38c-.21.784-.62 1.414-1.24 1.89-.61.467-1.38.7-2.31.7-.72 0-1.37-.163-1.94-.49a3.46 3.46 0 01-1.32-1.386c-.31-.597-.47-1.297-.47-2.1zm12.78-3.962c.58 0 1.11.126 1.57.378.47.243.83.611 1.09 1.106.28.495.41 1.097.41 1.806v4.522h-1.26v-4.34c0-.765-.19-1.349-.57-1.75-.39-.41-.91-.616-1.57-.616-.67 0-1.21.21-1.61.63-.39.42-.59 1.031-.59 1.834v4.242h-1.27v-10.36h1.27v3.78c.25-.392.6-.695 1.04-.91a3.36 3.36 0 011.49-.322zm8.52 6.79a69.103 69.103 0 002.79-2.338c.67-.616 1.23-1.255 1.69-1.918.47-.672.7-1.33.7-1.974 0-.607-.15-1.083-.45-1.428-.29-.355-.76-.532-1.41-.532-.64 0-1.13.2-1.49.602-.34.392-.53.92-.56 1.582h-1.23c.04-1.045.36-1.853.95-2.422.6-.57 1.37-.854 2.31-.854.97 0 1.73.266 2.29.798.57.532.85 1.265.85 2.198 0 .775-.23 1.53-.7 2.268-.46.728-.98 1.372-1.57 1.932-.59.55-1.34 1.195-2.25 1.932h4.81v1.064h-6.73v-.91zm8.21-4.144c0-1.605.26-2.856.78-3.752.52-.905 1.44-1.358 2.75-1.358 1.29 0 2.2.453 2.73 1.358.52.896.78 2.147.78 3.752 0 1.633-.26 2.903-.78 3.808-.53.905-1.44 1.358-2.73 1.358-1.31 0-2.23-.453-2.75-1.358s-.78-2.175-.78-3.808zm5.78 0c0-.812-.06-1.498-.17-2.058-.1-.57-.32-1.027-.66-1.372-.32-.345-.8-.518-1.42-.518-.64 0-1.12.173-1.46.518-.33.345-.55.803-.66 1.372-.1.56-.15 1.246-.15 2.058 0 .84.05 1.545.15 2.114.11.57.33 1.027.66 1.372.34.345.82.518 1.46.518.62 0 1.1-.173 1.42-.518.34-.345.56-.803.66-1.372.11-.57.17-1.274.17-2.114zm2.85 4.144c1.19-.952 2.12-1.731 2.79-2.338.67-.616 1.24-1.255 1.69-1.918.47-.672.7-1.33.7-1.974 0-.607-.15-1.083-.44-1.428-.29-.355-.76-.532-1.42-.532-.63 0-1.13.2-1.48.602-.35.392-.53.92-.56 1.582h-1.23c.03-1.045.35-1.853.95-2.422.6-.57 1.37-.854 2.31-.854.96 0 1.72.266 2.28.798.57.532.85 1.265.85 2.198 0 .775-.23 1.53-.7 2.268a9.981 9.981 0 01-1.56 1.932c-.59.55-1.34 1.195-2.26 1.932h4.82v1.064h-6.74v-.91zm8.21-4.144c0-1.605.26-2.856.78-3.752.53-.905 1.44-1.358 2.75-1.358 1.3 0 2.21.453 2.73 1.358.52.896.78 2.147.78 3.752 0 1.633-.26 2.903-.78 3.808-.52.905-1.43 1.358-2.73 1.358-1.31 0-2.22-.453-2.75-1.358-.52-.905-.78-2.175-.78-3.808zm5.78 0c0-.812-.05-1.498-.17-2.058-.1-.57-.32-1.027-.65-1.372-.33-.345-.81-.518-1.43-.518-.64 0-1.12.173-1.46.518-.32.345-.54.803-.66 1.372-.1.56-.15 1.246-.15 2.058 0 .84.05 1.545.15 2.114.12.57.34 1.027.66 1.372.34.345.82.518 1.46.518.62 0 1.1-.173 1.43-.518.33-.345.55-.803.65-1.372.12-.57.17-1.274.17-2.114z" fill="#11263C"/><path clip-rule="evenodd" d="M1120.62 19.288c0-.644.53-1.167 1.17-1.167h8.17c.64 0 1.16.523 1.16 1.167v8.167c0 .644-.52 1.166-1.16 1.166h-8.17c-.64 0-1.17-.522-1.17-1.166v-8.167z" stroke="#422F8A" stroke-opacity=".87" stroke-width="1.167" stroke-linecap="round" stroke-linejoin="round"/><path d="M1128.21 16.955v2.333m-4.67-2.333v2.333m-2.92 2.333h10.5" stroke="#422F8A" stroke-opacity=".87" stroke-width="1.167" stroke-linecap="round" stroke-linejoin="round"/><rect x="1017.37" y="8.288" width="125" height="29" rx="3.5" stroke="#ECE9F1"/><path d="M9.738 17.746v-2.232H.54v2.232h3.348V28.33H6.39V17.746h3.348zm8.206 5.886c0-1.692-.216-2.754-1.062-3.636-.576-.612-1.53-1.152-2.916-1.152s-2.322.54-2.898 1.152c-.846.882-1.062 1.944-1.062 3.636 0 1.71.216 2.772 1.062 3.654.576.612 1.512 1.152 2.898 1.152 1.386 0 2.34-.54 2.916-1.152.846-.882 1.062-1.944 1.062-3.654zm-2.34 0c0 .972-.054 1.8-.54 2.286-.27.27-.63.414-1.098.414-.468 0-.81-.144-1.08-.414-.486-.486-.54-1.314-.54-2.286s.054-1.782.54-2.268c.27-.27.612-.414 1.08-.414.468 0 .828.144 1.098.414.486.486.54 1.296.54 2.268zm8.783 4.698v-1.98h-.846c-.558 0-.81-.306-.81-.846v-4.5h1.656v-1.782h-1.656V16.45h-2.34v2.772h-.99v1.782h.99v4.644c0 1.332.81 2.682 2.718 2.682h1.278zm9.156 0v-6.174c0-2.196-1.368-3.312-3.996-3.312-1.566 0-2.466.288-3.384 1.296l1.494 1.458c.486-.558.9-.774 1.8-.774 1.242 0 1.746.45 1.746 1.476v.468h-2.214c-2.178 0-3.204 1.224-3.204 2.718 0 .828.27 1.584.774 2.106.558.558 1.332.828 2.394.828 1.08 0 1.674-.27 2.304-.9v.81h2.286zm-2.34-3.456c0 .576-.09.954-.342 1.188-.414.396-.828.45-1.476.45-.918 0-1.35-.432-1.35-1.08 0-.666.468-1.062 1.314-1.062h1.854v.504zm8.841 3.456v-1.98h-.9c-.594 0-.828-.288-.828-.846v-9.99h-2.34v10.134c0 1.332.81 2.682 2.736 2.682h1.332zm13.547-9.378h-2.466l-1.89 5.796-1.908-5.796h-2.466l3.456 9.378h1.836l3.438-9.378zm3.729 9.378v-9.378h-2.34v9.378h2.34zm.018-10.98v-1.908h-2.394v1.908h2.394zm9.655 8.028c0-1.584-.936-2.574-2.79-2.754l-1.476-.144c-.828-.072-.972-.468-.972-.81 0-.468.396-.9 1.332-.9.81 0 1.638.144 2.178.63l1.44-1.458c-.9-.846-2.124-1.098-3.582-1.098-1.908 0-3.618 1.044-3.618 2.988 0 1.728 1.044 2.466 2.736 2.628l1.476.144c.738.072.99.396.99.864 0 .702-.846.972-1.656.972-.72 0-1.728-.108-2.502-.882l-1.53 1.53c1.188 1.188 2.52 1.35 3.996 1.35 2.214 0 3.978-.99 3.978-3.06zm4.302 2.952v-9.378h-2.34v9.378h2.34zm.018-10.98v-1.908h-2.394v1.908h2.394zm6.81 10.98v-1.98h-.845c-.558 0-.81-.306-.81-.846v-4.5h1.656v-1.782h-1.656V16.45h-2.34v2.772h-.99v1.782h.99v4.644c0 1.332.81 2.682 2.718 2.682h1.278zm9.173-2.952c0-1.584-.936-2.574-2.79-2.754l-1.476-.144c-.828-.072-.972-.468-.972-.81 0-.468.396-.9 1.332-.9.81 0 1.638.144 2.178.63l1.44-1.458c-.9-.846-2.124-1.098-3.582-1.098-1.908 0-3.618 1.044-3.618 2.988 0 1.728 1.044 2.466 2.736 2.628l1.476.144c.738.072.99.396.99.864 0 .702-.846.972-1.656.972-.72 0-1.728-.108-2.502-.882l-1.53 1.53c1.188 1.188 2.52 1.35 3.996 1.35 2.214 0 3.978-.99 3.978-3.06z" fill="#11263C"/><path clip-rule="evenodd" d="M107 28.83a7.5 7.5 0 100-15 7.5 7.5 0 000 15z" stroke="#D0D1D2" stroke-width="1.5" stroke-linecap="round" stroke-linejoin="round"/><path d="M107 18.33v3" stroke="#D0D1D2" stroke-width="1.5" stroke-linecap="round" stroke-linejoin="round"/><circle cx="107" cy="24.33" r=".75" fill="#D0D1D2"/><path d="M97.674 297.65c75.885-10.175 70.826 50.267 170.741 59.085 99.915 8.818 127.74-52.908 173.271-70.545 45.53-17.636 65.766-98.001 141.651-92.575 75.885 5.427 113.828 59.799 177.065 66.582 63.238 6.784 75.885 51.769 135.328 85.007 59.444 33.237 113.83 37.307 188.45 30.524 74.62-6.784 94.85-75.365 130.27-78.078 35.41-2.713 67.03 29.991 97.38 37.452 30.36 7.462 39.21 40.626 103.71 40.626" stroke="#ECE9F1" stroke-width="4" stroke-linecap="round" stroke-linejoin="round"/><path d="M.51 99.745a47.39 47.39 0 001.99-1.67c.48-.44.883-.897 1.21-1.37.333-.48.5-.95.5-1.41 0-.434-.107-.774-.32-1.02-.207-.254-.543-.38-1.01-.38-.453 0-.807.143-1.06.43-.247.28-.38.656-.4 1.13H.54c.027-.747.253-1.324.68-1.73.427-.407.977-.61 1.65-.61.687 0 1.23.19 1.63.57.407.38.61.903.61 1.57 0 .553-.167 1.093-.5 1.62-.327.52-.7.98-1.12 1.38-.42.393-.957.853-1.61 1.38h3.44v.76H.51v-.65zm9.892-4.78c-.147-.74-.603-1.11-1.37-1.11-.593 0-1.037.23-1.33.69-.293.453-.437 1.203-.43 2.25.153-.347.407-.617.76-.81.36-.2.76-.3 1.2-.3.687 0 1.233.213 1.64.64.413.426.62 1.016.62 1.77 0 .453-.09.86-.27 1.22a1.99 1.99 0 01-.8.86c-.353.213-.783.32-1.29.32-.687 0-1.223-.154-1.61-.46-.387-.307-.657-.73-.81-1.27-.153-.54-.23-1.207-.23-2 0-2.447.853-3.67 2.56-3.67.653 0 1.167.176 1.54.53.373.353.593.8.66 1.34h-.84zm-1.36 1.49c-.287 0-.557.06-.81.18-.253.113-.46.29-.62.53-.153.233-.23.52-.23.86 0 .506.147.92.44 1.24.293.313.713.47 1.26.47.467 0 .837-.144 1.11-.43.28-.294.42-.687.42-1.18 0-.52-.133-.927-.4-1.22-.267-.3-.657-.45-1.17-.45zm3.678.33c0-1.147.186-2.04.56-2.68.373-.647 1.026-.97 1.96-.97.926 0 1.576.323 1.95.97.373.64.56 1.533.56 2.68 0 1.166-.187 2.073-.56 2.72-.374.646-1.024.97-1.95.97-.934 0-1.587-.324-1.96-.97-.374-.647-.56-1.554-.56-2.72zm4.13 0c0-.58-.04-1.07-.12-1.47-.074-.407-.23-.734-.47-.98-.234-.247-.574-.37-1.02-.37-.454 0-.8.123-1.04.37-.234.246-.39.573-.47.98-.074.4-.11.89-.11 1.47 0 .6.036 1.103.11 1.51.08.406.236.733.47.98.24.246.586.37 1.04.37.446 0 .786-.124 1.02-.37.24-.247.396-.574.47-.98.08-.407.12-.91.12-1.51zm9.369-3.23v6.92h-.91v-5.16l-2.3 5.16h-.64l-2.31-5.17v5.17h-.91v-6.92h.98l2.56 5.72 2.56-5.72h.97zM.51 204.708a47.39 47.39 0 001.99-1.67 8.16 8.16 0 001.21-1.37c.333-.48.5-.95.5-1.41 0-.434-.107-.774-.32-1.02-.207-.254-.543-.38-1.01-.38-.453 0-.807.143-1.06.43-.247.28-.38.656-.4 1.13H.54c.027-.747.253-1.324.68-1.73.427-.407.977-.61 1.65-.61.687 0 1.23.19 1.63.57.407.38.61.903.61 1.57 0 .553-.167 1.093-.5 1.62-.327.52-.7.98-1.12 1.38-.42.393-.957.853-1.61 1.38h3.44v.76H.51v-.65zm5.752 0a47.39 47.39 0 001.99-1.67 8.16 8.16 0 001.21-1.37c.333-.48.5-.95.5-1.41 0-.434-.107-.774-.32-1.02-.207-.254-.543-.38-1.01-.38-.453 0-.807.143-1.06.43-.247.28-.38.656-.4 1.13h-.88c.027-.747.253-1.324.68-1.73.427-.407.977-.61 1.65-.61.687 0 1.23.19 1.63.57.407.38.61.903.61 1.57 0 .553-.167 1.093-.5 1.62-.327.52-.7.98-1.12 1.38-.42.393-.957.853-1.61 1.38h3.44v.76h-4.81v-.65zm5.862-2.96c0-1.147.187-2.04.56-2.68.373-.647 1.027-.97 1.96-.97.927 0 1.577.323 1.95.97.373.64.56 1.533.56 2.68 0 1.166-.187 2.073-.56 2.72-.373.646-1.023.97-1.95.97-.933 0-1.587-.324-1.96-.97-.373-.647-.56-1.554-.56-2.72zm4.13 0c0-.58-.04-1.07-.12-1.47-.073-.407-.23-.734-.47-.98-.233-.247-.573-.37-1.02-.37-.453 0-.8.123-1.04.37-.233.246-.39.573-.47.98-.073.4-.11.89-.11 1.47 0 .6.037 1.103.11 1.51.08.406.237.733.47.98.24.246.587.37 1.04.37.447 0 .787-.124 1.02-.37.24-.247.397-.574.47-.98.08-.407.12-.91.12-1.51zm9.37-3.23v6.92h-.91v-5.16l-2.3 5.16h-.64l-2.31-5.17v5.17h-.91v-6.92h.98l2.56 5.72 2.56-5.72h.97zM.38 304.001v-.83h1.88v7.23h-.92v-6.4H.38zm4.763 2.64c-.373-.147-.66-.36-.86-.64-.2-.28-.3-.62-.3-1.02 0-.36.09-.684.27-.97a1.81 1.81 0 01.8-.69c.36-.174.793-.26 1.3-.26s.937.086 1.29.26c.36.166.63.396.81.69.187.286.28.61.28.97 0 .386-.103.726-.31 1.02-.207.286-.49.5-.85.64.413.126.74.35.98.67.247.313.37.693.37 1.14 0 .433-.107.813-.32 1.14-.213.32-.517.57-.91.75-.387.173-.833.26-1.34.26-.507 0-.953-.087-1.34-.26-.38-.18-.677-.43-.89-.75a2.04 2.04 0 01-.32-1.14c0-.447.12-.83.36-1.15.24-.32.567-.54.98-.66zm2.71-1.55c0-.407-.133-.72-.4-.94-.267-.22-.633-.33-1.1-.33-.46 0-.823.11-1.09.33-.267.22-.4.536-.4.95 0 .373.137.673.41.9.28.226.64.34 1.08.34.447 0 .807-.114 1.08-.34.28-.234.42-.537.42-.91zm-1.5 1.95c-.493 0-.897.116-1.21.35-.313.226-.47.57-.47 1.03 0 .426.15.77.45 1.03.307.26.717.39 1.23.39s.92-.13 1.22-.39c.3-.26.45-.604.45-1.03 0-.447-.153-.787-.46-1.02-.307-.24-.71-.36-1.21-.36zm3.779-.33c0-1.147.186-2.04.56-2.68.373-.647 1.026-.97 1.96-.97.926 0 1.576.323 1.95.97.373.64.56 1.533.56 2.68 0 1.166-.187 2.073-.56 2.72-.374.646-1.024.97-1.95.97-.934 0-1.587-.324-1.96-.97-.374-.647-.56-1.554-.56-2.72zm4.13 0c0-.58-.04-1.07-.12-1.47-.074-.407-.23-.734-.47-.98-.234-.247-.574-.37-1.02-.37-.454 0-.8.123-1.04.37-.234.246-.39.573-.47.98-.074.4-.11.89-.11 1.47 0 .6.036 1.103.11 1.51.08.406.236.733.47.98.24.246.586.37 1.04.37.446 0 .786-.124 1.02-.37.24-.247.396-.574.47-.98.08-.407.12-.91.12-1.51zm9.369-3.23v6.92h-.91v-5.16l-2.3 5.16h-.64l-2.31-5.17v5.17h-.91v-6.92h.98l2.56 5.72 2.56-5.72h.97zM.38 408.964v-.83h1.88v7.23h-.92v-6.4H.38zm3.223 4.79v-.69l3.51-4.86h1.09v4.76h1v.79h-1v1.61h-.9v-1.61h-3.7zm3.74-4.6l-2.69 3.81h2.69v-3.81zm2.77 2.52c0-1.147.186-2.04.56-2.68.373-.647 1.026-.97 1.96-.97.926 0 1.576.323 1.95.97.373.64.56 1.533.56 2.68 0 1.166-.188 2.073-.56 2.72-.374.646-1.024.97-1.95.97-.934 0-1.587-.324-1.96-.97-.374-.647-.56-1.554-.56-2.72zm4.13 0c0-.58-.04-1.07-.12-1.47-.074-.407-.23-.734-.47-.98-.234-.247-.574-.37-1.02-.37-.454 0-.8.123-1.04.37-.234.246-.39.573-.47.98-.074.4-.11.89-.11 1.47 0 .6.036 1.103.11 1.51.08.406.236.733.47.98.24.246.586.37 1.04.37.446 0 .786-.124 1.02-.37.24-.247.396-.574.47-.98.08-.407.12-.91.12-1.51zm9.368-3.23v6.92h-.91v-5.16l-2.3 5.16h-.64l-2.31-5.17v5.17h-.91v-6.92h.98l2.56 5.72 2.56-5.72h.97z" fill="#A2A3A5"/><path stroke="#ECE9F1" d="M96.216 101.01H1417M96.216 205.973H1417M96.216 310.937H1417M96.216 415.899H1417"/><path d="M96.216 392.774c58.029-8.988 105.748-63.794 174.987-73.006 36.904-4.91 66.468 4.646 99.453 19.495 32.985 14.848 26.528 21.26 100.712 32.707 61.219 9.447 77.232-92.401 137.22-88.488 59.988 3.913 87.733-118.539 151.068-108.317 63.334 10.221 75.989-16.207 135.523 33.88 59.535 50.087 114.541-66.662 189.271-76.884 74.74-10.222 94.2 98.271 129.67 94.182 35.47-4.089 67.4 73.22 97.8 84.464 30.4 11.244 39.02-29.602 103.62-29.602" stroke="#422F8A" stroke-opacity=".87" stroke-width="4" stroke-linecap="round" stroke-linejoin="round"/><path d="M271.203 319.768c-69.239 9.212-116.958 64.018-174.987 73.006v22.167H1415.54V281.205c-64.6 0-73.22 40.846-103.62 29.602-30.4-11.244-62.33-88.553-97.8-84.464-35.47 4.089-54.93-104.404-129.67-94.182-74.73 10.222-129.736 126.971-189.271 76.884-59.534-50.087-72.189-23.659-135.523-33.88-63.335-10.222-91.08 112.23-151.068 108.317-59.988-3.913-76.001 97.935-137.22 88.488-74.184-11.447-67.727-17.859-100.712-32.707-32.985-14.849-62.549-24.405-99.453-19.495z" fill="url(#paint0_linear_125_88)"/><path d="M96.596 454.156v-.83h1.88v7.23h-.92v-6.4h-.96zm221.112-.04h-3.51v2.28c.153-.214.38-.387.68-.52.3-.14.623-.21.97-.21.553 0 1.003.116 1.35.35.347.226.593.523.74.89.153.36.23.743.23 1.15 0 .48-.09.91-.27 1.29-.18.38-.457.68-.83.9-.367.22-.823.33-1.37.33-.7 0-1.267-.18-1.7-.54-.433-.36-.697-.84-.79-1.44h.89c.087.38.27.676.55.89.28.213.633.32 1.06.32.527 0 .923-.157 1.19-.47.267-.32.4-.74.4-1.26s-.133-.92-.4-1.2c-.267-.287-.66-.43-1.18-.43-.353 0-.663.086-.93.26-.26.166-.45.396-.57.69h-.86v-4.08h4.35v.8zm211.493.04v-.83h1.88v7.23h-.92v-6.4h-.96zm3.443 2.71c0-1.147.186-2.04.56-2.68.373-.647 1.026-.97 1.96-.97.926 0 1.576.323 1.95.97.373.64.56 1.533.56 2.68 0 1.166-.187 2.073-.56 2.72-.374.646-1.024.97-1.95.97-.934 0-1.587-.324-1.96-.97-.374-.647-.56-1.554-.56-2.72zm4.13 0c0-.58-.04-1.07-.12-1.47-.074-.407-.23-.734-.47-.98-.234-.247-.574-.37-1.02-.37-.454 0-.8.123-1.04.37-.234.246-.39.573-.47.98-.074.4-.11.89-.11 1.47 0 .6.036 1.103.11 1.51.08.406.236.733.47.98.24.246.586.37 1.04.37.446 0 .786-.124 1.02-.37.24-.247.396-.574.47-.98.08-.407.12-.91.12-1.51zm211.099-2.71v-.83h1.88v7.23h-.92v-6.4h-.96zm8.053-.04h-3.51v2.28c.154-.214.38-.387.68-.52.3-.14.624-.21.97-.21.554 0 1.004.116 1.35.35.347.226.594.523.74.89.154.36.23.743.23 1.15 0 .48-.09.91-.27 1.29-.18.38-.456.68-.83.9-.366.22-.823.33-1.37.33-.7 0-1.266-.18-1.7-.54-.433-.36-.696-.84-.79-1.44h.89c.087.38.27.676.55.89.28.213.634.32 1.06.32.527 0 .924-.157 1.19-.47.267-.32.4-.74.4-1.26s-.133-.92-.4-1.2c-.266-.287-.66-.43-1.18-.43-.353 0-.663.086-.93.26-.26.166-.45.396-.57.69h-.86v-4.08h4.35v.8zm210.205 5.71c.846-.68 1.51-1.237 1.99-1.67.48-.44.883-.897 1.21-1.37.333-.48.5-.95.5-1.41 0-.434-.107-.774-.32-1.02-.207-.254-.544-.38-1.01-.38-.454 0-.807.143-1.06.43-.247.28-.38.656-.4 1.13h-.88c.026-.747.253-1.324.68-1.73.426-.407.976-.61 1.65-.61.686 0 1.23.19 1.63.57.406.38.61.903.61 1.57 0 .553-.167 1.093-.5 1.62-.327.52-.7.98-1.12 1.38-.42.393-.957.853-1.61 1.38h3.44v.76h-4.81v-.65zm5.862-2.96c0-1.147.186-2.04.56-2.68.373-.647 1.026-.97 1.96-.97.926 0 1.576.323 1.95.97.373.64.56 1.533.56 2.68 0 1.166-.187 2.073-.56 2.72-.374.646-1.024.97-1.95.97-.934 0-1.587-.324-1.96-.97-.374-.647-.56-1.554-.56-2.72zm4.13 0c0-.58-.04-1.07-.12-1.47-.074-.407-.23-.734-.47-.98-.234-.247-.574-.37-1.02-.37-.454 0-.8.123-1.04.37-.234.246-.39.573-.47.98-.074.4-.11.89-.11 1.47 0 .6.036 1.103.11 1.51.08.406.236.733.47.98.24.246.586.37 1.04.37.446 0 .786-.124 1.02-.37.24-.247.396-.574.47-.98.08-.407.12-.91.12-1.51zm208.677 2.96c.85-.68 1.51-1.237 1.99-1.67.48-.44.89-.897 1.21-1.37.34-.48.5-.95.5-1.41 0-.434-.1-.774-.32-1.02-.2-.254-.54-.38-1.01-.38-.45 0-.8.143-1.06.43-.24.28-.38.656-.4 1.13h-.88c.03-.747.26-1.324.68-1.73.43-.407.98-.61 1.65-.61.69 0 1.23.19 1.63.57.41.38.61.903.61 1.57 0 .553-.16 1.093-.5 1.62-.32.52-.7.98-1.12 1.38-.42.393-.95.853-1.61 1.38h3.44v.76h-4.81v-.65zm10.48-5.71h-3.51v2.28c.15-.214.38-.387.68-.52.3-.14.62-.21.97-.21.55 0 1 .116 1.35.35.34.226.59.523.74.89.15.36.23.743.23 1.15 0 .48-.09.91-.27 1.29-.18.38-.46.68-.83.9-.37.22-.83.33-1.37.33-.7 0-1.27-.18-1.7-.54-.44-.36-.7-.84-.79-1.44h.89c.08.38.27.676.55.89.28.213.63.32 1.06.32.52 0 .92-.157 1.19-.47.26-.32.4-.74.4-1.26s-.14-.92-.4-1.2c-.27-.287-.66-.43-1.18-.43-.36 0-.67.086-.93.26-.26.166-.45.396-.57.69h-.86v-4.08h4.35v.8zm208.69 1.03c.05-.614.29-1.094.71-1.44.43-.347.98-.52 1.66-.52.46 0 .85.083 1.17.25.34.16.59.38.75.66.18.28.26.596.26.95 0 .413-.12.77-.36 1.07-.23.3-.54.493-.92.58v.05c.44.106.78.316 1.03.63.26.313.38.723.38 1.23 0 .38-.08.723-.26 1.03-.17.3-.43.536-.78.71-.34.173-.76.26-1.25.26-.7 0-1.28-.184-1.74-.55-.45-.374-.7-.9-.76-1.58h.88c.05.4.21.726.49.98.28.253.66.38 1.12.38.47 0 .82-.12 1.06-.36.25-.247.37-.564.37-.95 0-.5-.16-.86-.5-1.08-.33-.22-.83-.33-1.51-.33h-.23v-.76h.24c.62-.007 1.08-.107 1.39-.3.32-.2.47-.507.47-.92 0-.354-.11-.637-.35-.85-.22-.214-.55-.32-.98-.32-.41 0-.74.106-1 .32-.25.213-.4.5-.45.86h-.89zm5.91 1.72c0-1.147.19-2.04.56-2.68.38-.647 1.03-.97 1.96-.97.93 0 1.58.323 1.95.97.38.64.56 1.533.56 2.68 0 1.166-.18 2.073-.56 2.72-.37.646-1.02.97-1.95.97-.93 0-1.58-.324-1.96-.97-.37-.647-.56-1.554-.56-2.72zm4.13 0c0-.58-.04-1.07-.12-1.47-.07-.407-.23-.734-.47-.98-.23-.247-.57-.37-1.02-.37-.45 0-.8.123-1.04.37-.23.246-.39.573-.47.98-.07.4-.11.89-.11 1.47 0 .6.04 1.103.11 1.51.08.406.24.733.47.98.24.246.59.37 1.04.37.45 0 .79-.124 1.02-.37.24-.247.4-.574.47-.98.08-.407.12-.91.12-1.51z" fill="#A2A3A5"/><path stroke="#422F8A" stroke-opacity=".87" stroke-dasharray="4.4 4.4" d="M665.265 245.834v169.107"/><g filter="url(#filter0_dd_125_88)"><path fill-rule="evenodd" clip-rule="evenodd" d="M669.812 213.98c-2.787 3.597-7.306 3.597-10.093 0l-7.275-8.933c-.882-1.083-1.323-1.624-1.868-2.014a4.998 4.998 0 00-1.594-.757c-.646-.176-1.344-.176-2.741-.176h-72.984c-9.747 0-13.282-1.015-16.846-2.921a19.878 19.878 0 01-8.266-8.266c-1.906-3.564-2.921-7.098-2.921-16.846v-72.223c0-9.747 1.015-13.282 2.921-16.846a19.874 19.874 0 018.266-8.266c3.564-1.906 7.099-2.92 16.846-2.92h184.475c9.748 0 13.282 1.014 16.846 2.92a19.874 19.874 0 018.266 8.266c1.906 3.564 2.921 7.099 2.921 16.846v72.223c0 9.748-1.015 13.282-2.921 16.846a19.878 19.878 0 01-8.266 8.266c-3.564 1.906-7.098 2.921-16.846 2.921h-70.64c-2.793 0-4.19 0-5.482.352a9.998 9.998 0 00-3.188 1.515c-1.089.779-1.971 1.862-3.735 4.028l-4.875 5.985z" fill="#fff"/></g><g clip-path="url(#clip0_125_88)"><path d="M568.292 88.899v.592h-1.52v4.984h-.728V89.49h-1.528v-.592h3.776zm3.072 1.112c.331 0 .63.072.896.216.267.138.475.349.624.632.155.282.232.626.232 1.032v2.584h-.72v-2.48c0-.438-.109-.771-.328-1-.218-.235-.517-.352-.896-.352-.384 0-.69.12-.92.36-.224.24-.336.589-.336 1.048v2.424h-.728v-5.92h.728v2.16a1.44 1.44 0 01.592-.52c.256-.123.542-.184.856-.184zm3.318-.632a.478.478 0 01-.352-.144.479.479 0 01-.144-.352c0-.14.048-.256.144-.352a.478.478 0 01.352-.144c.133 0 .245.048.336.144a.479.479 0 01.144.352.479.479 0 01-.144.352.445.445 0 01-.336.144zm.352.712v4.384h-.728V90.09h.728zm2.792 4.456c-.336 0-.637-.056-.904-.168a1.577 1.577 0 01-.632-.48 1.303 1.303 0 01-.256-.712h.752a.745.745 0 00.304.536c.187.138.43.208.728.208.278 0 .496-.062.656-.184a.562.562 0 00.24-.464.449.449 0 00-.256-.424c-.17-.096-.434-.19-.792-.28a6.537 6.537 0 01-.8-.256 1.531 1.531 0 01-.528-.392c-.144-.176-.216-.406-.216-.688 0-.224.067-.43.2-.616.134-.187.323-.334.568-.44.246-.112.526-.168.84-.168.486 0 .878.122 1.176.368.299.245.459.58.48 1.008h-.728a.746.746 0 00-.28-.552c-.165-.14-.389-.208-.672-.208-.261 0-.469.056-.624.168a.52.52 0 00-.232.44c0 .144.046.264.136.36a1.2 1.2 0 00.352.224c.144.053.342.114.592.184.315.085.571.17.768.256.198.08.366.202.504.368.144.165.219.38.224.648 0 .24-.066.456-.2.648a1.351 1.351 0 01-.568.456 2.03 2.03 0 01-.832.16zm10.417-5.608v5.536h-.728v-4.128l-1.84 4.128h-.512l-1.848-4.136v4.136h-.728v-5.536h.784l2.048 4.576 2.048-4.576h.776zm3.146 5.608c-.41 0-.784-.094-1.12-.28a2.04 2.04 0 01-.784-.792 2.5 2.5 0 01-.28-1.2c0-.448.096-.843.288-1.184.198-.347.464-.611.8-.792a2.28 2.28 0 011.128-.28c.416 0 .792.093 1.128.28.336.18.6.442.792.784.198.34.296.738.296 1.192 0 .453-.101.853-.304 1.2a2.053 2.053 0 01-.808.792c-.341.186-.72.28-1.136.28zm0-.64c.262 0 .507-.062.736-.184a1.37 1.37 0 00.552-.552c.144-.246.216-.544.216-.896s-.069-.651-.208-.896a1.331 1.331 0 00-.544-.544 1.49 1.49 0 00-.728-.184c-.266 0-.512.06-.736.184a1.309 1.309 0 00-.528.544c-.133.245-.2.544-.2.896 0 .357.064.658.192.904.134.245.31.429.528.552a1.5 1.5 0 00.72.176zm5.342-3.896c.533 0 .965.162 1.296.488.33.32.496.784.496 1.392v2.584h-.72v-2.48c0-.438-.11-.771-.328-1-.219-.235-.518-.352-.896-.352-.384 0-.691.12-.92.36-.224.24-.336.589-.336 1.048v2.424h-.728V90.09h.728v.624c.144-.224.338-.398.584-.52.25-.123.525-.184.824-.184zm3.869.68v2.584c0 .213.045.365.136.456.09.085.248.128.472.128h.536v.616h-.656c-.406 0-.71-.094-.912-.28-.203-.187-.304-.494-.304-.92V90.69h-.568v-.6h.568v-1.104h.728v1.104h1.144v.6H600.6zm4.202-.68c.331 0 .629.072.896.216.267.138.475.349.624.632.155.282.232.626.232 1.032v2.584h-.72v-2.48c0-.438-.109-.771-.328-1-.219-.235-.517-.352-.896-.352-.384 0-.691.12-.92.36-.224.24-.336.589-.336 1.048v2.424h-.728v-5.92h.728v2.16c.144-.224.341-.398.592-.52a1.95 1.95 0 01.856-.184z" fill="#3C3C43" fill-opacity=".6"/><path d="M564.909 115.009a66.663 66.663 0 003.33-2.844 11.322 11.322 0 001.728-1.962c.468-.684.702-1.35.702-1.998 0-.492-.114-.876-.342-1.152-.228-.276-.57-.414-1.026-.414-.456 0-.816.174-1.08.522-.252.336-.378.816-.378 1.44h-2.97c.024-1.02.24-1.872.648-2.556.42-.684.966-1.188 1.638-1.512.684-.324 1.44-.486 2.268-.486 1.428 0 2.502.366 3.222 1.098.732.732 1.098 1.686 1.098 2.862 0 1.284-.438 2.478-1.314 3.582-.876 1.092-1.992 2.16-3.348 3.204h4.86v2.502h-9.036v-2.286zm10.283 0a66.663 66.663 0 003.33-2.844 11.322 11.322 0 001.728-1.962c.468-.684.702-1.35.702-1.998 0-.492-.114-.876-.342-1.152-.228-.276-.57-.414-1.026-.414-.456 0-.816.174-1.08.522-.252.336-.378.816-.378 1.44h-2.97c.024-1.02.24-1.872.648-2.556.42-.684.966-1.188 1.638-1.512.684-.324 1.44-.486 2.268-.486 1.428 0 2.502.366 3.222 1.098.732.732 1.098 1.686 1.098 2.862 0 1.284-.438 2.478-1.314 3.582-.876 1.092-1.992 2.16-3.348 3.204h4.86v2.502h-9.036v-2.286zm10.392-4.284c0-2.064.396-3.69 1.188-4.878.804-1.188 2.094-1.782 3.87-1.782 1.776 0 3.06.594 3.852 1.782.804 1.188 1.206 2.814 1.206 4.878 0 2.088-.402 3.726-1.206 4.914-.792 1.188-2.076 1.782-3.852 1.782-1.776 0-3.066-.594-3.87-1.782-.792-1.188-1.188-2.826-1.188-4.914zm7.092 0c0-1.212-.132-2.142-.396-2.79-.264-.66-.81-.99-1.638-.99-.828 0-1.374.33-1.638.99-.264.648-.396 1.578-.396 2.79 0 .816.048 1.494.144 2.034.096.528.288.96.576 1.296.3.324.738.486 1.314.486.576 0 1.008-.162 1.296-.486.3-.336.498-.768.594-1.296.096-.54.144-1.218.144-2.034zm8.268 3.906l-1.998 5.166h-1.962l1.044-5.166h2.916zm1.658-6.588c.048-1.284.468-2.274 1.26-2.97.792-.696 1.866-1.044 3.222-1.044.9 0 1.668.156 2.304.468.648.312 1.134.738 1.458 1.278a3.37 3.37 0 01.504 1.818c0 .792-.198 1.44-.594 1.944-.396.492-.858.828-1.386 1.008v.072c.684.228 1.224.606 1.62 1.134.396.528.594 1.206.594 2.034 0 .744-.174 1.404-.522 1.98-.336.564-.834 1.008-1.494 1.332-.648.324-1.422.486-2.322.486-1.44 0-2.592-.354-3.456-1.062-.852-.708-1.302-1.776-1.35-3.204h2.988c.012.528.162.948.45 1.26.288.3.708.45 1.26.45.468 0 .828-.132 1.08-.396.264-.276.396-.636.396-1.08 0-.576-.186-.99-.558-1.242-.36-.264-.942-.396-1.746-.396h-.576v-2.502h.576c.612 0 1.104-.102 1.476-.306.384-.216.576-.594.576-1.134 0-.432-.12-.768-.36-1.008s-.57-.36-.99-.36c-.456 0-.798.138-1.026.414-.216.276-.342.618-.378 1.026h-3.006zm10.862 7.092v-2.484l5.688-8.136h3.438v7.956h1.476v2.664h-1.476v2.34h-3.078v-2.34h-6.048zm6.264-7.236l-3.024 4.572h3.024v-4.572zm5.738 7.11a66.663 66.663 0 003.33-2.844 11.322 11.322 0 001.728-1.962c.468-.684.702-1.35.702-1.998 0-.492-.114-.876-.342-1.152-.228-.276-.57-.414-1.026-.414-.456 0-.816.174-1.08.522-.252.336-.378.816-.378 1.44h-2.97c.024-1.02.24-1.872.648-2.556.42-.684.966-1.188 1.638-1.512.684-.324 1.44-.486 2.268-.486 1.428 0 2.502.366 3.222 1.098.732.732 1.098 1.686 1.098 2.862 0 1.284-.438 2.478-1.314 3.582-.876 1.092-1.992 2.16-3.348 3.204h4.86v2.502h-9.036v-2.286zm14.009-.378l-1.998 5.166h-1.962l1.044-5.166h2.916zm1.226-7.434v-2.862h4.986v13.14h-3.204v-10.278h-1.782zm6.984 7.812a66.663 66.663 0 003.33-2.844 11.322 11.322 0 001.728-1.962c.468-.684.702-1.35.702-1.998 0-.492-.114-.876-.342-1.152-.228-.276-.57-.414-1.026-.414-.456 0-.816.174-1.08.522-.252.336-.378.816-.378 1.44h-2.97c.024-1.02.24-1.872.648-2.556.42-.684.966-1.188 1.638-1.512.684-.324 1.44-.486 2.268-.486 1.428 0 2.502.366 3.222 1.098.732.732 1.098 1.686 1.098 2.862 0 1.284-.438 2.478-1.314 3.582-.876 1.092-1.992 2.16-3.348 3.204h4.86v2.502h-9.036v-2.286zm10.499-6.966c.048-1.284.468-2.274 1.26-2.97.792-.696 1.866-1.044 3.222-1.044.9 0 1.668.156 2.304.468.648.312 1.134.738 1.458 1.278a3.37 3.37 0 01.504 1.818c0 .792-.198 1.44-.594 1.944-.396.492-.858.828-1.386 1.008v.072c.684.228 1.224.606 1.62 1.134.396.528.594 1.206.594 2.034 0 .744-.174 1.404-.522 1.98-.336.564-.834 1.008-1.494 1.332-.648.324-1.422.486-2.322.486-1.44 0-2.592-.354-3.456-1.062-.852-.708-1.302-1.776-1.35-3.204h2.988c.012.528.162.948.45 1.26.288.3.708.45 1.26.45.468 0 .828-.132 1.08-.396.264-.276.396-.636.396-1.08 0-.576-.186-.99-.558-1.242-.36-.264-.942-.396-1.746-.396h-.576v-2.502h.576c.612 0 1.104-.102 1.476-.306.384-.216.576-.594.576-1.134 0-.432-.12-.768-.36-1.008s-.57-.36-.99-.36c-.456 0-.798.138-1.026.414-.216.276-.342.618-.378 1.026h-3.006z" fill="#11263C"/><path d="M572.523 132.555v6.92h-.91v-5.16l-2.3 5.16h-.64l-2.31-5.17v5.17h-.91v-6.92h.98l2.56 5.72 2.56-5.72h.97zm1.203 4.16c0-.56.113-1.05.34-1.47a2.47 2.47 0 01.93-.99c.4-.234.843-.35 1.33-.35.48 0 .897.103 1.25.31.353.206.617.466.79.78v-1h.92v5.48h-.92v-1.02c-.18.32-.45.586-.81.8-.353.206-.767.31-1.24.31-.487 0-.927-.12-1.32-.36a2.532 2.532 0 01-.93-1.01c-.227-.434-.34-.927-.34-1.48zm4.64.01c0-.414-.083-.774-.25-1.08a1.72 1.72 0 00-.68-.7 1.78 1.78 0 00-.93-.25c-.34 0-.65.08-.93.24-.28.16-.503.393-.67.7-.167.306-.25.666-.25 1.08 0 .42.083.786.25 1.1.167.306.39.543.67.71.28.16.59.24.93.24.34 0 .65-.08.93-.24.287-.167.513-.404.68-.71.167-.314.25-.677.25-1.09zm7.178-2.73l-3.3 8.06h-.94l1.08-2.64-2.21-5.42h1.01l1.72 4.44 1.7-4.44h.94z" fill="#3C3C43" fill-opacity=".6"/></g><g filter="url(#filter1_dd_125_88)"><rect x="650.188" y="231.256" width="29.156" height="29.156" rx="10" fill="#422F8A" fill-opacity=".87"/><rect x="652.188" y="233.256" width="25.156" height="25.156" rx="8" stroke="#fff" stroke-width="4"/></g><defs><filter id="filter0_dd_125_88" x="529.224" y="65.811" width="272.54" height="174.866" filterUnits="userSpaceOnUse" color-interpolation-filters="sRGB"><feFlood flood-opacity="0" result="BackgroundImageFix"/><feColorMatrix in="SourceAlpha" values="0 0 0 0 0 0 0 0 0 0 0 0 0 0 0 0 0 0 127 0" result="hardAlpha"/><feOffset dy="8"/><feGaussianBlur stdDeviation="8"/><feColorMatrix values="0 0 0 0 0.196487 0 0 0 0 0.196487 0 0 0 0 0.279476 0 0 0 0.06 0"/><feBlend mode="multiply" in2="BackgroundImageFix" result="effect1_dropShadow_125_88"/><feColorMatrix in="SourceAlpha" values="0 0 0 0 0 0 0 0 0 0 0 0 0 0 0 0 0 0 127 0" result="hardAlpha"/><feOffset dy="8"/><feGaussianBlur stdDeviation="4"/><feColorMatrix values="0 0 0 0 0.196487 0 0 0 0 0.196487 0 0 0 0 0.279476 0 0 0 0.08 0"/><feBlend mode="multiply" in2="effect1_dropShadow_125_88" result="effect2_dropShadow_125_88"/><feBlend in="SourceGraphic" in2="effect2_dropShadow_125_88" result="shape"/></filter><filter id="filter1_dd_125_88" x="644.854" y="228.59" width="39.823" height="39.823" filterUnits="userSpaceOnUse" color-interpolation-filters="sRGB"><feFlood flood-opacity="0" result="BackgroundImageFix"/><feColorMatrix in="SourceAlpha" values="0 0 0 0 0 0 0 0 0 0 0 0 0 0 0 0 0 0 127 0" result="hardAlpha"/><feOffset dy="2.667"/><feGaussianBlur stdDeviation="2.667"/><feColorMatrix values="0 0 0 0 0.196487 0 0 0 0 0.196487 0 0 0 0 0.279476 0 0 0 0.06 0"/><feBlend mode="multiply" in2="BackgroundImageFix" result="effect1_dropShadow_125_88"/><feColorMatrix in="SourceAlpha" values="0 0 0 0 0 0 0 0 0 0 0 0 0 0 0 0 0 0 127 0" result="hardAlpha"/><feOffset dy="2.667"/><feGaussianBlur stdDeviation="1.333"/><feColorMatrix values="0 0 0 0 0.196487 0 0 0 0 0.196487 0 0 0 0 0.279476 0 0 0 0.06 0"/><feBlend mode="multiply" in2="effect1_dropShadow_125_88" result="effect2_dropShadow_125_88"/><feBlend in="SourceGraphic" in2="effect2_dropShadow_125_88" result="shape"/></filter><linearGradient id="paint0_linear_125_88" x1="755.879" y1="131.481" x2="755.879" y2="533.512" gradientUnits="userSpaceOnUse"><stop stop-color="#7459D9" stop-opacity=".1"/><stop offset=".999" stop-color="#fff" stop-opacity="0"/></linearGradient><clipPath id="clip0_125_88"><path fill="#fff" transform="translate(564.186 85.475)" d="M0 0h104v128.584H0z"/></clipPath></defs></svg>