<svg width="96" height="87" fill="none" xmlns="http://www.w3.org/2000/svg"><path d="M95.459 7.674c-.6 1.9-1.5 3.6-3.4 4.5-.8.4-1.8.3-2.3.8-.6.5-.6 1.5-1.2 2.2-.9 1.2-2.1 1.9-3.6 2.1-.4.1-.7.2-1 .6-1.3 2-3.9 2.4-5.7.9-1.8-1.5-2-4-.3-5.7.4-.4.4-.7.4-1.2.1-2.5 1.5-4.6 3.9-5.4.5-.2.7-.4.8-.9.6-2.9 3-4.9 5.8-5.1 2.9-.1 5.4 1.7 6.3 4.5l.3.9v1.8zm-51 78.7h-41.3c-2.3 0-3-.7-3-3v-42c0-2.2.7-3 2.9-3h37.1c2.1 0 2.9.8 2.9 2.9v16.1c0 .8.2 1 1 1 1.9-.1 3.9 0 5.9 0 .5 0 .8 0 .8-.7l.6-10.2c0-.5 0-.9-.6-1.3-1.5-1.1-1.2-4.4.5-5.3.4-.2.5-.4.5-.8.1-1.3.1-2.6.2-3.9 0-.5 0-.7-.6-.9-.8-.2-1.2-.8-1.4-1.6-.2-.7-.1-1.5-.1-2.2.2-1.3.9-2 2.2-2h10.7c1.3 0 2.1.8 2.1 2.1v1.8c-.1 1-.6 1.7-1.6 1.9-.5.1-.6.4-.6.8.1 1.2.2 2.5.2 3.7 0 .5.1.8.7.9.4.1.6.4.9.7 1 1.2.5 4-.8 4.9-.3.2-.4.4-.4.7l.6 10.5c0 .7.3.8.9.8h8.3c.7 0 .9-.2.9-.9.2-5.7.5-11.3.8-17 0-.5 0-.9-.6-1.1-.2-.1-.3-.2-.4-.4-1.2-1.3-.6-4.3.9-5.1.3-.1.4-.3.4-.5.1-1.4.1-2.8.2-4.3 0-.3-.1-.6-.4-.6-.1 0-.2 0-.3-.1-1.2-.5-1.7-1.9-1.3-3.9.2-1.2.9-1.9 2.2-1.9h10.6c1.3 0 2 .7 2.2 1.9.1.8.1 1.5-.1 2.3-.2.8-.7 1.4-1.5 1.5-.6.1-.7.4-.7 1 .1 1.2.1 2.5.2 3.7 0 .4.1.7.6.8.8.2 1.3.8 1.4 1.7.1.8.1 1.5 0 2.3-.1.4-.2 1-.6 1.1-1.4.6-1 1.7-1 2.7.7 11 1.2 21.7 1.8 32.4.2 3.2.3 6.5.4 9.7.1 1.9-.7 2.7-2.6 2.7-13.9.1-27.8.1-41.7.1zm-37.1-32.1v9.4c-.1.5 0 .8.6.8h9.8c.6 0 .7-.2.7-.7v-18.8c0-.6-.2-.8-.8-.8h-9.5c-.7 0-.9.2-.9.9.1 3.1.1 6.1.1 9.2zm28.8.1v-9.4c0-.7-.2-.8-.8-.8h-9.5c-.7 0-.9.1-.9.9v18.6c0 .7.2.8.8.8h9.5c.8 0 .9-.3.9-.9-.1-3.1 0-6.2 0-9.2zm-23.2 26.2h4.9c.5 0 .7-.1.7-.6v-8.4c0-.5-.2-.7-.7-.7h-9.7c-.5 0-.8.1-.7.7v8.4c0 .5.2.7.7.7 1.5-.1 3.1-.1 4.8-.1zm17.5 0h4.9c.6 0 .7-.2.7-.7v-8.3c0-.6-.2-.7-.7-.7h-9.7c-.6 0-.7.2-.7.7v8.3c0 .6.2.7.7.7h4.8zm42.8-8.6c.1-1 .1-2.3.2-3.7 0-.5-.1-.8-.7-.8h-7.5c-.6 0-.8.2-.7.8.2 2.7.3 5.5.4 8.2 0 .6.3.7.8.7h6.6c.6 0 .7-.2.8-.7 0-1.4.1-2.8.1-4.5zm-30.1.4v4.2c0 .4.1.7.6.7h5.4c.4 0 .6-.1.6-.6.2-2.8.3-5.7.5-8.5 0-.5-.1-.7-.6-.7h-5.8c-.5 0-.6.2-.6.6-.1 1.5-.1 2.9-.1 4.3z" fill="#4E4444"/><path d="M71.859 13.774c0 3-2 5.5-5 6.1-.5.1-.8.3-1 .9-.7 2.1-2.2 3.3-4.4 3.7-.5.1-.7.3-1 .7-1.3 1.9-3.9 2.3-5.6.9-1.8-1.4-2-4-.4-5.7.4-.4.5-.8.5-1.3-.1-2.4 1.4-4.6 3.7-5.4.6-.2.8-.5.9-1.1.7-3.2 3.5-5.3 6.9-4.9 3 .2 5.4 3 5.4 6.1z" fill="#4E4444"/></svg>