<svg width="105" height="64" fill="none" xmlns="http://www.w3.org/2000/svg"><path d="M.577 19.223c.054-.081.135-.163.162-.245.977-3.185 3.066-4.764 6.35-4.791 4.965-.027 9.957-.027 14.923.027.814 0 1.193-.245 1.492-.98.895-2.178 1.9-4.356 2.93-6.698-.543 0-.977.028-1.384 0-1.79-.081-3.12-1.443-3.066-3.13.056-1.69 1.357-2.969 3.093-2.996 10.826-.028 21.652 0 32.478 0 2.225 0 3.853 1.143 5.129 2.858.922 1.198.678 2.968-.435 4.002a3.087 3.087 0 01-4.07.055c-.27-.245-.515-.572-.84-.708-1.14-.436-1.737 0-1.737 1.198v23.06c0 .708.136 1.17.733 1.606 1.573 1.198 2.306 2.886 2.333 4.874.027.953-.407 2.178.163 2.75.624.653 1.845.163 2.822.217.922.027 1.817.027 2.74 0 .434 0 .624.164.57.6a19.138 19.138 0 000 4.981c.081.572-.272.6-.679.6-1.6 0-3.174.027-4.775 0-.678-.028-.868.19-.868.87.027 1.117.135 2.26-.082 3.35-.57 2.885-2.849 4.927-5.86 4.982-4.64.081-9.28.027-13.92.054-1.058 0-.488-.653-.406-1.007 1.845-8.059-2.714-16.063-10.5-18.35-11.315-3.349-21.978 6.806-19.238 18.323.081.3.136.599.19.898-3.69.926-7.027-.98-8.086-4.547-.027-.136-.108-.245-.19-.354.028-10.536.028-21.018.028-31.5zm48.947-.435c0-3.812-.027-7.623.027-11.435 0-.653-.19-.871-.84-.871-4.939.027-9.877.027-14.815 0-.57 0-.814.19-1.031.708-.923 2.15-1.737 4.356-2.877 6.398-1.465 2.668-1.98 5.336-.976 8.25.135.407.162.87.244 1.306.841 4.764 4.423 7.868 9.252 7.923 3.392.027 6.756-.028 10.148.027.814 0 .922-.3.922-1.008-.081-3.73-.054-7.514-.054-11.298zm24.963 27.688h8.52c1.383 0 2.414-.653 2.957-1.933.488-1.17.244-2.287-.597-3.213-.733-.816-1.71-1.007-2.767-1.007H66.456c-1.466 0-1.466 0-1.14-1.416 2.143-9.365 10.528-15.79 20.16-15.436 9.415.326 17.365 7.432 18.857 16.798 1.926 12.224-7.543 23.25-19.861 23.114-9.28-.109-17.203-6.616-19.237-15.736-.19-.899-.028-1.17.95-1.17 2.767.054 5.534.026 8.302 0 0 .026 0 .026 0 0z" fill="#000"/><path d="M23.477 63.383c-6.783-.027-12.21-5.527-12.183-12.36.028-6.806 5.536-12.224 12.346-12.197 6.702.027 12.101 5.581 12.074 12.387-.027 6.725-5.48 12.17-12.237 12.17zm.054-6.153c3.392 0 6.105-2.75 6.078-6.18-.027-3.349-2.74-6.071-6.078-6.098a6.119 6.119 0 00-6.132 6.153c.027 3.43 2.74 6.125 6.132 6.125z" fill="#000"/></svg>