<svg width="101" height="116" fill="none" xmlns="http://www.w3.org/2000/svg"><path d="M50.577 35.89V18.873c-4.908-3.455-10.21-5.606-15.249-9.257 5.04-3.52 10.21-5.998 15.25-8.997A4342.833 4342.833 0 0066.022 9.42v17.537c-4.908 3.194-9.948 6.063-15.445 8.931z" fill="#003573"/><path d="M100.577 47.103c-5.04 2.868-10.013 5.671-15.445 8.8v-17.21c-5.105-3-9.948-5.868-15.38-9.062 5.17-3.52 10.34-6.128 15.446-9.192 5.104 2.999 10.209 5.932 15.379 8.931v17.733z" fill="#0075FE"/><path d="M85.001 95.867V78.46a2418.873 2418.873 0 00-15.183-8.866c4.974-3.716 10.144-6.063 15.183-9.127 5.432 2.477 10.275 5.867 15.576 8.736v17.471C95.93 90 90.629 92.477 85.001 95.867z" fill="#003573"/><path d="M31.01 47.103c-4.713 3.194-9.752 5.736-14.464 8.41-1.31-.522-1.113-1.5-1.113-2.282V38.432C10.656 35.563 5.878 32.76.577 29.63c5.301-3.586 10.471-6.128 15.38-9.192a1521.626 1521.626 0 0114.987 8.736c.065 5.932.065 11.734.065 17.928z" fill="#0075FE"/><path d="M31.009 86.87a35.75 35.75 0 01-2.225 1.565c-4.189 2.412-8.442 4.824-12.893 7.367-.916-3.13-.392-5.998-.458-8.802-.065-2.803 0-5.606 0-8.54-4.581-3.39-9.882-5.476-14.66-9.127a237.603 237.603 0 0115.315-8.931c5.235 2.934 10.209 5.672 14.986 8.736-.065 5.997-.065 11.734-.065 17.732z" fill="#003573"/><path d="M50.577 115.62V98.41c-5.039-2.934-9.882-5.803-14.987-8.802 1.964-2.673 4.974-3.325 7.265-4.89 2.421-1.63 5.039-2.933 7.788-4.498a1435.16 1435.16 0 0015.445 8.867c.392 5.867.196 11.669.065 17.602-5.04 2.933-10.013 5.737-15.576 8.931zM35.001 49.515a6273.64 6273.64 0 0115.51-9.062c5.236 2.868 10.406 5.802 15.511 8.996V66.53c-4.385 3.586-9.817 5.867-15.38 9.192-.261-5.998 0-11.474-.196-17.145a1413.304 1413.304 0 01-15.445-9.062z" fill="#0075FE"/></svg>