<svg width="102" height="102" fill="none" xmlns="http://www.w3.org/2000/svg"><path d="M63.656.975h8.856c.131.237.394.184.604.263 2.024.762 3.311 2.575 3.311 4.756.027 1.682.027 1.682 1.709 1.682h3.337c3.337.026 5.965 2.286 6.622 5.703.552 2.943-1.209 6.096-4.152 7.226-.604.237-.84.5-.814 1.183.026 8.488.026 16.976 0 25.464 0 .63.131.946.788 1.209 3.075 1.182 4.756 4.283 4.1 7.489-.132.683.026.946.604 1.235 6.36 3.259 10.432 8.383 12.272 15.294.289 1.051.473 2.155.683 3.233v4.914c-.315.368-.184.814-.236 1.235-1.971 11.615-11.642 19.814-23.467 19.814H21.137c-1.445 0-2.864-.132-4.283-.394C7.867 99.546.929 91.216.876 82.071c-.026-3.89 1.052-7.49 2.47-11.037 3.312-8.173 8.068-15.557 13.192-22.679.71-.972 1.314-2.05 2.234-2.864.42-.368.578-.71.578-1.235 0-7.516-.026-15.005 0-22.52 0-.631-.21-.894-.762-1.105-2.785-1.103-4.546-3.862-4.31-6.727.316-3.547 3.18-6.228 6.754-6.228H58.19c1.367 0 1.367 0 1.393-1.314 0-1.366.342-2.575 1.235-3.626.788-.92 1.813-1.34 2.838-1.76zM51.331 21.157H23.713c-.552 0-.973-.079-.973.762.027 7.516.027 15.005.027 22.521 0 .289-.106.604.236.788.736.473 1.183 1.21 1.656 1.919.394.604.84.84 1.603.84 17.501-.026 35.003-.026 52.504 0 .867 0 1.078-.21 1.078-1.077-.026-8.225-.053-16.45 0-24.675 0-.947-.316-1.104-1.156-1.104-9.145.052-18.264.026-27.357.026zm-30.299 26.91c-1.97 2.548-3.758 5.124-5.492 7.752-3.758 5.728-7.253 11.588-9.618 18.053-1.261 3.416-2.102 6.911-1.445 10.564 1.708 9.565 10.406 15.53 19.971 13.744 7.122-1.34 12.772-7.805 13.271-15.005.21-3.206-.473-6.228-1.55-9.198-2.365-6.543-5.913-12.456-9.723-18.237a106.846 106.846 0 00-5.414-7.674zM61.58 61.494c-.341-.053-.473-.079-.604-.079-8.725 0-17.423 0-26.148-.026-.893 0-.683.315-.394.84 1.971 3.548 3.758 7.175 5.098 11.011 1.603 4.6 2.365 9.25.841 14.033-.262.867-.026.972.762.972 4.888-.026 9.75-.026 14.638 0 .84 0 1.05-.078.683-.972-2.523-6.018-2.523-12.088-.08-18.132 1.184-2.838 2.892-5.335 5.204-7.647zm-10.327-43.78H81.42c1.839 0 3.205-1.288 3.31-3.075.132-1.813-1.024-3.232-2.837-3.521-.447-.08-.92-.08-1.367-.08h-58.6c-.42 0-.841 0-1.288.053-.92.105-1.708.5-2.26 1.236-.815 1.103-.946 2.312-.342 3.52.605 1.262 1.682 1.84 3.101 1.84 10.065.027 20.103.027 30.116.027zm26.725 80.623c10.958-.027 19.972-8.541 20.26-19.815.29-10.958-8.697-20.234-19.787-20.47-11.063-.237-20.208 8.671-20.445 19.892-.263 11.011 8.698 20.156 19.972 20.393zM27.681 51.325c1.419 2.234 2.785 4.31 4.1 6.386.262.394.63.289.971.289h32.639c.446 0 .814-.08 1.208-.316 5.256-2.916 10.8-3.757 16.687-2.47 1.472.316 1.84-.105 1.34-1.603a3.5 3.5 0 00-.551-1.025c-.815-1.05-1.945-1.314-3.233-1.314h-52.11c-.29.053-.578.053-1.051.053zm4.677 46.96H65.68c-.053-.105-.053-.184-.106-.21-2.522-1.63-4.703-3.627-6.464-6.097-.21-.289-.447-.315-.762-.315H39.086c-.29 0-.578 0-.762.315-1.472 2.47-3.443 4.494-5.966 6.307zM68.071 7.676h4.336c.236 0 .526.105.657-.236.604-1.393-.447-3.075-1.997-3.101-1.84-.027-3.68 0-5.493 0-2.102 0-2.575.525-2.549 2.628 0 .551.158.735.71.735 1.445-.052 2.89-.026 4.336-.026z" fill="#0075FE"/><path d="M74.798 34.586v7.673c0 .42 0 .84-.157 1.261-.263.683-.763 1.078-1.472 1.104-.762.052-1.34-.315-1.63-.999a2.335 2.335 0 01-.183-.946V26.465c0-.84.289-1.55 1.13-1.865.736-.29 1.366-.08 1.865.473.42.473.447 1.05.447 1.655v7.858zM20.428 95c-6.123-.105-11.773-5.098-12.64-11.168-.105-.684-.21-1.367-.184-2.05.052-.999.735-1.708 1.655-1.734.92-.027 1.63.551 1.708 1.55.184 2.234.71 4.31 2.129 6.097 1.76 2.207 4.02 3.52 6.832 3.81.395.053.789.079 1.183.105 1.051.132 1.655.762 1.655 1.708-.026.972-.735 1.63-1.813 1.656-.21.026-.368.026-.525.026zm74.5-16.818C94.9 87.51 87.386 95 78.03 95c-9.223-.026-16.74-7.594-16.713-16.897.026-9.25 7.647-16.766 17.003-16.713 9.092.026 16.608 7.647 16.608 16.792zm-30.22.052c0 7.385 6.07 13.429 13.48 13.402 7.28-.026 13.297-6.044 13.35-13.35.026-7.383-6.07-13.533-13.403-13.48-7.463.026-13.428 5.991-13.428 13.428z" fill="#0075FE"/><path d="M83.155 82.071c-.053 1.472-.92 2.97-2.68 3.916-.395.21-.631.42-.71.92-.132.893-.788 1.392-1.656 1.366-.867-.026-1.498-.526-1.603-1.42-.052-.472-.263-.682-.63-.84a4.649 4.649 0 01-2.024-1.813c-.5-.815-.315-1.709.394-2.26a1.66 1.66 0 012.287.263c.63.762 1.314 1.34 2.338.788.657-.342.999-.946.894-1.708-.158-.92-.815-1.34-2.155-1.446-2.076-.157-3.89-1.734-4.415-3.889-.5-2.102.473-4.362 2.392-5.466.499-.289.84-.5.972-1.182.131-.815.815-1.262 1.682-1.235.814.052 1.445.525 1.55 1.366.053.5.29.736.683.92.868.394 1.525 1.025 1.998 1.813.473.815.262 1.734-.473 2.26-.657.473-1.63.368-2.234-.263-.21-.21-.368-.473-.605-.657-.525-.42-1.103-.525-1.734-.21-.604.315-.946.815-.946 1.498 0 .657.342 1.209.972 1.471.29.132.631.184.946.21 2.733.237 4.757 2.34 4.757 5.598z" fill="#0075FE"/></svg>