<svg width="86" height="100" fill="none" xmlns="http://www.w3.org/2000/svg"><path d="M77.248.28c1.016.643 1.39 1.525 1.364 2.755-.054 4.253-.027 8.505-.027 12.758 0 1.23-.669 2.112-1.658 2.273-1.31.214-2.354-.722-2.38-2.113-.027-2.514 0-5.028 0-7.542v-1.15c-.375.348-.643.562-.883.802-7.248 7.248-14.469 14.496-21.717 21.743-.428.428-.829.91-1.47 1.043-.856.188-1.498-.16-2.06-.748-2.246-2.274-4.52-4.52-6.713-6.82-.535-.562-.802-.508-1.337.027a45249.06 45249.06 0 01-35.864 35.89c-.481.482-.936.963-1.685 1.044-.91.08-1.578-.268-2.032-1.017-.455-.802-.295-1.551.267-2.246.187-.214.401-.428.588-.642L39.03 18.948c1.47-1.47 2.487-1.497 3.931-.026 2.167 2.166 4.36 4.305 6.5 6.472.4.4.614.454 1.069.026A7489.943 7489.943 0 0171.203 4.827c.08-.08.16-.187.241-.294-.24-.294-.562-.16-.802-.16h-7.06c-1.579 0-2.3-.375-2.648-1.418-.322-.936.026-1.685 1.23-2.62C67.192.28 72.22.28 77.248.28zM45.69 77.25c.534-3.289 1.657-6.338 3.53-9.092.267-.375.187-.802.187-1.204V38.74c0-2.06.642-2.674 2.728-2.674h6.659c1.738 0 2.46.722 2.46 2.46 0 6.793.027 13.586-.026 20.38 0 .909.214 1.203 1.096.909.294-.107.615-.134.936-.16 1.765-.188 1.765-.161 1.765-1.98V28.202c0-1.872.669-2.54 2.568-2.54h6.873c1.712 0 2.38.695 2.38 2.406 0 11.26 0 22.546-.026 33.805 0 .776.24 1.257.855 1.765 6.606 5.376 9.093 12.33 7.195 20.62-1.712 7.595-8.291 13.532-15.994 14.763-10.965 1.765-21.235-5.697-22.92-16.689-.053-.32-.053-.615-.294-.936v3.61c0 2.087-.722 2.809-2.781 2.809h-6.365c-2.006 0-2.755-.722-2.755-2.701V50.132c0-1.872.75-2.648 2.621-2.648h6.66c1.845 0 2.62.776 2.62 2.648v25.996c.027.347.027.748.027 1.123zm19.977 17.92c8.719 0 15.833-7.114 15.833-15.833 0-8.692-7.168-15.86-15.86-15.833-8.691.027-15.779 7.168-15.805 15.913-.027 8.639 7.167 15.78 15.832 15.753zM37.853 67.623v15.164c0 .588 0 1.016.776.936a15.37 15.37 0 012.22 0c.668.053.802-.24.802-.83a5853.438 5853.438 0 010-30.621c0-.562-.134-.83-.749-.776-.695.054-1.418.08-2.113 0-.802-.08-.936.24-.936.99v15.137zm34.982-22.305V30.555c0-.642-.16-.936-.856-.882-.615.053-1.23.08-1.819 0-.856-.107-1.07.187-1.07 1.043.027 9.04.027 18.079.027 27.118 0 1.873 0 1.873 1.846 2.38.347.081.695.188 1.016.322.749.347.882.08.882-.642-.053-4.868-.026-9.708-.026-14.576zM53.472 63.665c1.043-.776 1.925-1.39 2.888-1.792.749-.321.856-.776.856-1.471-.027-5.857 0-11.714-.027-17.571 0-.856.294-2.006-.16-2.514-.508-.588-1.712-.107-2.594-.214-.803-.107-1.017.16-1.017.99.027 7.167.027 14.361.027 21.529.027.267.027.535.027 1.043zm-23.589 6.231v15.057c0 1.872-.775 2.621-2.647 2.648h-6.66c-1.818 0-2.594-.776-2.594-2.594V54.598c0-1.765.776-2.514 2.54-2.514h6.66c2.006 0 2.701.696 2.701 2.755v15.057zm-4.038 0c0-4.306-.027-8.611.027-12.944 0-.669-.16-.91-.856-.856-.669.054-1.364.08-2.033 0-.802-.08-.962.24-.936.99.027 5.295.027 10.617.027 15.913 0 3.29.027 6.552 0 9.841 0 .669.187.936.856.883a11.571 11.571 0 011.925 0c.776.08 1.043-.16 1.043-.99-.08-4.279-.053-8.558-.053-12.837zM14.05 78.481v6.66c0 1.604-.775 2.433-2.326 2.433-2.407.027-4.84.027-7.248 0-1.47-.027-2.273-.802-2.273-2.3a1173.24 1173.24 0 010-13.72c0-1.524.802-2.273 2.353-2.273h7.141c1.525 0 2.327.802 2.327 2.327.027 2.3.027 4.573.027 6.873zm-7.782-.027v4.52c0 .508.107.776.695.749a36.175 36.175 0 012.407 0c.509.027.669-.16.669-.669a513.105 513.105 0 010-9.066c0-.562-.214-.722-.722-.695-.749.026-1.471.053-2.22 0-.615-.027-.856.133-.829.802.027 1.47 0 2.915 0 4.36z" fill="#0075FE"/><path d="M72.22 74.55c0 1.738-.723 2.594-1.873 2.674-1.23.054-2.005-.695-2.166-2.06-.16-1.47-1.15-2.406-2.514-2.406-1.31 0-2.38 1.016-2.46 2.353-.08 1.31.882 2.434 2.326 2.595 1.017.107 2.033.187 2.996.668 2.246 1.15 3.557 2.969 3.717 5.483.16 2.674-.99 4.76-3.29 6.097-.588.348-.802.67-.802 1.338-.026 1.364-.855 2.193-2.059 2.166-1.177-.027-1.925-.776-1.952-2.14 0-.561-.214-.775-.696-.962-2.54-1.017-3.904-2.942-4.225-5.643-.16-1.284.588-2.327 1.738-2.46 1.204-.135 2.06.641 2.247 1.978.187 1.498 1.07 2.407 2.353 2.46 1.31.054 2.3-.695 2.594-1.978.321-1.391-.722-2.755-2.22-2.915-1.203-.108-2.353-.295-3.423-.91-2.22-1.31-3.343-3.316-3.263-5.83.08-2.701 1.418-4.707 3.932-5.804.722-.32 1.016-.641.99-1.444-.054-1.417.748-2.353 1.952-2.38 1.23-.027 2.14.936 2.06 2.38-.054.936.267 1.39 1.069 1.872 1.899 1.177 2.861 3.022 2.968 4.868z" fill="#0075FE"/></svg>