<svg width="98" height="97" fill="none" xmlns="http://www.w3.org/2000/svg"><path d="M97.061 51.588c-.25 1.732-.451 3.463-.753 5.17-1.831 10.012-6.398 18.619-13.65 25.745-6.85 6.75-15.031 11.092-24.492 12.924-7.954 1.555-15.783 1.104-23.512-1.305-1.255-.377-1.631-1.154-1.18-2.359a326.552 326.552 0 012.41-6.399c.476-1.255 1.078-1.556 2.408-1.154 3.814 1.104 7.704 1.681 11.669 1.53 16.888-.551 31.066-11.843 35.407-28.18 3.99-15.056-2.083-31.366-15.006-40.25-.251-.175-.527-.326-.778-.526-.653-.552-.878-1.23-.427-2.008 1.28-2.133 2.61-4.266 3.915-6.399.326-.527.803-.752 1.405-.752H94c1.004 0 1.556.552 1.58 1.58.026 2.434.026 4.894 0 7.328 0 1.054-.551 1.606-1.63 1.606-2.133.025-4.266 0-6.374 0-.276 0-.552-.1-.878.125 1.405 1.857 2.735 3.714 3.89 5.721 3.613 6.224 5.746 12.924 6.323 20.1.025.251 0 .502.175.703-.025 2.309-.025 4.542-.025 6.8zM83.862 10.636c-2.635 0-5.27.025-7.88 0-.526 0-.853.125-1.129.602a63.95 63.95 0 01-2.007 3.287c-.326.477-.226.703.226 1.03 1.43 1.028 2.785 2.132 4.015 3.387C87.5 29.406 91.44 41.952 88.705 56.406c-1.756 9.285-6.55 16.964-13.801 23.011-7.202 5.997-15.558 9.109-24.943 9.36-3.714.1-7.378-.301-10.966-1.23-.527-.15-.728 0-.878.477-.327.954-.653 1.907-1.054 2.81-.276.628-.176.829.502.98 6.549 1.68 13.174 1.982 19.798.677 12.095-2.41 21.756-8.657 28.732-18.795 7.052-10.238 9.385-21.606 7.177-33.826-1.506-8.281-5.17-15.533-10.815-21.807-.527-.577-.979-1.154-.602-2.007.376-.828 1.079-.929 1.882-.903 2.66.025 5.32-.026 7.98.025.727.025.903-.201.853-.904a26.34 26.34 0 010-2.81c.05-.653-.151-.853-.829-.828-2.61.025-5.244 0-7.879 0zM52.37.122c1.731.25 3.463.476 5.169.752 1.982.302 3.914.803 5.822 1.43 1.254.402 1.606 1.13 1.129 2.385a331.564 331.564 0 01-2.41 6.398c-.45 1.205-1.103 1.531-2.358 1.155-4.743-1.406-9.56-1.933-14.454-1.38-9.636 1.053-17.74 5.144-24.24 12.346-5.044 5.57-8.206 12.12-9.184 19.547-1.682 12.597 2.057 23.463 11.04 32.471 1.557 1.556 3.288 2.886 5.095 4.14 1.204.829 1.355 1.456.602 2.66-1.154 1.933-2.359 3.84-3.513 5.772-.427.728-1.004 1.03-1.857 1.03-6.349-.026-12.722 0-19.071-.026-1.255 0-1.782-.502-1.782-1.757v-7.05c0-1.205.527-1.707 1.707-1.732h7.302c-.427-.552-.753-.979-1.054-1.38-4.994-6.8-8.13-14.379-9.084-22.785-1.53-13.5 1.907-25.646 10.464-36.185C19.146 8.703 28.832 3.007 40.526.874c1.68-.3 3.387-.501 5.093-.752h6.75zM14.102 85.79c2.61 0 5.194-.025 7.804.025.602 0 .979-.126 1.28-.703.552-1.003 1.13-2.032 1.807-2.96.502-.678.3-.98-.301-1.456C12.195 70.835 6.8 57.912 8.908 42.153c1.43-10.64 6.725-19.322 15.206-25.947 7.303-5.72 15.659-8.531 24.943-8.581 3.363 0 6.675.401 9.912 1.23.527.125.728 0 .879-.453.326-.903.627-1.831 1.003-2.71.301-.652.276-.903-.527-1.104-7.503-1.907-15.03-1.982-22.534 0-11.794 3.112-20.953 9.887-27.3 20.276C4.416 34.8 2.559 45.59 4.792 57.034c1.581 8.105 5.195 15.206 10.69 21.354.527.577.979 1.154.602 2.008-.376.828-1.079.928-1.881.928-2.66-.025-5.32.025-7.98-.025-.728-.025-.904.2-.853.903.05.929.05 1.883 0 2.81-.05.653.15.854.828.829 2.66-.075 5.27-.05 7.904-.05z" fill="#0075FE"/><path d="M44.064 57.987c3.061 0 6.123.025 9.21 0 1.856-.025 2.985-1.63 2.258-3.162-.477-.978-1.33-1.33-2.384-1.33h-8.532c-6.65 0-12.145-4.893-12.848-11.417-.678-6.424 3.563-12.346 9.962-13.852.653-.15 1.606.05 1.907-.451.326-.527.1-1.38.126-2.108v-3.564c0-1.129.552-1.656 1.68-1.656h7.128c1.179 0 1.68.552 1.706 1.732 0 1.656.025 3.312-.025 4.968-.025.678.2.828.853.803 2.635-.025 5.27-.025 7.88-.025 1.304 0 1.806.502 1.806 1.832v6.85c0 1.355-.502 1.832-1.882 1.832H44.591c-1.33.076-2.309 1.03-2.334 2.234-.025 1.23 1.004 2.258 2.384 2.283 2.961.025 5.947 0 8.908 0 6.575 0 12.196 5.12 12.723 11.543.526 6.8-4.04 12.723-10.665 13.827-1.33.226-1.33.226-1.33 1.556v4.416c0 1.18-.527 1.706-1.732 1.706h-7.05c-1.23 0-1.732-.527-1.732-1.781 0-1.631-.05-3.263.025-4.894.025-.727-.226-.878-.904-.853-2.584.05-5.194.025-7.804.025-1.355 0-1.831-.502-1.857-1.882v-6.75c0-1.405.477-1.882 1.933-1.882h8.908zm1.405 2.986c-2.81 0-5.646.025-8.456 0-.578 0-.854.1-.803.753a30.24 30.24 0 010 3.011c-.026.628.2.778.803.778 2.66-.025 5.32-.025 7.98 0 1.229 0 1.756.527 1.756 1.782 0 1.656.025 3.312-.025 4.968-.025.628.2.803.803.778a30.22 30.22 0 013.01 0c.578.025.754-.125.754-.727-.05-1.732-.025-3.438 0-5.17 0-1.079.552-1.58 1.606-1.63.778-.051 1.556-.076 2.333-.176 4.894-.678 8.708-5.822 7.955-10.715-.803-5.245-4.718-8.608-10.012-8.633-2.86-.025-5.697 0-8.557 0-.402 0-.828 0-1.205-.1-2.735-.627-4.441-3.061-4.14-5.847.276-2.584 2.584-4.542 5.345-4.567h16.336c.627 0 .903-.1.853-.803a28.15 28.15 0 010-2.91c.05-.678-.2-.829-.828-.829-2.66.025-5.32.025-7.98 0-1.18 0-1.706-.527-1.706-1.731 0-1.681-.025-3.388 0-5.069.025-.602-.176-.753-.753-.728a30.24 30.24 0 01-3.011 0c-.603-.025-.803.15-.803.778.05 1.732.025 3.438 0 5.17 0 1.003-.552 1.555-1.556 1.58-.301 0-.627 0-.929.026-6.398.3-10.74 6.147-9.134 12.295 1.08 4.216 4.944 7.152 9.536 7.202 2.936.025 5.897 0 8.833 0 3.011 0 5.32 2.284 5.32 5.245 0 2.96-2.309 5.244-5.32 5.27-2.685.024-5.345 0-8.005 0z" fill="#0075FE"/><path d="M83.586 47.774c.025 5.12-.928 9.686-2.81 14.027-.477 1.13-1.43 1.506-2.309.954-.703-.427-.903-1.205-.502-2.158.929-2.208 1.656-4.517 2.058-6.876 1.63-9.66-.678-18.318-6.926-25.821-5.245-6.298-12.02-9.962-20.15-11.041-5.47-.728-10.765.05-15.884 2.133-.251.1-.527.226-.778.3-.878.302-1.656-.024-1.983-.852-.326-.753-.025-1.556.828-1.933a32.147 32.147 0 015.672-1.932c19.522-4.667 38.694 7.88 42.307 27.704.352 1.932.527 3.914.477 5.495zM49.584 82.805c-17.189.025-31.542-11.895-34.604-28.23-1.305-6.876-.527-13.551 2.234-20 .527-1.205 1.58-1.556 2.459-.828.677.577.677 1.255.351 2.032a31.508 31.508 0 00-2.258 7.98c-1.18 8.632.828 16.462 6.072 23.387 5.345 7.077 12.497 11.192 21.28 12.371 5.395.728 10.64-.075 15.708-2.107.251-.1.527-.226.778-.327.928-.326 1.732 0 2.083.828.326.803-.025 1.556-.929 1.958a33.579 33.579 0 01-7.126 2.233c-2.209.527-4.442.753-6.048.703zM25.695 26.394c-.677-.1-1.18-.326-1.455-.878-.276-.577-.226-1.18.226-1.656 1.53-1.581 3.187-2.986 5.018-4.166.678-.451 1.556-.226 1.983.427.426.678.452 1.43-.2 1.932-1.657 1.28-3.263 2.585-4.794 4.015-.226.2-.577.226-.778.326zm42.157 50.564c-.803 0-1.28-.351-1.505-.954-.226-.577-.176-1.23.351-1.63a72.915 72.915 0 004.818-4.016c.602-.552 1.355-.426 1.932.15.577.578.678 1.356.126 1.958a24.764 24.764 0 01-5.22 4.341c-.2.126-.426.126-.502.15z" fill="#0075FE"/></svg>