<svg width="23" height="23" fill="none" xmlns="http://www.w3.org/2000/svg"><path d="M1.56 18.827l5.787-5.787c-.747-1.213-1.12-2.613-1.12-4.107A7.927 7.927 0 0114.16 1C18.453 1 22 4.547 22 8.933a7.927 7.927 0 01-7.933 7.934c-1.494 0-2.894-.374-4.107-1.12l-5.787 5.786c-.373.28-.84.467-1.306.467-.467 0-.934-.187-1.307-.56-.747-.747-.747-1.867 0-2.613zm8.96-2.894c1.027.56 2.24.84 3.547.84 4.293 0 7.84-3.546 7.84-7.84 0-4.293-3.547-7.84-7.84-7.84-4.294 0-7.84 3.547-7.84 7.84 0 1.307.28 2.52.84 3.547a7.727 7.727 0 003.453 3.453z" stroke="#fff"/></svg>