<svg width="27" height="27" viewBox="0 0 27 27" fill="none" xmlns="http://www.w3.org/2000/svg">
<g clip-path="url(#clip0_5_2)">
<path d="M13.4698 0.620117C14.2015 0.711523 14.7147 1.15332 15.2126 1.65605C18.6322 5.08887 22.0671 8.5166 25.5019 11.9443C25.8931 12.3354 26.1777 12.7771 26.2437 13.3459C26.3199 13.9959 26.1421 14.5596 25.7255 15.0572C25.6442 15.1537 25.5527 15.2451 25.4612 15.3314C22.0467 18.749 18.6221 22.1615 15.2126 25.5842C14.7147 26.0869 14.2015 26.5236 13.4698 26.6201C13.3326 26.6201 13.2005 26.6201 13.0633 26.6201C12.9566 26.5338 12.8194 26.5744 12.6975 26.5389C11.1376 26.1174 10.472 24.1268 11.7829 22.8217C14.1151 20.501 16.4423 18.1701 18.7694 15.8443C19.4706 15.1436 20.1667 14.4377 20.873 13.7471C21 13.6201 20.9543 13.5693 20.8578 13.4729C19.4554 12.0764 18.053 10.6748 16.6557 9.27324C15.1466 7.76504 13.6375 6.25684 12.1335 4.75371C11.8286 4.44902 11.5187 4.15957 11.3154 3.76348C10.6498 2.48379 11.5085 0.838477 12.9516 0.660742C12.9922 0.655664 13.0278 0.635352 13.0684 0.620117C13.2005 0.620117 13.3326 0.620117 13.4698 0.620117Z" fill="black"/>
<path d="M2.74851 24.4365C1.40201 24.4365 0.431523 23.563 0.294333 22.5068C0.182549 21.6486 0.451847 20.9376 1.04126 20.3232C2.86029 18.4138 4.67424 16.4943 6.4882 14.5798C6.92009 14.1279 7.35198 13.6709 7.78896 13.2291C7.90582 13.1072 7.92107 13.0412 7.79404 12.9091C6.60506 11.6701 5.42625 10.4259 4.24235 9.18179C3.12959 8.00874 2.01175 6.84585 0.914228 5.66265C-0.183291 4.47945 0.1419 2.62085 1.55445 1.90992C2.27088 1.54937 3.20072 1.65093 3.80538 2.17906C4.43543 2.73257 4.97403 3.37242 5.55327 3.97671C6.80831 5.28179 8.0481 6.59703 9.29296 7.91226C10.3803 9.05992 11.4677 10.2076 12.555 11.3552C13.3375 12.183 13.49 13.2798 12.9463 14.2701C12.7634 14.6052 12.4839 14.8693 12.2197 15.1435C10.5886 16.8599 8.95761 18.5763 7.32658 20.2927C6.26463 21.4099 5.20268 22.5169 4.14581 23.6392C3.68851 24.1267 3.14991 24.4314 2.74851 24.4365Z" fill="black"/>
</g>
<defs>
<clipPath id="clip0_5_2">
<rect width="26" height="26" fill="white" transform="translate(0.258789 0.620117)"/>
</clipPath>
</defs>
</svg>
