<svg width="31" height="31" viewBox="0 0 31 31" fill="none" xmlns="http://www.w3.org/2000/svg">
<path d="M23.4077 9.40255C23.4077 7.17406 22.5225 5.03683 20.9467 3.46105C19.3709 1.88527 17.2337 1 15.0052 1C12.7767 1 10.6395 1.88527 9.06369 3.46105C7.48791 5.03683 6.60264 7.17406 6.60264 9.40255C6.60264 19.2055 2.40137 22.0064 2.40137 22.0064H27.609C27.609 22.0064 23.4077 19.2055 23.4077 9.40255Z" stroke="white" stroke-width="2" stroke-linecap="round" stroke-linejoin="round"/>
<path d="M17.4275 27.6082C17.1813 28.0326 16.8279 28.3849 16.4027 28.6298C15.9775 28.8747 15.4954 29.0036 15.0048 29.0036C14.5141 29.0036 14.032 28.8747 13.6068 28.6298C13.1816 28.3849 12.8282 28.0326 12.582 27.6082" stroke="white" stroke-width="2" stroke-linecap="round" stroke-linejoin="round"/>
<path d="M1 9.40255C1 6.32162 1.9803 3.38072 3.80085 1" stroke="white" stroke-width="2" stroke-linecap="round" stroke-linejoin="round"/>
<path d="M29.0098 9.40255C29.0098 6.37245 28.027 3.42408 26.209 1" stroke="white" stroke-width="2" stroke-linecap="round" stroke-linejoin="round"/>
</svg>
