<svg width="1418" height="478" viewBox="0 0 1418 478" fill="none" xmlns="http://www.w3.org/2000/svg">
<path d="M840.209 19.9761C840.713 20.4641 840.965 21.0841 840.965 21.8361C840.965 22.5881 840.713 23.2081 840.209 23.6961C839.713 24.1761 839.053 24.4161 838.229 24.4161H836.285V27.7881H834.989V19.2441H838.229C839.053 19.2441 839.713 19.4881 840.209 19.9761ZM839.261 22.8921C839.533 22.6361 839.669 22.2841 839.669 21.8361C839.669 21.3881 839.533 21.0401 839.261 20.7921C838.989 20.5361 838.621 20.4081 838.157 20.4081H836.285V23.2641H838.157C838.621 23.2641 838.989 23.1401 839.261 22.8921ZM846.664 22.2081L845.74 23.1321C845.468 22.8601 845.164 22.7241 844.828 22.7241C844.484 22.7241 844.196 22.8521 843.964 23.1081C843.732 23.3561 843.616 23.6841 843.616 24.0921V27.7881H842.392V21.7041H843.592V22.3641C843.752 22.1481 843.976 21.9721 844.264 21.8361C844.56 21.7001 844.876 21.6321 845.212 21.6321C845.796 21.6321 846.28 21.8241 846.664 22.2081ZM852.09 24.7401C852.09 25.3001 852.038 25.7681 851.934 26.1441C851.83 26.5201 851.642 26.8521 851.37 27.1401C850.906 27.6201 850.298 27.8601 849.546 27.8601C848.802 27.8601 848.198 27.6201 847.734 27.1401C847.462 26.8521 847.274 26.5201 847.17 26.1441C847.066 25.7681 847.014 25.3001 847.014 24.7401C847.014 24.1881 847.066 23.7241 847.17 23.3481C847.274 22.9641 847.462 22.6321 847.734 22.3521C848.198 21.8721 848.802 21.6321 849.546 21.6321C850.298 21.6321 850.906 21.8721 851.37 22.3521C851.642 22.6321 851.83 22.9641 851.934 23.3481C852.038 23.7241 852.09 24.1881 852.09 24.7401ZM850.446 26.4081C850.726 26.1281 850.866 25.5721 850.866 24.7401C850.866 23.9081 850.726 23.3521 850.446 23.0721C850.214 22.8401 849.914 22.7241 849.546 22.7241C849.186 22.7241 848.89 22.8401 848.658 23.0721C848.378 23.3521 848.238 23.9081 848.238 24.7401C848.238 25.5721 848.378 26.1281 848.658 26.4081C848.898 26.6481 849.194 26.7681 849.546 26.7681C849.906 26.7681 850.206 26.6481 850.446 26.4081ZM858.214 21.7041L855.982 27.7881H854.986L852.754 21.7041H854.05L855.49 25.9881L856.918 21.7041H858.214ZM860.502 27.7881H859.278V21.7041H860.502V27.7881ZM860.538 20.5041H859.242V19.2081H860.538V20.5041ZM866.942 25.9281C866.942 26.5441 866.706 27.0201 866.234 27.3561C865.77 27.6921 865.162 27.8601 864.41 27.8601C863.298 27.8601 862.446 27.5681 861.854 26.9841L862.658 26.1801C863.074 26.6041 863.658 26.8161 864.41 26.8161C864.81 26.8161 865.13 26.7481 865.37 26.6121C865.618 26.4681 865.742 26.2561 865.742 25.9761C865.742 25.5521 865.47 25.3121 864.926 25.2561L863.954 25.1721C862.754 25.0601 862.154 24.5001 862.154 23.4921C862.154 22.9081 862.37 22.4521 862.802 22.1241C863.234 21.7961 863.782 21.6321 864.446 21.6321C865.43 21.6321 866.182 21.8601 866.702 22.3161L865.934 23.0961C865.582 22.8001 865.082 22.6521 864.434 22.6521C864.074 22.6521 863.798 22.7241 863.606 22.8681C863.422 23.0041 863.33 23.1921 863.33 23.4321C863.33 23.6481 863.394 23.8121 863.522 23.9241C863.658 24.0281 863.874 24.0961 864.17 24.1281L865.022 24.2001C866.302 24.3121 866.942 24.8881 866.942 25.9281ZM869.655 27.7881H868.431V21.7041H869.655V27.7881ZM869.691 20.5041H868.395V19.2081H869.691V20.5041ZM876.383 24.7401C876.383 25.3001 876.331 25.7681 876.227 26.1441C876.123 26.5201 875.935 26.8521 875.663 27.1401C875.199 27.6201 874.591 27.8601 873.839 27.8601C873.095 27.8601 872.491 27.6201 872.027 27.1401C871.755 26.8521 871.567 26.5201 871.463 26.1441C871.359 25.7681 871.307 25.3001 871.307 24.7401C871.307 24.1881 871.359 23.7241 871.463 23.3481C871.567 22.9641 871.755 22.6321 872.027 22.3521C872.491 21.8721 873.095 21.6321 873.839 21.6321C874.591 21.6321 875.199 21.8721 875.663 22.3521C875.935 22.6321 876.123 22.9641 876.227 23.3481C876.331 23.7241 876.383 24.1881 876.383 24.7401ZM874.739 26.4081C875.019 26.1281 875.159 25.5721 875.159 24.7401C875.159 23.9081 875.019 23.3521 874.739 23.0721C874.507 22.8401 874.207 22.7241 873.839 22.7241C873.479 22.7241 873.183 22.8401 872.951 23.0721C872.671 23.3521 872.531 23.9081 872.531 24.7401C872.531 25.5721 872.671 26.1281 872.951 26.4081C873.191 26.6481 873.487 26.7681 873.839 26.7681C874.199 26.7681 874.499 26.6481 874.739 26.4081ZM882.972 27.7881H881.748V24.0801C881.748 23.6241 881.636 23.2841 881.412 23.0601C881.188 22.8361 880.892 22.7241 880.524 22.7241C880.156 22.7241 879.852 22.8401 879.612 23.0721C879.38 23.2961 879.264 23.6321 879.264 24.0801V27.7881H878.04V21.7041H879.24V22.3161C879.664 21.8601 880.204 21.6321 880.86 21.6321C881.476 21.6321 881.976 21.8161 882.36 22.1841C882.768 22.5841 882.972 23.1561 882.972 23.9001V27.7881ZM889.36 25.9281C889.36 26.5441 889.124 27.0201 888.652 27.3561C888.188 27.6921 887.58 27.8601 886.828 27.8601C885.716 27.8601 884.864 27.5681 884.272 26.9841L885.076 26.1801C885.492 26.6041 886.076 26.8161 886.828 26.8161C887.228 26.8161 887.548 26.7481 887.788 26.6121C888.036 26.4681 888.16 26.2561 888.16 25.9761C888.16 25.5521 887.888 25.3121 887.344 25.2561L886.372 25.1721C885.172 25.0601 884.572 24.5001 884.572 23.4921C884.572 22.9081 884.788 22.4521 885.22 22.1241C885.652 21.7961 886.2 21.6321 886.864 21.6321C887.848 21.6321 888.6 21.8601 889.12 22.3161L888.352 23.0961C888 22.8001 887.5 22.6521 886.852 22.6521C886.492 22.6521 886.216 22.7241 886.024 22.8681C885.84 23.0041 885.748 23.1921 885.748 23.4321C885.748 23.6481 885.812 23.8121 885.94 23.9241C886.076 24.0281 886.292 24.0961 886.588 24.1281L887.44 24.2001C888.72 24.3121 889.36 24.8881 889.36 25.9281ZM901.411 27.7881H900.115V22.0761L898.147 26.2401H897.187L895.171 22.0761V27.7881H893.875V19.2441H895.171L897.667 24.5601L900.115 19.2441H901.411V27.7881ZM908.281 24.7401C908.281 25.3001 908.229 25.7681 908.125 26.1441C908.021 26.5201 907.833 26.8521 907.561 27.1401C907.097 27.6201 906.489 27.8601 905.737 27.8601C904.993 27.8601 904.389 27.6201 903.925 27.1401C903.653 26.8521 903.465 26.5201 903.361 26.1441C903.257 25.7681 903.205 25.3001 903.205 24.7401C903.205 24.1881 903.257 23.7241 903.361 23.3481C903.465 22.9641 903.653 22.6321 903.925 22.3521C904.389 21.8721 904.993 21.6321 905.737 21.6321C906.489 21.6321 907.097 21.8721 907.561 22.3521C907.833 22.6321 908.021 22.9641 908.125 23.3481C908.229 23.7241 908.281 24.1881 908.281 24.7401ZM906.637 26.4081C906.917 26.1281 907.057 25.5721 907.057 24.7401C907.057 23.9081 906.917 23.3521 906.637 23.0721C906.405 22.8401 906.105 22.7241 905.737 22.7241C905.377 22.7241 905.081 22.8401 904.849 23.0721C904.569 23.3521 904.429 23.9081 904.429 24.7401C904.429 25.5721 904.569 26.1281 904.849 26.4081C905.089 26.6481 905.385 26.7681 905.737 26.7681C906.097 26.7681 906.397 26.6481 906.637 26.4081ZM914.87 27.7881H913.646V24.0801C913.646 23.6241 913.534 23.2841 913.31 23.0601C913.086 22.8361 912.79 22.7241 912.422 22.7241C912.054 22.7241 911.75 22.8401 911.51 23.0721C911.278 23.2961 911.162 23.6321 911.162 24.0801V27.7881H909.938V21.7041H911.138V22.3161C911.562 21.8601 912.102 21.6321 912.758 21.6321C913.374 21.6321 913.874 21.8161 914.258 22.1841C914.666 22.5841 914.87 23.1561 914.87 23.9001V27.7881ZM919.303 27.7881H918.571C918.035 27.7881 917.623 27.6241 917.335 27.2961C917.047 26.9681 916.903 26.5681 916.903 26.0961V22.6401H916.207V21.7041H916.903V19.9641H918.127V21.7041H919.303V22.6401H918.127V26.0361C918.127 26.5081 918.351 26.7441 918.799 26.7441H919.303V27.7881ZM925.792 27.7881H924.568V24.0801C924.568 23.6241 924.456 23.2841 924.232 23.0601C924.008 22.8361 923.712 22.7241 923.344 22.7241C922.976 22.7241 922.672 22.8401 922.432 23.0721C922.2 23.2961 922.084 23.6321 922.084 24.0801V27.7881H920.86V19.2441H922.084V22.3161C922.492 21.8601 923.024 21.6321 923.68 21.6321C924.296 21.6321 924.796 21.8161 925.18 22.1841C925.588 22.5841 925.792 23.1561 925.792 23.9001V27.7881Z" fill="#D0D1D2"/>
<rect x="957.373" y="8.28809" width="29" height="29" rx="3.5" fill="white"/>
<path fill-rule="evenodd" clip-rule="evenodd" d="M971.873 23.9547C972.517 23.9547 973.039 23.4323 973.039 22.788C973.039 22.1437 972.517 21.6213 971.873 21.6213C971.228 21.6213 970.706 22.1437 970.706 22.788C970.706 23.4323 971.228 23.9547 971.873 23.9547Z" stroke="#422F8A" stroke-opacity="0.87" stroke-width="1.16667" stroke-linecap="round" stroke-linejoin="round"/>
<path fill-rule="evenodd" clip-rule="evenodd" d="M976.539 23.9547C977.184 23.9547 977.706 23.4323 977.706 22.788C977.706 22.1437 977.184 21.6213 976.539 21.6213C975.895 21.6213 975.373 22.1437 975.373 22.788C975.373 23.4323 975.895 23.9547 976.539 23.9547Z" stroke="#422F8A" stroke-opacity="0.87" stroke-width="1.16667" stroke-linecap="round" stroke-linejoin="round"/>
<path fill-rule="evenodd" clip-rule="evenodd" d="M967.206 23.9547C967.85 23.9547 968.373 23.4323 968.373 22.788C968.373 22.1437 967.85 21.6213 967.206 21.6213C966.562 21.6213 966.039 22.1437 966.039 22.788C966.039 23.4323 966.562 23.9547 967.206 23.9547Z" stroke="#422F8A" stroke-opacity="0.87" stroke-width="1.16667" stroke-linecap="round" stroke-linejoin="round"/>
<rect x="957.373" y="8.28809" width="29" height="29" rx="3.5" stroke="#ECE9F1"/>
<rect x="1017.37" y="8.28809" width="125" height="29" rx="3.5" fill="white"/>
<path d="M1037.85 18.1001V27.7881H1036.57V20.5641L1033.35 27.7881H1032.46L1029.22 20.5501V27.7881H1027.95V18.1001H1029.32L1032.91 26.1081L1036.49 18.1001H1037.85ZM1039.53 23.9241C1039.53 23.1401 1039.69 22.4541 1040.01 21.8661C1040.33 21.2688 1040.76 20.8068 1041.31 20.4801C1041.87 20.1534 1042.49 19.9901 1043.17 19.9901C1043.85 19.9901 1044.43 20.1348 1044.92 20.4241C1045.42 20.7134 1045.79 21.0774 1046.03 21.5161V20.1161H1047.32V27.7881H1046.03V26.3601C1045.78 26.8081 1045.4 27.1814 1044.9 27.4801C1044.4 27.7694 1043.82 27.9141 1043.16 27.9141C1042.48 27.9141 1041.86 27.7461 1041.31 27.4101C1040.76 27.0741 1040.33 26.6028 1040.01 25.9961C1039.69 25.3894 1039.53 24.6988 1039.53 23.9241ZM1046.03 23.9381C1046.03 23.3594 1045.91 22.8554 1045.68 22.4261C1045.45 21.9968 1045.13 21.6701 1044.73 21.4461C1044.34 21.2128 1043.9 21.0961 1043.43 21.0961C1042.95 21.0961 1042.52 21.2081 1042.12 21.4321C1041.73 21.6561 1041.42 21.9828 1041.19 22.4121C1040.95 22.8414 1040.84 23.3454 1040.84 23.9241C1040.84 24.5121 1040.95 25.0254 1041.19 25.4641C1041.42 25.8934 1041.73 26.2248 1042.12 26.4581C1042.52 26.6821 1042.95 26.7941 1043.43 26.7941C1043.9 26.7941 1044.34 26.6821 1044.73 26.4581C1045.13 26.2248 1045.45 25.8934 1045.68 25.4641C1045.91 25.0254 1046.03 24.5168 1046.03 23.9381ZM1050.74 21.3621C1050.97 20.9234 1051.29 20.5828 1051.7 20.3401C1052.12 20.0974 1052.62 19.9761 1053.22 19.9761V21.2921H1052.89C1051.46 21.2921 1050.74 22.0668 1050.74 23.6161V27.7881H1049.47V20.1161H1050.74V21.3621ZM1054.22 23.9381C1054.22 23.1448 1054.38 22.4541 1054.69 21.8661C1055.01 21.2688 1055.45 20.8068 1056.01 20.4801C1056.58 20.1534 1057.23 19.9901 1057.95 19.9901C1058.9 19.9901 1059.67 20.2188 1060.28 20.6761C1060.89 21.1334 1061.3 21.7681 1061.5 22.5801H1060.12C1059.99 22.1134 1059.74 21.7448 1059.35 21.4741C1058.98 21.2034 1058.51 21.0681 1057.95 21.0681C1057.23 21.0681 1056.64 21.3201 1056.19 21.8241C1055.74 22.3188 1055.52 23.0234 1055.52 23.9381C1055.52 24.8621 1055.74 25.5761 1056.19 26.0801C1056.64 26.5841 1057.23 26.8361 1057.95 26.8361C1058.51 26.8361 1058.98 26.7054 1059.35 26.4441C1059.73 26.1828 1059.98 25.8094 1060.12 25.3241H1061.5C1061.29 26.1081 1060.88 26.7381 1060.26 27.2141C1059.65 27.6808 1058.88 27.9141 1057.95 27.9141C1057.23 27.9141 1056.58 27.7508 1056.01 27.4241C1055.45 27.0974 1055.01 26.6354 1054.69 26.0381C1054.38 25.4408 1054.22 24.7408 1054.22 23.9381ZM1067 19.9761C1067.58 19.9761 1068.11 20.1021 1068.57 20.3541C1069.04 20.5968 1069.4 20.9654 1069.66 21.4601C1069.94 21.9548 1070.07 22.5568 1070.07 23.2661V27.7881H1068.81V23.4481C1068.81 22.6828 1068.62 22.0994 1068.24 21.6981C1067.85 21.2874 1067.33 21.0821 1066.67 21.0821C1066 21.0821 1065.46 21.2921 1065.06 21.7121C1064.67 22.1321 1064.47 22.7434 1064.47 23.5461V27.7881H1063.2V17.4281H1064.47V21.2081C1064.72 20.8161 1065.07 20.5128 1065.51 20.2981C1065.95 20.0834 1066.45 19.9761 1067 19.9761ZM1075.52 26.7661C1076.71 25.8141 1077.63 25.0348 1078.31 24.4281C1078.98 23.8121 1079.54 23.1728 1080 22.5101C1080.47 21.8381 1080.7 21.1801 1080.7 20.5361C1080.7 19.9294 1080.55 19.4534 1080.25 19.1081C1079.96 18.7534 1079.49 18.5761 1078.84 18.5761C1078.2 18.5761 1077.71 18.7768 1077.35 19.1781C1077.01 19.5701 1076.82 20.0974 1076.79 20.7601H1075.56C1075.6 19.7148 1075.92 18.9074 1076.51 18.3381C1077.11 17.7688 1077.88 17.4841 1078.82 17.4841C1079.79 17.4841 1080.55 17.7501 1081.11 18.2821C1081.68 18.8141 1081.96 19.5468 1081.96 20.4801C1081.96 21.2548 1081.73 22.0108 1081.26 22.7481C1080.8 23.4761 1080.28 24.1201 1079.69 24.6801C1079.1 25.2308 1078.35 25.8748 1077.44 26.6121H1082.25V27.6761H1075.52V26.7661ZM1083.73 22.6221C1083.73 21.0168 1083.99 19.7661 1084.51 18.8701C1085.03 17.9648 1085.95 17.5121 1087.26 17.5121C1088.55 17.5121 1089.46 17.9648 1089.99 18.8701C1090.51 19.7661 1090.77 21.0168 1090.77 22.6221C1090.77 24.2554 1090.51 25.5248 1089.99 26.4301C1089.46 27.3354 1088.55 27.7881 1087.26 27.7881C1085.95 27.7881 1085.03 27.3354 1084.51 26.4301C1083.99 25.5248 1083.73 24.2554 1083.73 22.6221ZM1089.51 22.6221C1089.51 21.8101 1089.45 21.1241 1089.34 20.5641C1089.24 19.9948 1089.02 19.5374 1088.68 19.1921C1088.36 18.8468 1087.88 18.6741 1087.26 18.6741C1086.62 18.6741 1086.14 18.8468 1085.8 19.1921C1085.47 19.5374 1085.25 19.9948 1085.14 20.5641C1085.04 21.1241 1084.99 21.8101 1084.99 22.6221C1084.99 23.4621 1085.04 24.1668 1085.14 24.7361C1085.25 25.3054 1085.47 25.7628 1085.8 26.1081C1086.14 26.4534 1086.62 26.6261 1087.26 26.6261C1087.88 26.6261 1088.36 26.4534 1088.68 26.1081C1089.02 25.7628 1089.24 25.3054 1089.34 24.7361C1089.45 24.1668 1089.51 23.4621 1089.51 22.6221ZM1092.36 26.7661C1093.55 25.8141 1094.48 25.0348 1095.15 24.4281C1095.82 23.8121 1096.39 23.1728 1096.84 22.5101C1097.31 21.8381 1097.54 21.1801 1097.54 20.5361C1097.54 19.9294 1097.39 19.4534 1097.1 19.1081C1096.81 18.7534 1096.34 18.5761 1095.68 18.5761C1095.05 18.5761 1094.55 18.7768 1094.2 19.1781C1093.85 19.5701 1093.67 20.0974 1093.64 20.7601H1092.41C1092.44 19.7148 1092.76 18.9074 1093.36 18.3381C1093.96 17.7688 1094.73 17.4841 1095.67 17.4841C1096.63 17.4841 1097.39 17.7501 1097.95 18.2821C1098.52 18.8141 1098.8 19.5468 1098.8 20.4801C1098.8 21.2548 1098.57 22.0108 1098.1 22.7481C1097.65 23.4761 1097.12 24.1201 1096.54 24.6801C1095.95 25.2308 1095.2 25.8748 1094.28 26.6121H1099.1V27.6761H1092.36V26.7661ZM1100.57 22.6221C1100.57 21.0168 1100.83 19.7661 1101.35 18.8701C1101.88 17.9648 1102.79 17.5121 1104.1 17.5121C1105.4 17.5121 1106.31 17.9648 1106.83 18.8701C1107.35 19.7661 1107.61 21.0168 1107.61 22.6221C1107.61 24.2554 1107.35 25.5248 1106.83 26.4301C1106.31 27.3354 1105.4 27.7881 1104.1 27.7881C1102.79 27.7881 1101.88 27.3354 1101.35 26.4301C1100.83 25.5248 1100.57 24.2554 1100.57 22.6221ZM1106.35 22.6221C1106.35 21.8101 1106.3 21.1241 1106.18 20.5641C1106.08 19.9948 1105.86 19.5374 1105.53 19.1921C1105.2 18.8468 1104.72 18.6741 1104.1 18.6741C1103.46 18.6741 1102.98 18.8468 1102.64 19.1921C1102.32 19.5374 1102.1 19.9948 1101.98 20.5641C1101.88 21.1241 1101.83 21.8101 1101.83 22.6221C1101.83 23.4621 1101.88 24.1668 1101.98 24.7361C1102.1 25.3054 1102.32 25.7628 1102.64 26.1081C1102.98 26.4534 1103.46 26.6261 1104.1 26.6261C1104.72 26.6261 1105.2 26.4534 1105.53 26.1081C1105.86 25.7628 1106.08 25.3054 1106.18 24.7361C1106.3 24.1668 1106.35 23.4621 1106.35 22.6221Z" fill="#11263C"/>
<path fill-rule="evenodd" clip-rule="evenodd" d="M1120.62 19.288C1120.62 18.6437 1121.15 18.1213 1121.79 18.1213H1129.96C1130.6 18.1213 1131.12 18.6437 1131.12 19.288V27.4547C1131.12 28.099 1130.6 28.6213 1129.96 28.6213H1121.79C1121.15 28.6213 1120.62 28.099 1120.62 27.4547V19.288Z" stroke="#422F8A" stroke-opacity="0.87" stroke-width="1.16667" stroke-linecap="round" stroke-linejoin="round"/>
<path d="M1128.21 16.9548V19.2882" stroke="#422F8A" stroke-opacity="0.87" stroke-width="1.16667" stroke-linecap="round" stroke-linejoin="round"/>
<path d="M1123.54 16.9548V19.2882" stroke="#422F8A" stroke-opacity="0.87" stroke-width="1.16667" stroke-linecap="round" stroke-linejoin="round"/>
<path d="M1120.62 21.6213H1131.12" stroke="#422F8A" stroke-opacity="0.87" stroke-width="1.16667" stroke-linecap="round" stroke-linejoin="round"/>
<rect x="1017.37" y="8.28809" width="125" height="29" rx="3.5" stroke="#ECE9F1"/>
<path d="M9.738 17.7463V15.5143H0.54V17.7463H3.888V28.3303H6.39V17.7463H9.738ZM17.9439 23.6323C17.9439 21.9403 17.7279 20.8783 16.8819 19.9963C16.3059 19.3843 15.3519 18.8443 13.9659 18.8443C12.5799 18.8443 11.6439 19.3843 11.0679 19.9963C10.2219 20.8783 10.0059 21.9403 10.0059 23.6323C10.0059 25.3423 10.2219 26.4043 11.0679 27.2863C11.6439 27.8983 12.5799 28.4383 13.9659 28.4383C15.3519 28.4383 16.3059 27.8983 16.8819 27.2863C17.7279 26.4043 17.9439 25.3423 17.9439 23.6323ZM15.6039 23.6323C15.6039 24.6043 15.5499 25.4323 15.0639 25.9183C14.7939 26.1883 14.4339 26.3323 13.9659 26.3323C13.4979 26.3323 13.1559 26.1883 12.8859 25.9183C12.3999 25.4323 12.3459 24.6043 12.3459 23.6323C12.3459 22.6603 12.3999 21.8503 12.8859 21.3643C13.1559 21.0943 13.4979 20.9503 13.9659 20.9503C14.4339 20.9503 14.7939 21.0943 15.0639 21.3643C15.5499 21.8503 15.6039 22.6603 15.6039 23.6323ZM24.3873 28.3303V26.3503H23.5413C22.9833 26.3503 22.7313 26.0443 22.7313 25.5043V21.0043H24.3873V19.2223H22.7313V16.4503H20.3913V19.2223H19.4013V21.0043H20.3913V25.6483C20.3913 26.9803 21.2013 28.3303 23.1093 28.3303H24.3873ZM33.5427 28.3303V22.1563C33.5427 19.9603 32.1747 18.8443 29.5467 18.8443C27.9807 18.8443 27.0807 19.1323 26.1627 20.1403L27.6567 21.5983C28.1427 21.0403 28.5567 20.8243 29.4567 20.8243C30.6987 20.8243 31.2027 21.2743 31.2027 22.3003V22.7683H28.9887C26.8107 22.7683 25.7847 23.9923 25.7847 25.4863C25.7847 26.3143 26.0547 27.0703 26.5587 27.5923C27.1167 28.1503 27.8907 28.4203 28.9527 28.4203C30.0327 28.4203 30.6267 28.1503 31.2567 27.5203V28.3303H33.5427ZM31.2027 24.8743C31.2027 25.4503 31.1127 25.8283 30.8607 26.0623C30.4467 26.4583 30.0327 26.5123 29.3847 26.5123C28.4667 26.5123 28.0347 26.0803 28.0347 25.4323C28.0347 24.7663 28.5027 24.3703 29.3487 24.3703H31.2027V24.8743ZM40.044 28.3303V26.3503H39.144C38.55 26.3503 38.316 26.0623 38.316 25.5043V15.5143H35.976V25.6483C35.976 26.9803 36.786 28.3303 38.712 28.3303H40.044ZM53.5911 18.9523H51.1251L49.2351 24.7483L47.3271 18.9523H44.8611L48.3171 28.3303H50.1531L53.5911 18.9523ZM57.32 28.3303V18.9523H54.98V28.3303H57.32ZM57.338 17.3503V15.4423H54.944V17.3503H57.338ZM66.993 25.3783C66.993 23.7943 66.057 22.8043 64.203 22.6243L62.727 22.4803C61.899 22.4083 61.755 22.0123 61.755 21.6703C61.755 21.2023 62.151 20.7703 63.087 20.7703C63.897 20.7703 64.725 20.9143 65.265 21.4003L66.705 19.9423C65.805 19.0963 64.581 18.8443 63.123 18.8443C61.215 18.8443 59.505 19.8883 59.505 21.8323C59.505 23.5603 60.549 24.2983 62.241 24.4603L63.717 24.6043C64.455 24.6763 64.707 25.0003 64.707 25.4683C64.707 26.1703 63.861 26.4403 63.051 26.4403C62.331 26.4403 61.323 26.3323 60.549 25.5583L59.019 27.0883C60.207 28.2763 61.539 28.4383 63.015 28.4383C65.229 28.4383 66.993 27.4483 66.993 25.3783ZM71.2946 28.3303V18.9523H68.9546V28.3303H71.2946ZM71.3126 17.3503V15.4423H68.9186V17.3503H71.3126ZM78.1237 28.3303V26.3503H77.2777C76.7197 26.3503 76.4677 26.0443 76.4677 25.5043V21.0043H78.1237V19.2223H76.4677V16.4503H74.1277V19.2223H73.1377V21.0043H74.1277V25.6483C74.1277 26.9803 74.9377 28.3303 76.8457 28.3303H78.1237ZM87.2958 25.3783C87.2958 23.7943 86.3598 22.8043 84.5058 22.6243L83.0298 22.4803C82.2018 22.4083 82.0578 22.0123 82.0578 21.6703C82.0578 21.2023 82.4538 20.7703 83.3898 20.7703C84.1998 20.7703 85.0278 20.9143 85.5678 21.4003L87.0078 19.9423C86.1078 19.0963 84.8838 18.8443 83.4258 18.8443C81.5178 18.8443 79.8078 19.8883 79.8078 21.8323C79.8078 23.5603 80.8518 24.2983 82.5438 24.4603L84.0198 24.6043C84.7578 24.6763 85.0098 25.0003 85.0098 25.4683C85.0098 26.1703 84.1638 26.4403 83.3538 26.4403C82.6338 26.4403 81.6258 26.3323 80.8518 25.5583L79.3218 27.0883C80.5098 28.2763 81.8418 28.4383 83.3178 28.4383C85.5318 28.4383 87.2958 27.4483 87.2958 25.3783Z" fill="#11263C"/>
<path fill-rule="evenodd" clip-rule="evenodd" d="M107 28.8303C111.142 28.8303 114.5 25.4725 114.5 21.3303C114.5 17.1882 111.142 13.8303 107 13.8303C102.858 13.8303 99.4998 17.1882 99.4998 21.3303C99.4998 25.4725 102.858 28.8303 107 28.8303Z" stroke="#D0D1D2" stroke-width="1.5" stroke-linecap="round" stroke-linejoin="round"/>
<path d="M107 18.3303V21.3303" stroke="#D0D1D2" stroke-width="1.5" stroke-linecap="round" stroke-linejoin="round"/>
<circle cx="107" cy="24.3303" r="0.75" fill="#D0D1D2"/>
<path d="M97.6738 297.65C173.559 287.475 168.5 347.917 268.415 356.735C368.33 365.553 396.155 303.827 441.686 286.19C487.216 268.554 507.452 188.189 583.337 193.615C659.222 199.042 697.165 253.414 760.402 260.197C823.64 266.981 836.287 311.966 895.73 345.204C955.174 378.441 1009.56 382.511 1084.18 375.728C1158.8 368.944 1179.03 300.363 1214.45 297.65C1249.86 294.937 1281.48 327.641 1311.83 335.102C1342.19 342.564 1351.04 375.728 1415.54 375.728" stroke="#ECE9F1" stroke-width="4" stroke-linecap="round" stroke-linejoin="round"/>
<path d="M0.51 99.7446C1.35667 99.0646 2.02 98.5079 2.5 98.0746C2.98 97.6346 3.38333 97.1779 3.71 96.7046C4.04333 96.2246 4.21 95.7546 4.21 95.2946C4.21 94.8613 4.10333 94.5213 3.89 94.2746C3.68333 94.0213 3.34667 93.8946 2.88 93.8946C2.42667 93.8946 2.07333 94.0379 1.82 94.3246C1.57333 94.6046 1.44 94.9813 1.42 95.4546H0.54C0.566667 94.7079 0.793333 94.1313 1.22 93.7246C1.64667 93.3179 2.19667 93.1146 2.87 93.1146C3.55667 93.1146 4.1 93.3046 4.5 93.6846C4.90667 94.0646 5.11 94.5879 5.11 95.2546C5.11 95.8079 4.94333 96.3479 4.61 96.8746C4.28333 97.3946 3.91 97.8546 3.49 98.2546C3.07 98.6479 2.53333 99.1079 1.88 99.6346H5.32V100.395H0.51V99.7446ZM10.402 94.9646C10.2553 94.2246 9.79862 93.8546 9.03195 93.8546C8.43862 93.8546 7.99529 94.0846 7.70195 94.5446C7.40862 94.9979 7.26529 95.7479 7.27195 96.7946C7.42529 96.4479 7.67862 96.1779 8.03195 95.9846C8.39195 95.7846 8.79195 95.6846 9.23195 95.6846C9.91862 95.6846 10.4653 95.8979 10.872 96.3246C11.2853 96.7513 11.492 97.3413 11.492 98.0946C11.492 98.5479 11.402 98.9546 11.222 99.3146C11.0486 99.6746 10.782 99.9613 10.422 100.175C10.0686 100.388 9.63862 100.495 9.13195 100.495C8.44529 100.495 7.90862 100.341 7.52195 100.035C7.13529 99.7279 6.86529 99.3046 6.71195 98.7646C6.55862 98.2246 6.48195 97.5579 6.48195 96.7646C6.48195 94.3179 7.33529 93.0946 9.04195 93.0946C9.69529 93.0946 10.2086 93.2713 10.582 93.6246C10.9553 93.9779 11.1753 94.4246 11.242 94.9646H10.402ZM9.04195 96.4546C8.75529 96.4546 8.48529 96.5146 8.23195 96.6346C7.97862 96.7479 7.77195 96.9246 7.61195 97.1646C7.45862 97.3979 7.38195 97.6846 7.38195 98.0246C7.38195 98.5313 7.52862 98.9446 7.82195 99.2646C8.11529 99.5779 8.53529 99.7346 9.08195 99.7346C9.54862 99.7346 9.91862 99.5913 10.192 99.3046C10.472 99.0113 10.612 98.6179 10.612 98.1246C10.612 97.6046 10.4786 97.1979 10.212 96.9046C9.94529 96.6046 9.55529 96.4546 9.04195 96.4546ZM12.7196 96.7846C12.7196 95.6379 12.9063 94.7446 13.2796 94.1046C13.6529 93.4579 14.3063 93.1346 15.2396 93.1346C16.1663 93.1346 16.8163 93.4579 17.1896 94.1046C17.5629 94.7446 17.7496 95.6379 17.7496 96.7846C17.7496 97.9513 17.5629 98.8579 17.1896 99.5046C16.8163 100.151 16.1663 100.475 15.2396 100.475C14.3063 100.475 13.6529 100.151 13.2796 99.5046C12.9063 98.8579 12.7196 97.9513 12.7196 96.7846ZM16.8496 96.7846C16.8496 96.2046 16.8096 95.7146 16.7296 95.3146C16.6563 94.9079 16.4996 94.5813 16.2596 94.3346C16.0263 94.0879 15.6863 93.9646 15.2396 93.9646C14.7863 93.9646 14.4396 94.0879 14.1996 94.3346C13.9663 94.5813 13.8096 94.9079 13.7296 95.3146C13.6563 95.7146 13.6196 96.2046 13.6196 96.7846C13.6196 97.3846 13.6563 97.8879 13.7296 98.2946C13.8096 98.7013 13.9663 99.0279 14.1996 99.2746C14.4396 99.5213 14.7863 99.6446 15.2396 99.6446C15.6863 99.6446 16.0263 99.5213 16.2596 99.2746C16.4996 99.0279 16.6563 98.7013 16.7296 98.2946C16.8096 97.8879 16.8496 97.3846 16.8496 96.7846ZM26.2189 93.5546V100.475H25.3089V95.3146L23.0089 100.475H22.3689L20.0589 95.3046V100.475H19.1489V93.5546H20.1289L22.6889 99.2746L25.2489 93.5546H26.2189Z" fill="#A2A3A5"/>
<path d="M0.51 204.708C1.35667 204.028 2.02 203.471 2.5 203.038C2.98 202.598 3.38333 202.141 3.71 201.668C4.04333 201.188 4.21 200.718 4.21 200.258C4.21 199.824 4.10333 199.484 3.89 199.238C3.68333 198.984 3.34667 198.858 2.88 198.858C2.42667 198.858 2.07333 199.001 1.82 199.288C1.57333 199.568 1.44 199.944 1.42 200.418H0.54C0.566667 199.671 0.793333 199.094 1.22 198.688C1.64667 198.281 2.19667 198.078 2.87 198.078C3.55667 198.078 4.1 198.268 4.5 198.648C4.90667 199.028 5.11 199.551 5.11 200.218C5.11 200.771 4.94333 201.311 4.61 201.838C4.28333 202.358 3.91 202.818 3.49 203.218C3.07 203.611 2.53333 204.071 1.88 204.598H5.32V205.358H0.51V204.708ZM6.26195 204.708C7.10862 204.028 7.77195 203.471 8.25195 203.038C8.73195 202.598 9.13529 202.141 9.46195 201.668C9.79529 201.188 9.96195 200.718 9.96195 200.258C9.96195 199.824 9.85529 199.484 9.64195 199.238C9.43529 198.984 9.09862 198.858 8.63195 198.858C8.17862 198.858 7.82529 199.001 7.57195 199.288C7.32529 199.568 7.19195 199.944 7.17195 200.418H6.29195C6.31862 199.671 6.54529 199.094 6.97195 198.688C7.39862 198.281 7.94862 198.078 8.62195 198.078C9.30862 198.078 9.85195 198.268 10.252 198.648C10.6586 199.028 10.862 199.551 10.862 200.218C10.862 200.771 10.6953 201.311 10.362 201.838C10.0353 202.358 9.66195 202.818 9.24195 203.218C8.82195 203.611 8.28529 204.071 7.63195 204.598H11.072V205.358H6.26195V204.708ZM12.1239 201.748C12.1239 200.601 12.3106 199.708 12.6839 199.068C13.0572 198.421 13.7106 198.098 14.6439 198.098C15.5706 198.098 16.2206 198.421 16.5939 199.068C16.9672 199.708 17.1539 200.601 17.1539 201.748C17.1539 202.914 16.9672 203.821 16.5939 204.468C16.2206 205.114 15.5706 205.438 14.6439 205.438C13.7106 205.438 13.0572 205.114 12.6839 204.468C12.3106 203.821 12.1239 202.914 12.1239 201.748ZM16.2539 201.748C16.2539 201.168 16.2139 200.678 16.1339 200.278C16.0606 199.871 15.9039 199.544 15.6639 199.298C15.4306 199.051 15.0906 198.928 14.6439 198.928C14.1906 198.928 13.8439 199.051 13.6039 199.298C13.3706 199.544 13.2139 199.871 13.1339 200.278C13.0606 200.678 13.0239 201.168 13.0239 201.748C13.0239 202.348 13.0606 202.851 13.1339 203.258C13.2139 203.664 13.3706 203.991 13.6039 204.238C13.8439 204.484 14.1906 204.608 14.6439 204.608C15.0906 204.608 15.4306 204.484 15.6639 204.238C15.9039 203.991 16.0606 203.664 16.1339 203.258C16.2139 202.851 16.2539 202.348 16.2539 201.748ZM25.6232 198.518V205.438H24.7132V200.278L22.4132 205.438H21.7732L19.4632 200.268V205.438H18.5532V198.518H19.5332L22.0932 204.238L24.6532 198.518H25.6232Z" fill="#A2A3A5"/>
<path d="M0.38 304.001V303.171H2.26V310.401H1.34V304.001H0.38ZM5.14313 306.641C4.76979 306.494 4.48313 306.281 4.28313 306.001C4.08313 305.721 3.98313 305.381 3.98313 304.981C3.98313 304.621 4.07313 304.297 4.25313 304.011C4.43313 303.717 4.69979 303.487 5.05313 303.321C5.41313 303.147 5.84646 303.061 6.35313 303.061C6.85979 303.061 7.28979 303.147 7.64313 303.321C8.00313 303.487 8.27313 303.717 8.45313 304.011C8.63979 304.297 8.73313 304.621 8.73313 304.981C8.73313 305.367 8.62979 305.707 8.42313 306.001C8.21646 306.287 7.93313 306.501 7.57313 306.641C7.98646 306.767 8.31313 306.991 8.55313 307.311C8.79979 307.624 8.92313 308.004 8.92313 308.451C8.92313 308.884 8.81646 309.264 8.60313 309.591C8.38979 309.911 8.08646 310.161 7.69313 310.341C7.30646 310.514 6.85979 310.601 6.35313 310.601C5.84646 310.601 5.39979 310.514 5.01313 310.341C4.63313 310.161 4.33646 309.911 4.12313 309.591C3.90979 309.264 3.80313 308.884 3.80313 308.451C3.80313 308.004 3.92313 307.621 4.16313 307.301C4.40312 306.981 4.72979 306.761 5.14313 306.641ZM7.85313 305.091C7.85313 304.684 7.71979 304.371 7.45313 304.151C7.18646 303.931 6.81979 303.821 6.35313 303.821C5.89313 303.821 5.52979 303.931 5.26313 304.151C4.99646 304.371 4.86313 304.687 4.86313 305.101C4.86313 305.474 4.99979 305.774 5.27313 306.001C5.55313 306.227 5.91313 306.341 6.35313 306.341C6.79979 306.341 7.15979 306.227 7.43313 306.001C7.71313 305.767 7.85313 305.464 7.85313 305.091ZM6.35313 307.041C5.85979 307.041 5.45646 307.157 5.14313 307.391C4.82979 307.617 4.67312 307.961 4.67312 308.421C4.67312 308.847 4.82313 309.191 5.12313 309.451C5.42979 309.711 5.83979 309.841 6.35313 309.841C6.86646 309.841 7.27313 309.711 7.57313 309.451C7.87313 309.191 8.02313 308.847 8.02313 308.421C8.02313 307.974 7.86979 307.634 7.56313 307.401C7.25646 307.161 6.85313 307.041 6.35313 307.041ZM10.1317 306.711C10.1317 305.564 10.3184 304.671 10.6917 304.031C11.0651 303.384 11.7184 303.061 12.6517 303.061C13.5784 303.061 14.2284 303.384 14.6017 304.031C14.9751 304.671 15.1617 305.564 15.1617 306.711C15.1617 307.877 14.9751 308.784 14.6017 309.431C14.2284 310.077 13.5784 310.401 12.6517 310.401C11.7184 310.401 11.0651 310.077 10.6917 309.431C10.3184 308.784 10.1317 307.877 10.1317 306.711ZM14.2617 306.711C14.2617 306.131 14.2217 305.641 14.1417 305.241C14.0684 304.834 13.9117 304.507 13.6717 304.261C13.4384 304.014 13.0984 303.891 12.6517 303.891C12.1984 303.891 11.8517 304.014 11.6117 304.261C11.3784 304.507 11.2217 304.834 11.1417 305.241C11.0684 305.641 11.0317 306.131 11.0317 306.711C11.0317 307.311 11.0684 307.814 11.1417 308.221C11.2217 308.627 11.3784 308.954 11.6117 309.201C11.8517 309.447 12.1984 309.571 12.6517 309.571C13.0984 309.571 13.4384 309.447 13.6717 309.201C13.9117 308.954 14.0684 308.627 14.1417 308.221C14.2217 307.814 14.2617 307.311 14.2617 306.711ZM23.631 303.481V310.401H22.721V305.241L20.421 310.401H19.781L17.471 305.231V310.401H16.561V303.481H17.541L20.101 309.201L22.661 303.481H23.631Z" fill="#A2A3A5"/>
<path d="M0.38 408.964V408.134H2.26V415.364H1.34V408.964H0.38ZM3.60313 413.754V413.064L7.11313 408.204H8.20312V412.964H9.20313V413.754H8.20312V415.364H7.30313V413.754H3.60313ZM7.34313 409.154L4.65313 412.964H7.34313V409.154ZM10.1122 411.674C10.1122 410.527 10.2989 409.634 10.6722 408.994C11.0455 408.347 11.6989 408.024 12.6322 408.024C13.5589 408.024 14.2089 408.347 14.5822 408.994C14.9555 409.634 15.1422 410.527 15.1422 411.674C15.1422 412.84 14.9555 413.747 14.5822 414.394C14.2089 415.04 13.5589 415.364 12.6322 415.364C11.6989 415.364 11.0455 415.04 10.6722 414.394C10.2989 413.747 10.1122 412.84 10.1122 411.674ZM14.2422 411.674C14.2422 411.094 14.2022 410.604 14.1222 410.204C14.0489 409.797 13.8922 409.47 13.6522 409.224C13.4189 408.977 13.0789 408.854 12.6322 408.854C12.1789 408.854 11.8322 408.977 11.5922 409.224C11.3589 409.47 11.2022 409.797 11.1222 410.204C11.0489 410.604 11.0122 411.094 11.0122 411.674C11.0122 412.274 11.0489 412.777 11.1222 413.184C11.2022 413.59 11.3589 413.917 11.5922 414.164C11.8322 414.41 12.1789 414.534 12.6322 414.534C13.0789 414.534 13.4189 414.41 13.6522 414.164C13.8922 413.917 14.0489 413.59 14.1222 413.184C14.2022 412.777 14.2422 412.274 14.2422 411.674ZM23.6115 408.444V415.364H22.7015V410.204L20.4015 415.364H19.7615L17.4515 410.194V415.364H16.5415V408.444H17.5215L20.0815 414.164L22.6415 408.444H23.6115Z" fill="#A2A3A5"/>
<line x1="96.2163" y1="101.01" x2="1417" y2="101.01" stroke="#ECE9F1"/>
<line x1="96.2161" y1="205.973" x2="1417" y2="205.973" stroke="#ECE9F1"/>
<line x1="96.2161" y1="310.937" x2="1417" y2="310.937" stroke="#ECE9F1"/>
<line x1="96.2161" y1="415.899" x2="1417" y2="415.899" stroke="#ECE9F1"/>
<path d="M96.2161 392.774C154.245 383.786 201.964 328.98 271.203 319.768C308.107 314.858 337.671 324.414 370.656 339.263C403.641 354.111 397.184 360.523 471.368 371.97C532.587 381.417 548.6 279.569 608.588 283.482C668.576 287.395 696.321 164.943 759.656 175.165C822.99 185.386 835.645 158.958 895.179 209.045C954.714 259.132 1009.72 142.383 1084.45 132.161C1159.19 121.939 1178.65 230.432 1214.12 226.343C1249.59 222.254 1281.52 299.563 1311.92 310.807C1342.32 322.051 1350.94 281.205 1415.54 281.205" stroke="#422F8A" stroke-opacity="0.87" stroke-width="4" stroke-linecap="round" stroke-linejoin="round"/>
<path d="M271.203 319.768C201.964 328.98 154.245 383.786 96.2161 392.774V414.941H1415.54V281.205C1350.94 281.205 1342.32 322.051 1311.92 310.807C1281.52 299.563 1249.59 222.254 1214.12 226.343C1178.65 230.432 1159.19 121.939 1084.45 132.161C1009.72 142.383 954.714 259.132 895.179 209.045C835.645 158.958 822.99 185.386 759.656 175.165C696.321 164.943 668.576 287.395 608.588 283.482C548.6 279.569 532.587 381.417 471.368 371.97C397.184 360.523 403.641 354.111 370.656 339.263C337.671 324.414 308.107 314.858 271.203 319.768Z" fill="url(#paint0_linear_125_88)"/>
<path d="M96.5961 454.156V453.326H98.4761V460.556H97.5561V454.156H96.5961Z" fill="#A2A3A5"/>
<path d="M317.708 454.116H314.198V456.396C314.351 456.182 314.578 456.009 314.878 455.876C315.178 455.736 315.501 455.666 315.848 455.666C316.401 455.666 316.851 455.782 317.198 456.016C317.545 456.242 317.791 456.539 317.938 456.906C318.091 457.266 318.168 457.649 318.168 458.056C318.168 458.536 318.078 458.966 317.898 459.346C317.718 459.726 317.441 460.026 317.068 460.246C316.701 460.466 316.245 460.576 315.698 460.576C314.998 460.576 314.431 460.396 313.998 460.036C313.565 459.676 313.301 459.196 313.208 458.596H314.098C314.185 458.976 314.368 459.272 314.648 459.486C314.928 459.699 315.281 459.806 315.708 459.806C316.235 459.806 316.631 459.649 316.898 459.336C317.165 459.016 317.298 458.596 317.298 458.076C317.298 457.556 317.165 457.156 316.898 456.876C316.631 456.589 316.238 456.446 315.718 456.446C315.365 456.446 315.055 456.532 314.788 456.706C314.528 456.872 314.338 457.102 314.218 457.396H313.358V453.316H317.708V454.116Z" fill="#A2A3A5"/>
<path d="M529.201 454.156V453.326H531.081V460.556H530.161V454.156H529.201ZM532.644 456.866C532.644 455.719 532.83 454.826 533.204 454.186C533.577 453.539 534.23 453.216 535.164 453.216C536.09 453.216 536.74 453.539 537.114 454.186C537.487 454.826 537.674 455.719 537.674 456.866C537.674 458.032 537.487 458.939 537.114 459.586C536.74 460.232 536.09 460.556 535.164 460.556C534.23 460.556 533.577 460.232 533.204 459.586C532.83 458.939 532.644 458.032 532.644 456.866ZM536.774 456.866C536.774 456.286 536.734 455.796 536.654 455.396C536.58 454.989 536.424 454.662 536.184 454.416C535.95 454.169 535.61 454.046 535.164 454.046C534.71 454.046 534.364 454.169 534.124 454.416C533.89 454.662 533.734 454.989 533.654 455.396C533.58 455.796 533.544 456.286 533.544 456.866C533.544 457.466 533.58 457.969 533.654 458.376C533.734 458.782 533.89 459.109 534.124 459.356C534.364 459.602 534.71 459.726 535.164 459.726C535.61 459.726 535.95 459.602 536.184 459.356C536.424 459.109 536.58 458.782 536.654 458.376C536.734 457.969 536.774 457.466 536.774 456.866Z" fill="#A2A3A5"/>
<path d="M747.873 454.156V453.326H749.753V460.556H748.833V454.156H747.873ZM755.926 454.116H752.416V456.396C752.57 456.182 752.796 456.009 753.096 455.876C753.396 455.736 753.72 455.666 754.066 455.666C754.62 455.666 755.07 455.782 755.416 456.016C755.763 456.242 756.01 456.539 756.156 456.906C756.31 457.266 756.386 457.649 756.386 458.056C756.386 458.536 756.296 458.966 756.116 459.346C755.936 459.726 755.66 460.026 755.286 460.246C754.92 460.466 754.463 460.576 753.916 460.576C753.216 460.576 752.65 460.396 752.216 460.036C751.783 459.676 751.52 459.196 751.426 458.596H752.316C752.403 458.976 752.586 459.272 752.866 459.486C753.146 459.699 753.5 459.806 753.926 459.806C754.453 459.806 754.85 459.649 755.116 459.336C755.383 459.016 755.516 458.596 755.516 458.076C755.516 457.556 755.383 457.156 755.116 456.876C754.85 456.589 754.456 456.446 753.936 456.446C753.583 456.446 753.273 456.532 753.006 456.706C752.746 456.872 752.556 457.102 752.436 457.396H751.576V453.316H755.926V454.116Z" fill="#A2A3A5"/>
<path d="M966.131 459.826C966.977 459.146 967.641 458.589 968.121 458.156C968.601 457.716 969.004 457.259 969.331 456.786C969.664 456.306 969.831 455.836 969.831 455.376C969.831 454.942 969.724 454.602 969.511 454.356C969.304 454.102 968.967 453.976 968.501 453.976C968.047 453.976 967.694 454.119 967.441 454.406C967.194 454.686 967.061 455.062 967.041 455.536H966.161C966.187 454.789 966.414 454.212 966.841 453.806C967.267 453.399 967.817 453.196 968.491 453.196C969.177 453.196 969.721 453.386 970.121 453.766C970.527 454.146 970.731 454.669 970.731 455.336C970.731 455.889 970.564 456.429 970.231 456.956C969.904 457.476 969.531 457.936 969.111 458.336C968.691 458.729 968.154 459.189 967.501 459.716H970.941V460.476H966.131V459.826ZM971.993 456.866C971.993 455.719 972.179 454.826 972.553 454.186C972.926 453.539 973.579 453.216 974.513 453.216C975.439 453.216 976.089 453.539 976.463 454.186C976.836 454.826 977.023 455.719 977.023 456.866C977.023 458.032 976.836 458.939 976.463 459.586C976.089 460.232 975.439 460.556 974.513 460.556C973.579 460.556 972.926 460.232 972.553 459.586C972.179 458.939 971.993 458.032 971.993 456.866ZM976.123 456.866C976.123 456.286 976.083 455.796 976.003 455.396C975.929 454.989 975.773 454.662 975.533 454.416C975.299 454.169 974.959 454.046 974.513 454.046C974.059 454.046 973.713 454.169 973.473 454.416C973.239 454.662 973.083 454.989 973.003 455.396C972.929 455.796 972.893 456.286 972.893 456.866C972.893 457.466 972.929 457.969 973.003 458.376C973.083 458.782 973.239 459.109 973.473 459.356C973.713 459.602 974.059 459.726 974.513 459.726C974.959 459.726 975.299 459.602 975.533 459.356C975.773 459.109 975.929 458.782 976.003 458.376C976.083 457.969 976.123 457.466 976.123 456.866Z" fill="#A2A3A5"/>
<path d="M1184.8 459.826C1185.65 459.146 1186.31 458.589 1186.79 458.156C1187.27 457.716 1187.68 457.259 1188 456.786C1188.34 456.306 1188.5 455.836 1188.5 455.376C1188.5 454.942 1188.4 454.602 1188.18 454.356C1187.98 454.102 1187.64 453.976 1187.17 453.976C1186.72 453.976 1186.37 454.119 1186.11 454.406C1185.87 454.686 1185.73 455.062 1185.71 455.536H1184.83C1184.86 454.789 1185.09 454.212 1185.51 453.806C1185.94 453.399 1186.49 453.196 1187.16 453.196C1187.85 453.196 1188.39 453.386 1188.79 453.766C1189.2 454.146 1189.4 454.669 1189.4 455.336C1189.4 455.889 1189.24 456.429 1188.9 456.956C1188.58 457.476 1188.2 457.936 1187.78 458.336C1187.36 458.729 1186.83 459.189 1186.17 459.716H1189.61V460.476H1184.8V459.826ZM1195.28 454.116H1191.77V456.396C1191.92 456.182 1192.15 456.009 1192.45 455.876C1192.75 455.736 1193.07 455.666 1193.42 455.666C1193.97 455.666 1194.42 455.782 1194.77 456.016C1195.11 456.242 1195.36 456.539 1195.51 456.906C1195.66 457.266 1195.74 457.649 1195.74 458.056C1195.74 458.536 1195.65 458.966 1195.47 459.346C1195.29 459.726 1195.01 460.026 1194.64 460.246C1194.27 460.466 1193.81 460.576 1193.27 460.576C1192.57 460.576 1192 460.396 1191.57 460.036C1191.13 459.676 1190.87 459.196 1190.78 458.596H1191.67C1191.75 458.976 1191.94 459.272 1192.22 459.486C1192.5 459.699 1192.85 459.806 1193.28 459.806C1193.8 459.806 1194.2 459.649 1194.47 459.336C1194.73 459.016 1194.87 458.596 1194.87 458.076C1194.87 457.556 1194.73 457.156 1194.47 456.876C1194.2 456.589 1193.81 456.446 1193.29 456.446C1192.93 456.446 1192.62 456.532 1192.36 456.706C1192.1 456.872 1191.91 457.102 1191.79 457.396H1190.93V453.316H1195.28V454.116Z" fill="#A2A3A5"/>
<path d="M1403.97 455.146C1404.02 454.532 1404.26 454.052 1404.68 453.706C1405.11 453.359 1405.66 453.186 1406.34 453.186C1406.8 453.186 1407.19 453.269 1407.51 453.436C1407.85 453.596 1408.1 453.816 1408.26 454.096C1408.44 454.376 1408.52 454.692 1408.52 455.046C1408.52 455.459 1408.4 455.816 1408.16 456.116C1407.93 456.416 1407.62 456.609 1407.24 456.696V456.746C1407.68 456.852 1408.02 457.062 1408.27 457.376C1408.53 457.689 1408.65 458.099 1408.65 458.606C1408.65 458.986 1408.57 459.329 1408.39 459.636C1408.22 459.936 1407.96 460.172 1407.61 460.346C1407.27 460.519 1406.85 460.606 1406.36 460.606C1405.66 460.606 1405.08 460.422 1404.62 460.056C1404.17 459.682 1403.92 459.156 1403.86 458.476H1404.74C1404.79 458.876 1404.95 459.202 1405.23 459.456C1405.51 459.709 1405.89 459.836 1406.35 459.836C1406.82 459.836 1407.17 459.716 1407.41 459.476C1407.66 459.229 1407.78 458.912 1407.78 458.526C1407.78 458.026 1407.62 457.666 1407.28 457.446C1406.95 457.226 1406.45 457.116 1405.77 457.116H1405.54V456.356H1405.78C1406.4 456.349 1406.86 456.249 1407.17 456.056C1407.49 455.856 1407.64 455.549 1407.64 455.136C1407.64 454.782 1407.53 454.499 1407.29 454.286C1407.07 454.072 1406.74 453.966 1406.31 453.966C1405.9 453.966 1405.57 454.072 1405.31 454.286C1405.06 454.499 1404.91 454.786 1404.86 455.146H1403.97ZM1409.88 456.866C1409.88 455.719 1410.07 454.826 1410.44 454.186C1410.82 453.539 1411.47 453.216 1412.4 453.216C1413.33 453.216 1413.98 453.539 1414.35 454.186C1414.73 454.826 1414.91 455.719 1414.91 456.866C1414.91 458.032 1414.73 458.939 1414.35 459.586C1413.98 460.232 1413.33 460.556 1412.4 460.556C1411.47 460.556 1410.82 460.232 1410.44 459.586C1410.07 458.939 1409.88 458.032 1409.88 456.866ZM1414.01 456.866C1414.01 456.286 1413.97 455.796 1413.89 455.396C1413.82 454.989 1413.66 454.662 1413.42 454.416C1413.19 454.169 1412.85 454.046 1412.4 454.046C1411.95 454.046 1411.6 454.169 1411.36 454.416C1411.13 454.662 1410.97 454.989 1410.89 455.396C1410.82 455.796 1410.78 456.286 1410.78 456.866C1410.78 457.466 1410.82 457.969 1410.89 458.376C1410.97 458.782 1411.13 459.109 1411.36 459.356C1411.6 459.602 1411.95 459.726 1412.4 459.726C1412.85 459.726 1413.19 459.602 1413.42 459.356C1413.66 459.109 1413.82 458.782 1413.89 458.376C1413.97 457.969 1414.01 457.466 1414.01 456.866Z" fill="#A2A3A5"/>
<line x1="665.265" y1="245.834" x2="665.265" y2="414.941" stroke="#422F8A" stroke-opacity="0.87" stroke-dasharray="4.4 4.4"/>
<g filter="url(#filter0_dd_125_88)">
<path fill-rule="evenodd" clip-rule="evenodd" d="M669.812 213.98C667.025 217.577 662.506 217.577 659.719 213.98L652.444 205.047C651.562 203.964 651.121 203.423 650.576 203.033C650.094 202.688 649.554 202.432 648.982 202.276C648.336 202.1 647.638 202.1 646.241 202.1H573.257C563.51 202.1 559.975 201.085 556.411 199.179C552.848 197.273 550.051 194.476 548.145 190.913C546.239 187.349 545.224 183.815 545.224 174.067V101.844C545.224 92.0966 546.239 88.5619 548.145 84.9983C550.051 81.4348 552.848 78.6381 556.411 76.7323C559.975 74.8264 563.51 73.8115 573.257 73.8115H757.732C767.48 73.8115 771.014 74.8264 774.578 76.7323C778.141 78.6381 780.938 81.4348 782.844 84.9983C784.75 88.5619 785.765 92.0966 785.765 101.844V174.067C785.765 183.815 784.75 187.349 782.844 190.913C780.938 194.476 778.141 197.273 774.578 199.179C771.014 201.085 767.48 202.1 757.732 202.1H687.092C684.299 202.1 682.902 202.1 681.61 202.452C680.466 202.764 679.386 203.277 678.422 203.967C677.333 204.746 676.451 205.829 674.687 207.995L669.812 213.98Z" fill="white"/>
</g>
<g clip-path="url(#clip0_125_88)">
<path d="M568.292 88.8986V89.4906H566.772V94.4746H566.044V89.4906H564.516V88.8986H568.292ZM571.364 90.0106C571.695 90.0106 571.994 90.0826 572.26 90.2266C572.527 90.3653 572.735 90.5759 572.884 90.8586C573.039 91.1413 573.116 91.4853 573.116 91.8906V94.4746H572.396V91.9946C572.396 91.5573 572.287 91.2239 572.068 90.9946C571.85 90.7599 571.551 90.6426 571.172 90.6426C570.788 90.6426 570.482 90.7626 570.252 91.0026C570.028 91.2426 569.916 91.5919 569.916 92.0506V94.4746H569.188V88.5546H569.916V90.7146C570.06 90.4906 570.258 90.3173 570.508 90.1946C570.764 90.0719 571.05 90.0106 571.364 90.0106ZM574.682 89.3786C574.543 89.3786 574.426 89.3306 574.33 89.2346C574.234 89.1386 574.186 89.0213 574.186 88.8826C574.186 88.7439 574.234 88.6266 574.33 88.5306C574.426 88.4346 574.543 88.3866 574.682 88.3866C574.815 88.3866 574.927 88.4346 575.018 88.5306C575.114 88.6266 575.162 88.7439 575.162 88.8826C575.162 89.0213 575.114 89.1386 575.018 89.2346C574.927 89.3306 574.815 89.3786 574.682 89.3786ZM575.034 90.0906V94.4746H574.306V90.0906H575.034ZM577.826 94.5466C577.49 94.5466 577.189 94.4906 576.922 94.3786C576.656 94.2613 576.445 94.1013 576.29 93.8986C576.136 93.6906 576.05 93.4533 576.034 93.1866H576.786C576.808 93.4053 576.909 93.5839 577.09 93.7226C577.277 93.8613 577.52 93.9306 577.818 93.9306C578.096 93.9306 578.314 93.8693 578.474 93.7466C578.634 93.6239 578.714 93.4693 578.714 93.2826C578.714 93.0906 578.629 92.9493 578.458 92.8586C578.288 92.7626 578.024 92.6693 577.666 92.5786C577.341 92.4933 577.074 92.4079 576.866 92.3226C576.664 92.2319 576.488 92.1013 576.338 91.9306C576.194 91.7546 576.122 91.5253 576.122 91.2426C576.122 91.0186 576.189 90.8133 576.322 90.6266C576.456 90.4399 576.645 90.2933 576.89 90.1866C577.136 90.0746 577.416 90.0186 577.73 90.0186C578.216 90.0186 578.608 90.1413 578.906 90.3866C579.205 90.6319 579.365 90.9679 579.386 91.3946H578.658C578.642 91.1653 578.549 90.9813 578.378 90.8426C578.213 90.7039 577.989 90.6346 577.706 90.6346C577.445 90.6346 577.237 90.6906 577.082 90.8026C576.928 90.9146 576.85 91.0613 576.85 91.2426C576.85 91.3866 576.896 91.5066 576.986 91.6026C577.082 91.6933 577.2 91.7679 577.338 91.8266C577.482 91.8799 577.68 91.9413 577.93 92.0106C578.245 92.0959 578.501 92.1813 578.698 92.2666C578.896 92.3466 579.064 92.4693 579.202 92.6346C579.346 92.7999 579.421 93.0159 579.426 93.2826C579.426 93.5226 579.36 93.7386 579.226 93.9306C579.093 94.1226 578.904 94.2746 578.658 94.3866C578.418 94.4933 578.141 94.5466 577.826 94.5466ZM588.243 88.9386V94.4746H587.515V90.3466L585.675 94.4746H585.163L583.315 90.3386V94.4746H582.587V88.9386H583.371L585.419 93.5146L587.467 88.9386H588.243ZM591.389 94.5466C590.979 94.5466 590.605 94.4533 590.269 94.2666C589.939 94.0799 589.677 93.8159 589.485 93.4746C589.299 93.1279 589.205 92.7279 589.205 92.2746C589.205 91.8266 589.301 91.4319 589.493 91.0906C589.691 90.7439 589.957 90.4799 590.293 90.2986C590.629 90.1119 591.005 90.0186 591.421 90.0186C591.837 90.0186 592.213 90.1119 592.549 90.2986C592.885 90.4799 593.149 90.7413 593.341 91.0826C593.539 91.4239 593.637 91.8213 593.637 92.2746C593.637 92.7279 593.536 93.1279 593.333 93.4746C593.136 93.8159 592.867 94.0799 592.525 94.2666C592.184 94.4533 591.805 94.5466 591.389 94.5466ZM591.389 93.9066C591.651 93.9066 591.896 93.8453 592.125 93.7226C592.355 93.5999 592.539 93.4159 592.677 93.1706C592.821 92.9253 592.893 92.6266 592.893 92.2746C592.893 91.9226 592.824 91.6239 592.685 91.3786C592.547 91.1333 592.365 90.9519 592.141 90.8346C591.917 90.7119 591.675 90.6506 591.413 90.6506C591.147 90.6506 590.901 90.7119 590.677 90.8346C590.459 90.9519 590.283 91.1333 590.149 91.3786C590.016 91.6239 589.949 91.9226 589.949 92.2746C589.949 92.6319 590.013 92.9333 590.141 93.1786C590.275 93.4239 590.451 93.6079 590.669 93.7306C590.888 93.8479 591.128 93.9066 591.389 93.9066ZM596.731 90.0106C597.264 90.0106 597.696 90.1733 598.027 90.4986C598.357 90.8186 598.523 91.2826 598.523 91.8906V94.4746H597.803V91.9946C597.803 91.5573 597.693 91.2239 597.475 90.9946C597.256 90.7599 596.957 90.6426 596.579 90.6426C596.195 90.6426 595.888 90.7626 595.659 91.0026C595.435 91.2426 595.323 91.5919 595.323 92.0506V94.4746H594.595V90.0906H595.323V90.7146C595.467 90.4906 595.661 90.3173 595.907 90.1946C596.157 90.0719 596.432 90.0106 596.731 90.0106ZM600.6 90.6906V93.2746C600.6 93.4879 600.645 93.6399 600.736 93.7306C600.826 93.8159 600.984 93.8586 601.208 93.8586H601.744V94.4746H601.088C600.682 94.4746 600.378 94.3813 600.176 94.1946C599.973 94.0079 599.872 93.7013 599.872 93.2746V90.6906H599.304V90.0906H599.872V88.9866H600.6V90.0906H601.744V90.6906H600.6ZM604.802 90.0106C605.133 90.0106 605.431 90.0826 605.698 90.2266C605.965 90.3653 606.173 90.5759 606.322 90.8586C606.477 91.1413 606.554 91.4853 606.554 91.8906V94.4746H605.834V91.9946C605.834 91.5573 605.725 91.2239 605.506 90.9946C605.287 90.7599 604.989 90.6426 604.61 90.6426C604.226 90.6426 603.919 90.7626 603.69 91.0026C603.466 91.2426 603.354 91.5919 603.354 92.0506V94.4746H602.626V88.5546H603.354V90.7146C603.498 90.4906 603.695 90.3173 603.946 90.1946C604.202 90.0719 604.487 90.0106 604.802 90.0106Z" fill="#3C3C43" fill-opacity="0.6"/>
<path d="M564.909 115.009C565.317 114.685 565.503 114.535 565.467 114.559C566.643 113.587 567.567 112.789 568.239 112.165C568.923 111.541 569.499 110.887 569.967 110.203C570.435 109.519 570.669 108.853 570.669 108.205C570.669 107.713 570.555 107.329 570.327 107.053C570.099 106.777 569.757 106.639 569.301 106.639C568.845 106.639 568.485 106.813 568.221 107.161C567.969 107.497 567.843 107.977 567.843 108.601H564.873C564.897 107.581 565.113 106.729 565.521 106.045C565.941 105.361 566.487 104.857 567.159 104.533C567.843 104.209 568.599 104.047 569.427 104.047C570.855 104.047 571.929 104.413 572.649 105.145C573.381 105.877 573.747 106.831 573.747 108.007C573.747 109.291 573.309 110.485 572.433 111.589C571.557 112.681 570.441 113.749 569.085 114.793H573.945V117.295H564.909V115.009ZM575.192 115.009C575.6 114.685 575.786 114.535 575.75 114.559C576.926 113.587 577.85 112.789 578.522 112.165C579.206 111.541 579.782 110.887 580.25 110.203C580.718 109.519 580.952 108.853 580.952 108.205C580.952 107.713 580.838 107.329 580.61 107.053C580.382 106.777 580.04 106.639 579.584 106.639C579.128 106.639 578.768 106.813 578.504 107.161C578.252 107.497 578.126 107.977 578.126 108.601H575.156C575.18 107.581 575.396 106.729 575.804 106.045C576.224 105.361 576.77 104.857 577.442 104.533C578.126 104.209 578.882 104.047 579.71 104.047C581.138 104.047 582.212 104.413 582.932 105.145C583.664 105.877 584.03 106.831 584.03 108.007C584.03 109.291 583.592 110.485 582.716 111.589C581.84 112.681 580.724 113.749 579.368 114.793H584.228V117.295H575.192V115.009ZM585.584 110.725C585.584 108.661 585.98 107.035 586.772 105.847C587.576 104.659 588.866 104.065 590.642 104.065C592.418 104.065 593.702 104.659 594.494 105.847C595.298 107.035 595.7 108.661 595.7 110.725C595.7 112.813 595.298 114.451 594.494 115.639C593.702 116.827 592.418 117.421 590.642 117.421C588.866 117.421 587.576 116.827 586.772 115.639C585.98 114.451 585.584 112.813 585.584 110.725ZM592.676 110.725C592.676 109.513 592.544 108.583 592.28 107.935C592.016 107.275 591.47 106.945 590.642 106.945C589.814 106.945 589.268 107.275 589.004 107.935C588.74 108.583 588.608 109.513 588.608 110.725C588.608 111.541 588.656 112.219 588.752 112.759C588.848 113.287 589.04 113.719 589.328 114.055C589.628 114.379 590.066 114.541 590.642 114.541C591.218 114.541 591.65 114.379 591.938 114.055C592.238 113.719 592.436 113.287 592.532 112.759C592.628 112.219 592.676 111.541 592.676 110.725ZM600.944 114.631L598.946 119.797H596.984L598.028 114.631H600.944ZM602.602 108.043C602.65 106.759 603.07 105.769 603.862 105.073C604.654 104.377 605.728 104.029 607.084 104.029C607.984 104.029 608.752 104.185 609.388 104.497C610.036 104.809 610.522 105.235 610.846 105.775C611.182 106.315 611.35 106.921 611.35 107.593C611.35 108.385 611.152 109.033 610.756 109.537C610.36 110.029 609.898 110.365 609.37 110.545V110.617C610.054 110.845 610.594 111.223 610.99 111.751C611.386 112.279 611.584 112.957 611.584 113.785C611.584 114.529 611.41 115.189 611.062 115.765C610.726 116.329 610.228 116.773 609.568 117.097C608.92 117.421 608.146 117.583 607.246 117.583C605.806 117.583 604.654 117.229 603.79 116.521C602.938 115.813 602.488 114.745 602.44 113.317H605.428C605.44 113.845 605.59 114.265 605.878 114.577C606.166 114.877 606.586 115.027 607.138 115.027C607.606 115.027 607.966 114.895 608.218 114.631C608.482 114.355 608.614 113.995 608.614 113.551C608.614 112.975 608.428 112.561 608.056 112.309C607.696 112.045 607.114 111.913 606.31 111.913H605.734V109.411H606.31C606.922 109.411 607.414 109.309 607.786 109.105C608.17 108.889 608.362 108.511 608.362 107.971C608.362 107.539 608.242 107.203 608.002 106.963C607.762 106.723 607.432 106.603 607.012 106.603C606.556 106.603 606.214 106.741 605.986 107.017C605.77 107.293 605.644 107.635 605.608 108.043H602.602ZM613.464 115.135V112.651L619.152 104.515H622.59V112.471H624.066V115.135H622.59V117.475H619.512V115.135H613.464ZM619.728 107.899L616.704 112.471H619.728V107.899ZM625.466 115.009C625.874 114.685 626.06 114.535 626.024 114.559C627.2 113.587 628.124 112.789 628.796 112.165C629.48 111.541 630.056 110.887 630.524 110.203C630.992 109.519 631.226 108.853 631.226 108.205C631.226 107.713 631.112 107.329 630.884 107.053C630.656 106.777 630.314 106.639 629.858 106.639C629.402 106.639 629.042 106.813 628.778 107.161C628.526 107.497 628.4 107.977 628.4 108.601H625.43C625.454 107.581 625.67 106.729 626.078 106.045C626.498 105.361 627.044 104.857 627.716 104.533C628.4 104.209 629.156 104.047 629.984 104.047C631.412 104.047 632.486 104.413 633.206 105.145C633.938 105.877 634.304 106.831 634.304 108.007C634.304 109.291 633.866 110.485 632.99 111.589C632.114 112.681 630.998 113.749 629.642 114.793H634.502V117.295H625.466V115.009ZM639.475 114.631L637.477 119.797H635.515L636.559 114.631H639.475ZM640.701 107.197V104.335H645.687V117.475H642.483V107.197H640.701ZM647.685 115.009C648.093 114.685 648.279 114.535 648.243 114.559C649.419 113.587 650.343 112.789 651.015 112.165C651.699 111.541 652.275 110.887 652.743 110.203C653.211 109.519 653.445 108.853 653.445 108.205C653.445 107.713 653.331 107.329 653.103 107.053C652.875 106.777 652.533 106.639 652.077 106.639C651.621 106.639 651.261 106.813 650.997 107.161C650.745 107.497 650.619 107.977 650.619 108.601H647.649C647.673 107.581 647.889 106.729 648.297 106.045C648.717 105.361 649.263 104.857 649.935 104.533C650.619 104.209 651.375 104.047 652.203 104.047C653.631 104.047 654.705 104.413 655.425 105.145C656.157 105.877 656.523 106.831 656.523 108.007C656.523 109.291 656.085 110.485 655.209 111.589C654.333 112.681 653.217 113.749 651.861 114.793H656.721V117.295H647.685V115.009ZM658.184 108.043C658.232 106.759 658.652 105.769 659.444 105.073C660.236 104.377 661.31 104.029 662.666 104.029C663.566 104.029 664.334 104.185 664.97 104.497C665.618 104.809 666.104 105.235 666.428 105.775C666.764 106.315 666.932 106.921 666.932 107.593C666.932 108.385 666.734 109.033 666.338 109.537C665.942 110.029 665.48 110.365 664.952 110.545V110.617C665.636 110.845 666.176 111.223 666.572 111.751C666.968 112.279 667.166 112.957 667.166 113.785C667.166 114.529 666.992 115.189 666.644 115.765C666.308 116.329 665.81 116.773 665.15 117.097C664.502 117.421 663.728 117.583 662.828 117.583C661.388 117.583 660.236 117.229 659.372 116.521C658.52 115.813 658.07 114.745 658.022 113.317H661.01C661.022 113.845 661.172 114.265 661.46 114.577C661.748 114.877 662.168 115.027 662.72 115.027C663.188 115.027 663.548 114.895 663.8 114.631C664.064 114.355 664.196 113.995 664.196 113.551C664.196 112.975 664.01 112.561 663.638 112.309C663.278 112.045 662.696 111.913 661.892 111.913H661.316V109.411H661.892C662.504 109.411 662.996 109.309 663.368 109.105C663.752 108.889 663.944 108.511 663.944 107.971C663.944 107.539 663.824 107.203 663.584 106.963C663.344 106.723 663.014 106.603 662.594 106.603C662.138 106.603 661.796 106.741 661.568 107.017C661.352 107.293 661.226 107.635 661.19 108.043H658.184Z" fill="#11263C"/>
<path d="M572.523 132.555V139.475H571.613V134.315L569.313 139.475H568.673L566.363 134.305V139.475H565.453V132.555H566.433L568.993 138.275L571.553 132.555H572.523ZM573.726 136.715C573.726 136.155 573.839 135.665 574.066 135.245C574.293 134.818 574.603 134.488 574.996 134.255C575.396 134.021 575.839 133.905 576.326 133.905C576.806 133.905 577.223 134.008 577.576 134.215C577.929 134.421 578.193 134.681 578.366 134.995V133.995H579.286V139.475H578.366V138.455C578.186 138.775 577.916 139.041 577.556 139.255C577.203 139.461 576.789 139.565 576.316 139.565C575.829 139.565 575.389 139.445 574.996 139.205C574.603 138.965 574.293 138.628 574.066 138.195C573.839 137.761 573.726 137.268 573.726 136.715ZM578.366 136.725C578.366 136.311 578.283 135.951 578.116 135.645C577.949 135.338 577.723 135.105 577.436 134.945C577.156 134.778 576.846 134.695 576.506 134.695C576.166 134.695 575.856 134.775 575.576 134.935C575.296 135.095 575.073 135.328 574.906 135.635C574.739 135.941 574.656 136.301 574.656 136.715C574.656 137.135 574.739 137.501 574.906 137.815C575.073 138.121 575.296 138.358 575.576 138.525C575.856 138.685 576.166 138.765 576.506 138.765C576.846 138.765 577.156 138.685 577.436 138.525C577.723 138.358 577.949 138.121 578.116 137.815C578.283 137.501 578.366 137.138 578.366 136.725ZM585.544 133.995L582.244 142.055H581.304L582.384 139.415L580.174 133.995H581.184L582.904 138.435L584.604 133.995H585.544Z" fill="#3C3C43" fill-opacity="0.6"/>
</g>
<g filter="url(#filter1_dd_125_88)">
<rect x="650.188" y="231.256" width="29.1564" height="29.1564" rx="10" fill="#422F8A" fill-opacity="0.87"/>
<rect x="652.188" y="233.256" width="25.1564" height="25.1564" rx="8" stroke="white" stroke-width="4"/>
</g>
<defs>
<filter id="filter0_dd_125_88" x="529.224" y="65.8115" width="272.54" height="174.866" filterUnits="userSpaceOnUse" color-interpolation-filters="sRGB">
<feFlood flood-opacity="0" result="BackgroundImageFix"/>
<feColorMatrix in="SourceAlpha" type="matrix" values="0 0 0 0 0 0 0 0 0 0 0 0 0 0 0 0 0 0 127 0" result="hardAlpha"/>
<feOffset dy="8"/>
<feGaussianBlur stdDeviation="8"/>
<feColorMatrix type="matrix" values="0 0 0 0 0.196487 0 0 0 0 0.196487 0 0 0 0 0.279476 0 0 0 0.06 0"/>
<feBlend mode="multiply" in2="BackgroundImageFix" result="effect1_dropShadow_125_88"/>
<feColorMatrix in="SourceAlpha" type="matrix" values="0 0 0 0 0 0 0 0 0 0 0 0 0 0 0 0 0 0 127 0" result="hardAlpha"/>
<feOffset dy="8"/>
<feGaussianBlur stdDeviation="4"/>
<feColorMatrix type="matrix" values="0 0 0 0 0.196487 0 0 0 0 0.196487 0 0 0 0 0.279476 0 0 0 0.08 0"/>
<feBlend mode="multiply" in2="effect1_dropShadow_125_88" result="effect2_dropShadow_125_88"/>
<feBlend mode="normal" in="SourceGraphic" in2="effect2_dropShadow_125_88" result="shape"/>
</filter>
<filter id="filter1_dd_125_88" x="644.854" y="228.59" width="39.823" height="39.8232" filterUnits="userSpaceOnUse" color-interpolation-filters="sRGB">
<feFlood flood-opacity="0" result="BackgroundImageFix"/>
<feColorMatrix in="SourceAlpha" type="matrix" values="0 0 0 0 0 0 0 0 0 0 0 0 0 0 0 0 0 0 127 0" result="hardAlpha"/>
<feOffset dy="2.66667"/>
<feGaussianBlur stdDeviation="2.66667"/>
<feColorMatrix type="matrix" values="0 0 0 0 0.196487 0 0 0 0 0.196487 0 0 0 0 0.279476 0 0 0 0.06 0"/>
<feBlend mode="multiply" in2="BackgroundImageFix" result="effect1_dropShadow_125_88"/>
<feColorMatrix in="SourceAlpha" type="matrix" values="0 0 0 0 0 0 0 0 0 0 0 0 0 0 0 0 0 0 127 0" result="hardAlpha"/>
<feOffset dy="2.66667"/>
<feGaussianBlur stdDeviation="1.33333"/>
<feColorMatrix type="matrix" values="0 0 0 0 0.196487 0 0 0 0 0.196487 0 0 0 0 0.279476 0 0 0 0.06 0"/>
<feBlend mode="multiply" in2="effect1_dropShadow_125_88" result="effect2_dropShadow_125_88"/>
<feBlend mode="normal" in="SourceGraphic" in2="effect2_dropShadow_125_88" result="shape"/>
</filter>
<linearGradient id="paint0_linear_125_88" x1="755.879" y1="131.481" x2="755.879" y2="533.512" gradientUnits="userSpaceOnUse">
<stop stop-color="#7459D9" stop-opacity="0.1"/>
<stop offset="0.998978" stop-color="white" stop-opacity="0"/>
</linearGradient>
<clipPath id="clip0_125_88">
<rect width="104" height="128.584" fill="white" transform="translate(564.186 85.4746)"/>
</clipPath>
</defs>
</svg>
