<svg width="34" height="35" viewBox="0 0 34 35" fill="none" xmlns="http://www.w3.org/2000/svg">
<path d="M30.1141 16.224C30.7856 17.1023 30.7856 18.2881 30.1141 19.165C27.999 21.9261 22.9245 27.6112 17 27.6112C11.0755 27.6112 6.00098 21.9261 3.88589 19.165C3.55918 18.7444 3.38184 18.2271 3.38184 17.6945C3.38184 17.1619 3.55918 16.6446 3.88589 16.224C6.00098 13.4629 11.0755 7.77783 17 7.77783C22.9245 7.77783 27.999 13.4629 30.1141 16.224V16.224Z" stroke="black" stroke-width="2" stroke-linecap="round" stroke-linejoin="round"/>
<path d="M17 21.9443C19.3472 21.9443 21.25 20.0415 21.25 17.6943C21.25 15.3471 19.3472 13.4443 17 13.4443C14.6528 13.4443 12.75 15.3471 12.75 17.6943C12.75 20.0415 14.6528 21.9443 17 21.9443Z" stroke="black" stroke-width="2" stroke-linecap="round" stroke-linejoin="round"/>
</svg>
