<svg width="83" height="83" viewBox="0 0 83 83" fill="none" xmlns="http://www.w3.org/2000/svg">
<path d="M46.6759 14.2122C57.1437 14.2122 67.6257 14.2122 78.0935 14.2122C79.2125 14.2122 79.2125 14.2122 79.2125 15.2887C79.2125 26.8472 79.1983 38.4056 79.2267 49.9499C79.2267 50.7432 79.085 51.0406 78.2209 51.0123C76.4079 50.9415 76.4079 50.9981 76.4079 49.1567C76.4079 41.621 76.3937 34.0712 76.422 26.5355C76.422 25.7706 76.2379 25.5298 75.4446 25.544C67.6115 25.5723 59.7925 25.544 51.9594 25.5865C51.1095 25.5865 50.9254 25.3457 50.9395 24.5383C50.9962 22.2861 50.9395 20.0481 50.9679 17.7959C50.9679 17.2718 50.8546 17.0593 50.2596 17.0593C39.3811 17.0734 28.5167 17.0734 17.6381 17.0593C17.0715 17.0593 17.0007 17.2718 17.0007 17.7534C17.0148 27.6545 17.0148 37.5699 17.0007 47.4711C17.0007 48.0377 17.1565 48.1935 17.7231 48.1793C18.403 48.1652 19.2812 47.8677 19.692 48.2927C20.1594 48.7601 19.8336 49.6525 19.8478 50.3465C19.8761 52.4146 19.862 52.4146 17.7656 52.4146C16.774 52.4146 15.7683 52.4004 14.7768 52.4288C14.3377 52.4429 14.1394 52.2871 14.1819 51.848C14.1961 51.678 14.1819 51.5081 14.1819 51.3381C14.1819 39.3263 14.1961 27.3146 14.1677 15.3028C14.1677 14.4388 14.3802 14.2263 15.2442 14.2263C25.7262 14.2263 36.194 14.2122 46.6759 14.2122Z" fill="#4E4444"/>
<path d="M42.4689 48.1367C48.7864 48.1367 55.1039 48.1509 61.4214 48.1226C62.0872 48.1226 62.2855 48.2784 62.2855 48.9725C62.2571 56.4231 62.2571 63.888 62.2855 71.3386C62.2855 72.0894 62.0447 72.2594 61.3647 72.2027C60.5998 72.146 59.8349 72.1885 59.0559 72.1885C57.6961 72.2027 56.4496 72.1035 55.1464 71.4236C52.5117 70.0355 49.2822 70.8145 47.2141 73.0526C46.8317 73.4634 46.6617 73.5767 46.2226 73.0809C43.9279 70.5312 40.3017 70.0355 37.3696 71.8344C36.9871 72.061 36.633 72.1885 36.1797 72.1885C31.9445 72.1744 27.695 72.1744 23.4598 72.1885C22.8223 72.1885 22.6382 72.0327 22.6524 71.3811C22.6807 63.9021 22.6807 56.409 22.6524 48.93C22.6524 48.2076 22.9073 48.1084 23.5306 48.1084C29.8481 48.1509 36.1656 48.1367 42.4689 48.1367ZM42.4689 69.3414C45.5143 69.3414 48.5598 69.3272 51.6052 69.3556C52.1576 69.3556 52.3984 69.2564 52.3984 68.619C52.3701 62.9814 52.3843 57.358 52.3984 51.7204C52.3984 51.1963 52.2993 50.9697 51.7044 50.9697C45.5568 50.9838 39.4093 50.9838 33.276 50.9697C32.6952 50.9697 32.5819 51.168 32.5819 51.7063C32.596 57.3438 32.596 62.9673 32.5819 68.6048C32.5819 69.2281 32.7944 69.3556 33.3609 69.3414C36.378 69.3272 39.4235 69.3414 42.4689 69.3414Z" fill="#4E4444"/>
<path d="M19.8619 32.5698C19.8619 28.6461 19.8902 24.7083 19.8478 20.7847C19.8336 20.0056 20.0744 19.8356 20.811 19.8498C23.0065 19.8923 25.1879 19.8923 27.3834 19.8498C28.1058 19.8356 28.3891 19.9773 28.3466 20.7705C28.2758 22.102 28.3466 23.4477 28.3183 24.7791C28.3041 25.3032 28.4175 25.5299 29.0124 25.5299C32.3128 25.5015 35.6132 25.5015 38.9136 25.5299C39.466 25.5299 39.6643 25.3599 39.6501 24.8075C39.6218 23.391 39.6643 21.9604 39.636 20.5439C39.6218 20.0198 39.806 19.8498 40.33 19.864C42.7239 19.8923 45.1178 19.8781 47.4974 19.864C47.9649 19.864 48.149 19.9914 48.1349 20.4872C48.1065 21.9604 48.1065 23.4477 48.1349 24.9208C48.149 25.4307 47.9365 25.544 47.4833 25.5299C46.0668 25.5015 44.6362 25.5582 43.2197 25.5015C42.6106 25.4874 42.4689 25.6857 42.4689 26.2664C42.4831 32.3006 42.4689 38.3348 42.4973 44.369C42.4973 45.1198 42.3131 45.3322 41.5624 45.3181C39.6501 45.2756 39.6501 45.3039 39.6501 43.3917C39.6501 42.3435 39.636 41.2811 39.6501 40.2329C39.6643 39.7938 39.4943 39.638 39.0552 39.638C35.6698 39.6522 32.2844 39.6522 28.8991 39.638C28.4458 39.638 28.3183 39.8363 28.3325 40.2613C28.3466 41.6777 28.3183 43.1084 28.3466 44.5248C28.3608 45.0773 28.2475 45.3322 27.6101 45.3322C25.2729 45.3039 22.9357 45.3039 20.6127 45.3322C19.9752 45.3464 19.8619 45.0773 19.8761 44.5248C19.8619 40.5445 19.8619 36.5642 19.8619 32.5698Z" fill="#4E4444"/>
<path d="M73.5608 39.6663C73.5608 43.1083 73.5466 46.5504 73.5749 49.9924C73.5891 50.7432 73.4333 50.9981 72.6117 50.9981C70.232 50.9981 67.8382 50.814 65.4443 51.1114C64.8919 51.1823 65.0761 50.7998 65.0761 50.5732C65.0619 49.2134 65.0619 47.8394 65.0619 46.4796C65.0619 45.318 65.0619 45.318 63.9429 45.318C58.0503 45.318 52.1578 45.3039 46.2652 45.3322C45.472 45.3322 45.2737 45.1056 45.2737 44.3265C45.302 39.2838 45.302 34.2553 45.2737 29.2127C45.2737 28.4903 45.4862 28.3061 46.1944 28.3203C48.4183 28.3628 50.6421 28.3769 52.8518 28.3203C53.6451 28.292 53.8009 28.5752 53.7726 29.2835C53.7159 30.5866 53.7867 31.904 53.7442 33.2071C53.7301 33.7879 53.8717 34.0004 54.495 34.0004C57.7954 33.972 61.0958 33.972 64.3961 34.0004C64.9202 34.0004 65.0902 33.8446 65.0761 33.3205C65.0477 31.904 65.0902 30.4733 65.0619 29.0569C65.0477 28.5044 65.2319 28.3203 65.7985 28.3344C68.1073 28.3628 70.4162 28.3628 72.7109 28.3344C73.3625 28.3203 73.5749 28.4761 73.5749 29.1702C73.5466 32.6689 73.5608 36.1676 73.5608 39.6663Z" fill="#4E4444"/>
<path d="M80.8273 5.74168C80.3457 5.74168 80.0624 5.74168 79.7933 5.74168C57.767 5.74168 35.7266 5.74168 13.7003 5.74168C13.502 5.74168 13.3037 5.74168 13.1054 5.74168C12.7654 5.74168 12.7088 5.60003 12.8929 5.3309C13.9694 3.67362 15.0743 2.01634 16.1791 0.359058C16.4199 -0.00922658 16.7882 0.104092 17.114 0.104092C23.2332 0.104092 29.3524 0.104092 35.4716 0.104092C49.0273 0.104092 62.5689 0.104092 76.1246 0.089927C76.847 0.089927 77.2578 0.302399 77.626 0.89732C78.6176 2.46961 79.6799 4.01358 80.8273 5.74168Z" fill="#4E4444"/>
<path d="M46.7468 8.54614C58.1353 8.54614 69.5238 8.54614 80.8982 8.54614C82.0597 8.54614 82.0597 8.54614 82.0597 9.66516C82.0597 11.3933 82.0597 11.3933 80.3174 11.3933C57.7245 11.3933 35.1175 11.3933 12.5247 11.3933C11.1932 11.3933 11.3915 11.5774 11.3773 10.2884C11.3632 8.54614 11.3773 8.54614 13.1054 8.54614C24.3098 8.54614 35.5283 8.54614 46.7468 8.54614Z" fill="#4E4444"/>
<path d="M19.862 63.7323C19.862 66.2111 19.8336 68.69 19.8761 71.1546C19.8903 71.9478 19.7345 72.302 18.8563 72.2028C18.1197 72.1178 17.3831 72.1745 16.6324 72.1887C15.2726 72.217 14.0261 72.1037 12.7229 71.4096C10.5982 70.2906 8.36014 70.5597 6.29208 71.8062C5.85298 72.0753 5.4422 72.1887 4.93226 72.1887C3.54411 72.1603 2.1418 72.1603 0.75365 72.1887C0.272047 72.2028 0.0454102 72.1037 0.0454102 71.5371C0.0737397 68.3217 0.059575 65.1063 0.0454102 61.8909C0.0454102 61.5084 0.201223 61.2534 0.456189 61.0126C2.26928 59.2137 4.08238 57.4006 5.89547 55.5875C6.17877 55.3042 6.47623 55.1909 6.87284 55.1909C10.9381 55.2051 15.0034 55.2051 19.0829 55.1909C19.6778 55.1909 19.862 55.3609 19.862 55.9558C19.8478 58.548 19.862 61.1401 19.862 63.7323ZM9.90411 69.3415C12.043 69.3415 14.1677 69.3274 16.3066 69.3557C16.859 69.3699 17.029 69.2141 17.029 68.6475C17.0007 65.3471 17.0007 62.0467 17.029 58.7463C17.029 58.1797 16.859 58.038 16.3066 58.038C13.7144 58.0664 11.1223 58.0522 8.53012 58.038C8.13351 58.038 7.83605 58.1372 7.55275 58.4205C6.13627 59.8653 4.70563 61.2959 3.26082 62.7124C2.97752 62.9957 2.83588 63.279 2.85004 63.6898C2.8642 65.3471 2.87837 66.9902 2.85004 68.6475C2.83588 69.2141 3.02002 69.3699 3.58661 69.3699C5.69716 69.3132 7.79355 69.3415 9.90411 69.3415Z" fill="#4E4444"/>
<path d="M82.0595 62.344C82.0595 64.5395 82.0595 66.735 82.0595 68.9164C82.0595 70.4037 80.9122 71.197 79.4957 70.7437C79.1274 70.6304 79.2124 70.3612 79.2124 70.1346C79.2124 68.7181 79.1841 67.2875 79.2124 65.871C79.2265 65.3186 79.1132 65.0636 78.4758 65.0778C75.1754 65.1061 71.875 65.1061 68.5746 65.0778C68.0505 65.0778 67.8947 65.2336 67.8947 65.7577C67.923 67.1458 67.8806 68.5481 67.9231 69.9363C67.9372 70.5454 67.8239 70.7862 67.144 70.772C65.515 70.7437 65.0759 70.3471 65.0759 68.6898C65.0759 64.3979 65.0759 60.0918 65.0759 55.7998C65.0759 54.1567 65.9116 53.491 67.5406 53.7743C67.9939 53.8451 67.9089 54.1284 67.9089 54.3975C67.9089 55.814 67.9372 57.2446 67.8947 58.6611C67.8806 59.2277 67.9939 59.4543 68.6313 59.4543C71.9034 59.426 75.1754 59.426 78.4475 59.4543C79.0424 59.4543 79.2265 59.2985 79.2124 58.6894C79.1699 57.3013 79.2265 55.899 79.1841 54.5108C79.1699 53.9726 79.2974 53.7743 79.8923 53.7743C81.5637 53.7743 82.0453 54.2134 82.0453 55.8707C82.0595 58.0237 82.0595 60.1909 82.0595 62.344Z" fill="#4E4444"/>
<path d="M52.3843 73.5909C54.7073 73.6051 56.6337 75.5456 56.6195 77.8545C56.6054 80.1634 54.6506 82.104 52.3559 82.0898C50.0329 82.0757 48.1207 80.1351 48.1348 77.8262C48.1348 75.489 50.0613 73.5767 52.3843 73.5909ZM53.7583 77.8262C53.7583 77.033 53.1633 76.438 52.3559 76.4522C51.5627 76.4522 50.9678 77.0471 50.982 77.8545C50.982 78.6478 51.591 79.2427 52.3843 79.2427C53.1633 79.2144 53.7583 78.6053 53.7583 77.8262Z" fill="#4E4444"/>
<path d="M5.72542 77.8545C5.71126 75.5031 7.59517 73.5909 9.9182 73.5767C12.2412 73.5626 14.1535 75.4465 14.1818 77.7837C14.196 80.1209 12.312 82.0331 9.98902 82.0614C7.666 82.1039 5.73959 80.1917 5.72542 77.8545ZM11.363 77.897C11.4055 77.1321 10.8106 76.4805 10.0315 76.438C9.23829 76.3955 8.60087 76.9763 8.55838 77.7553C8.51589 78.5202 9.12497 79.186 9.88987 79.2143C10.6548 79.2568 11.3205 78.6619 11.363 77.897Z" fill="#4E4444"/>
<path d="M36.8171 77.812C36.8313 75.4748 38.7294 73.5767 41.0666 73.5909C43.3896 73.6051 45.2877 75.5315 45.2735 77.8545C45.2593 80.1775 43.3188 82.1039 41.0099 82.0897C38.7011 82.0614 36.8171 80.1492 36.8171 77.812ZM41.0099 79.2285C41.789 79.2568 42.4264 78.6477 42.4547 77.8828C42.483 77.1037 41.8881 76.4805 41.0949 76.4522C40.3017 76.4238 39.6784 77.0188 39.6501 77.7978C39.6359 78.5627 40.2308 79.2001 41.0099 79.2285Z" fill="#4E4444"/>
<path d="M28.6299 74.979C30.3722 74.979 32.1003 74.9932 33.8425 74.979C34.3666 74.979 34.6074 75.064 34.3525 75.6448C34.225 75.9564 34.1542 76.2963 34.0975 76.6363C33.8992 77.8261 33.9134 77.8261 32.6669 77.8261C29.6214 77.8261 26.576 77.812 23.5306 77.8403C22.9073 77.8403 22.6382 77.7553 22.6382 77.0187C22.6807 74.979 22.6382 74.979 24.6921 74.979C26.0094 74.979 27.3126 74.979 28.6299 74.979Z" fill="#4E4444"/>
<path d="M59.4527 31.1957C58.6878 31.1957 57.9229 31.1815 57.158 31.1957C56.7472 31.2098 56.5772 31.054 56.6197 30.6574C56.6197 30.6007 56.6197 30.5441 56.6197 30.4874C56.5631 28.3344 56.5631 28.3344 58.702 28.3344C59.6935 28.3344 60.685 28.3485 61.6907 28.3344C62.1298 28.3202 62.2573 28.476 62.2856 28.9151C62.3848 31.1957 62.399 31.1957 60.1468 31.1957C59.9201 31.1957 59.6935 31.1957 59.4527 31.1957Z" fill="#4E4444"/>
<path d="M33.9136 45.318C33.2053 45.318 32.4971 45.2896 31.7889 45.3321C31.2931 45.3605 31.1798 45.1621 31.1656 44.6947C31.0948 42.4992 31.0806 42.4992 33.2762 42.4992C34.2677 42.4992 35.2592 42.5133 36.2508 42.485C36.704 42.4708 36.8173 42.6267 36.8315 43.0658C36.9165 45.3321 36.9307 45.3321 34.6785 45.3321C34.4235 45.318 34.1685 45.318 33.9136 45.318Z" fill="#4E4444"/>
<path d="M73.6456 67.9392C73.8723 67.9392 74.0989 67.9392 74.3255 67.9392C76.6627 67.9392 76.6486 67.9392 76.4219 70.2622C76.3794 70.6163 76.2661 70.7721 75.912 70.7721C74.3822 70.7721 72.8382 70.758 71.3084 70.7721C70.9118 70.7721 70.7843 70.6163 70.7418 70.2197C70.5577 67.9392 70.5435 67.9392 72.7957 67.9392C73.0649 67.9392 73.3482 67.9392 73.6456 67.9392Z" fill="#4E4444"/>
<path d="M73.6317 53.7885C73.915 53.7885 74.1983 53.7743 74.4815 53.7885C75.0906 53.8452 75.9547 53.491 76.2521 53.9443C76.6771 54.5676 76.3655 55.4883 76.3796 56.2673C76.3938 56.5648 76.1955 56.6356 75.9263 56.6356C74.3682 56.6356 72.8101 56.6356 71.252 56.6356C70.8979 56.6356 70.7137 56.5081 70.7279 56.1399C70.7279 56.1115 70.7279 56.0832 70.7279 56.0549C70.5437 53.7743 70.5437 53.7743 72.7676 53.7743C73.0651 53.7885 73.3484 53.7885 73.6317 53.7885Z" fill="#4E4444"/>
<path d="M33.9842 22.6826C33.2193 22.6826 32.4544 22.6685 31.6753 22.6826C31.3212 22.6968 31.1229 22.5976 31.1654 22.201C31.1654 22.1444 31.1654 22.0877 31.1654 22.031C31.0946 19.8638 31.0946 19.8638 33.2335 19.8638C34.225 19.8638 35.2307 19.878 36.2222 19.8638C36.6472 19.8497 36.803 19.9772 36.8313 20.4446C36.9446 22.6826 36.9588 22.6826 34.7491 22.6826C34.4941 22.6826 34.2392 22.6826 33.9842 22.6826Z" fill="#4E4444"/>
<path d="M18.0773 74.9791C19.8479 74.9791 19.862 74.9791 19.8479 76.6788C19.8479 78.0387 19.9612 77.812 18.6439 77.8262C17.1282 77.8404 17.1141 77.8262 16.8733 76.4664C16.7883 75.9989 16.335 75.4182 16.6041 75.1207C16.9441 74.7524 17.624 75.0357 18.0773 74.9791Z" fill="#4E4444"/>
<path d="M60.26 77.8404C59.6226 77.9962 59.3535 77.7129 59.3535 76.948C59.3535 76.4522 59.1693 75.9423 59.0135 75.4749C58.8719 75.0499 59.0135 74.9933 59.3818 74.9933C60.175 75.0074 60.9682 74.9933 61.7615 74.9933C61.9881 74.9933 62.1864 74.9791 62.2856 75.2907C62.6822 76.7638 61.889 77.8262 60.26 77.8404Z" fill="#4E4444"/>
<path d="M1.84442 74.9649C2.32602 74.9933 2.96344 74.8374 3.23257 75.0924C3.58669 75.4182 3.06259 75.9423 3.0201 76.4097C3.0201 76.4664 3.00593 76.523 2.99177 76.5797C2.7793 77.9112 2.7793 77.9112 1.54696 77.8262C0.583754 77.7695 0.0879862 77.2454 0.0596567 76.2398C0.0313271 74.9791 0.0313271 74.9791 1.84442 74.9649Z" fill="#4E4444"/>
<path d="M42.483 53.7886C44.5794 53.7886 46.69 53.8027 48.7864 53.7744C49.3246 53.7744 49.5371 53.9019 49.5229 54.4827C49.4946 58.2647 49.4946 62.0466 49.5229 65.8286C49.5229 66.3952 49.353 66.551 48.8005 66.551C44.5653 66.5369 40.33 66.5369 36.0947 66.551C35.5848 66.551 35.4006 66.4236 35.4006 65.8853C35.4148 62.075 35.4148 58.2646 35.4006 54.4543C35.4006 53.9302 35.5706 53.7744 36.0805 53.7744C38.2194 53.8027 40.3442 53.7886 42.483 53.7886Z" fill="#4E4444"/>
<path d="M9.90413 66.5368C8.77094 66.5368 7.62359 66.5084 6.49041 66.5509C5.92382 66.5651 5.72551 66.4376 5.68302 65.8144C5.61219 64.7378 6.0513 64.0296 6.70288 63.208C8.24685 61.2816 10.0599 60.5592 12.468 60.8425C14.1677 61.0408 14.1819 60.885 14.1819 62.6273C14.1819 63.5905 14.1252 64.5679 14.1961 65.5311C14.2669 66.3809 13.9411 66.5934 13.1337 66.5509C12.0713 66.4801 10.9948 66.5368 9.90413 66.5368Z" fill="#4E4444"/>
</svg>
