<svg width="105" height="64" viewBox="0 0 105 64" fill="none" xmlns="http://www.w3.org/2000/svg">
<path d="M0.576571 19.2234C0.630837 19.1417 0.712235 19.0601 0.739368 18.9784C1.71615 15.793 3.80537 14.2139 7.08844 14.1867C12.0537 14.1595 17.0462 14.1595 22.0115 14.2139C22.8255 14.2139 23.2053 13.9689 23.5038 13.2338C24.3992 11.0557 25.4031 8.87769 26.4341 6.53629C25.8915 6.53629 25.4573 6.56352 25.0504 6.53629C23.2596 6.45462 21.9301 5.09334 21.9843 3.40535C22.0386 1.71737 23.341 0.437763 25.0775 0.410538C35.9035 0.383312 46.7295 0.410538 57.5554 0.410538C59.7803 0.410538 61.4083 1.55401 62.6835 3.26922C63.6061 4.46715 63.3619 6.23681 62.2494 7.27138C61.1098 8.30596 59.3733 8.33318 58.1795 7.32584C57.9082 7.08081 57.664 6.7541 57.3384 6.61797C56.1988 6.18236 55.6019 6.61797 55.6019 7.8159C55.6019 15.4935 55.6019 23.1984 55.6019 30.876C55.6019 31.5838 55.7375 32.0467 56.3345 32.4823C57.9082 33.6802 58.6408 35.3682 58.6679 37.3557C58.695 38.3086 58.2609 39.5337 58.8307 40.1054C59.4547 40.7589 60.6757 40.2688 61.6525 40.3232C62.575 40.3505 63.4704 40.3505 64.3929 40.3232C64.827 40.3232 65.017 40.4866 64.9627 40.9222C64.7456 42.583 64.7456 44.2437 64.9627 45.9045C65.0441 46.4762 64.6914 46.5034 64.2844 46.5034C62.6835 46.5034 61.1098 46.5307 59.509 46.5034C58.8307 46.4762 58.6408 46.694 58.6408 47.3747C58.6679 48.4909 58.7764 49.6344 58.5594 50.7234C57.9896 53.6093 55.7104 55.6512 52.6987 55.7057C48.059 55.7874 43.4193 55.7329 38.7795 55.7601C37.7214 55.7601 38.2912 55.1067 38.3726 54.7528C40.2176 46.694 35.6593 38.6897 27.8722 36.4028C16.5578 33.054 5.8946 43.2092 8.63501 54.7256C8.71641 55.0251 8.77067 55.3245 8.82494 55.624C5.13488 56.5497 1.79755 54.6439 0.739368 51.0773C0.712235 50.9412 0.630837 50.8323 0.549438 50.7234C0.576571 40.1871 0.576571 29.7053 0.576571 19.2234ZM49.5241 18.7878C49.5241 14.9762 49.497 11.1646 49.5513 7.35306C49.5513 6.69965 49.3613 6.48184 48.7101 6.48184C43.772 6.50907 38.8338 6.50907 33.8956 6.48184C33.3259 6.48184 33.0817 6.67242 32.8646 7.18971C31.9421 9.34053 31.1281 11.5458 29.9885 13.5877C28.5233 16.2558 28.0078 18.9239 29.0117 21.8371C29.1474 22.2455 29.1745 22.7083 29.2559 23.1439C30.097 27.9084 33.6786 31.0121 38.5082 31.0665C41.8998 31.0938 45.2643 31.0393 48.6559 31.0938C49.4699 31.0938 49.5784 30.7943 49.5784 30.0864C49.497 26.3565 49.5241 22.5722 49.5241 18.7878Z" fill="black"/>
<path d="M74.4868 46.4761C77.3358 46.4761 80.1847 46.4761 83.0065 46.4761C84.3903 46.4761 85.4214 45.8227 85.964 44.5431C86.4524 43.3724 86.2082 42.2561 85.3671 41.3304C84.6345 40.5137 83.6577 40.3231 82.5995 40.3231C77.2273 40.3231 71.8278 40.3231 66.4555 40.3231C64.9904 40.3231 64.9904 40.3231 65.316 38.9074C67.4594 29.5418 75.8435 23.1165 85.4756 23.4705C94.8907 23.7972 102.841 30.9031 104.333 40.2687C106.259 52.4929 96.79 63.5193 84.4717 63.3832C75.1923 63.2743 67.2695 56.7673 65.2346 47.6468C65.0446 46.7483 65.2074 46.4761 66.1842 46.4761C68.9517 46.5305 71.7193 46.5033 74.4868 46.4761C74.4868 46.5033 74.4868 46.5033 74.4868 46.4761Z" fill="black"/>
<path d="M23.4772 63.3833C16.694 63.356 11.2674 57.8565 11.2945 51.0229C11.3217 44.2165 16.8296 38.7986 23.64 38.8258C30.3418 38.853 35.7412 44.407 35.7141 51.2134C35.6869 57.9382 30.2332 63.3833 23.4772 63.3833ZM23.5314 57.2303C26.923 57.2303 29.6363 54.4805 29.6092 51.0501C29.582 47.7013 26.8688 44.9788 23.5314 44.9515C20.1398 44.9515 17.3994 47.6741 17.3994 51.1045C17.4265 54.535 20.1398 57.2303 23.5314 57.2303Z" fill="black"/>
</svg>
