<svg width="97" height="87" viewBox="0 0 97 87" fill="none" xmlns="http://www.w3.org/2000/svg">
<path d="M96.1581 7.67418C95.5581 9.57418 94.6581 11.2742 92.7581 12.1742C91.9581 12.5742 90.9581 12.4742 90.4581 12.9742C89.8581 13.4742 89.8581 14.4742 89.2581 15.1742C88.3581 16.3742 87.1581 17.0742 85.6581 17.2742C85.2581 17.3742 84.9581 17.4742 84.6581 17.8742C83.3581 19.8742 80.7581 20.2742 78.9581 18.7742C77.1581 17.2742 76.9581 14.7742 78.6581 13.0742C79.0581 12.6742 79.0581 12.3742 79.0581 11.8742C79.1581 9.37418 80.5581 7.27418 82.9581 6.47418C83.4581 6.27418 83.6581 6.07418 83.7581 5.57418C84.3581 2.67418 86.7581 0.674179 89.5581 0.474179C92.4581 0.374179 94.9581 2.17418 95.8581 4.97418C95.9581 5.27418 96.0581 5.57418 96.1581 5.87418C96.1581 6.47418 96.1581 7.07418 96.1581 7.67418Z" fill="black"/>
<path d="M45.158 86.3741C31.358 86.3741 17.658 86.3741 3.85803 86.3741C1.55803 86.3741 0.858032 85.6741 0.858032 83.3741C0.858032 69.3741 0.858032 55.3741 0.858032 41.3741C0.858032 39.1741 1.55803 38.3741 3.75803 38.3741C16.158 38.3741 28.458 38.3741 40.858 38.3741C42.958 38.3741 43.758 39.1741 43.758 41.2741C43.758 46.6741 43.758 51.9741 43.758 57.3741C43.758 58.1741 43.958 58.3741 44.758 58.3741C46.658 58.2741 48.658 58.3741 50.658 58.3741C51.158 58.3741 51.458 58.3741 51.458 57.6741C51.658 54.2741 51.858 50.8741 52.058 47.4741C52.058 46.9741 52.058 46.5741 51.458 46.1741C49.958 45.0741 50.258 41.7741 51.958 40.8741C52.358 40.6741 52.458 40.4741 52.458 40.0741C52.558 38.7741 52.558 37.4741 52.658 36.1741C52.658 35.6741 52.658 35.4741 52.058 35.2741C51.258 35.0741 50.858 34.4741 50.658 33.6741C50.458 32.9741 50.558 32.1741 50.558 31.4741C50.758 30.1741 51.458 29.4741 52.758 29.4741C56.358 29.4741 59.858 29.4741 63.458 29.4741C64.758 29.4741 65.558 30.2741 65.558 31.5741C65.558 32.1741 65.558 32.7741 65.558 33.3741C65.458 34.3741 64.958 35.0741 63.958 35.2741C63.458 35.3741 63.358 35.6741 63.358 36.0741C63.458 37.2741 63.558 38.5741 63.558 39.7741C63.558 40.2741 63.658 40.5741 64.258 40.6741C64.658 40.7741 64.858 41.0741 65.158 41.3741C66.158 42.5741 65.658 45.3741 64.358 46.2741C64.058 46.4741 63.958 46.6741 63.958 46.9741C64.158 50.4741 64.358 53.9741 64.558 57.4741C64.558 58.1741 64.858 58.2741 65.458 58.2741C68.258 58.2741 70.958 58.2741 73.758 58.2741C74.458 58.2741 74.658 58.0741 74.658 57.3741C74.858 51.6741 75.158 46.0741 75.458 40.3741C75.458 39.8741 75.458 39.4741 74.858 39.2741C74.658 39.1741 74.558 39.0741 74.458 38.8741C73.258 37.5741 73.858 34.5741 75.358 33.7741C75.658 33.6741 75.758 33.4741 75.758 33.2741C75.858 31.8741 75.858 30.4741 75.958 28.9741C75.958 28.6741 75.858 28.3741 75.558 28.3741C75.458 28.3741 75.358 28.3741 75.258 28.2741C74.058 27.7741 73.558 26.3741 73.958 24.3741C74.158 23.1741 74.858 22.4741 76.158 22.4741C79.658 22.4741 83.258 22.4741 86.758 22.4741C88.058 22.4741 88.758 23.1741 88.958 24.3741C89.058 25.1741 89.058 25.8741 88.858 26.6741C88.658 27.4741 88.158 28.0741 87.358 28.1741C86.758 28.2741 86.658 28.5741 86.658 29.1741C86.758 30.3741 86.758 31.6741 86.858 32.8741C86.858 33.2741 86.958 33.5741 87.458 33.6741C88.258 33.8741 88.758 34.4741 88.858 35.3741C88.958 36.1741 88.958 36.8741 88.858 37.6741C88.758 38.0741 88.658 38.6741 88.258 38.7741C86.858 39.3741 87.258 40.4741 87.258 41.4741C87.958 52.4741 88.458 63.1741 89.058 73.8741C89.258 77.0741 89.358 80.3741 89.458 83.5741C89.558 85.4741 88.758 86.2741 86.858 86.2741C72.958 86.3741 59.058 86.3741 45.158 86.3741ZM8.05803 54.2741C8.05803 57.3741 8.05803 60.5741 8.05803 63.6741C7.95803 64.1741 8.05803 64.4741 8.65803 64.4741C11.958 64.4741 15.258 64.4741 18.458 64.4741C19.058 64.4741 19.158 64.2741 19.158 63.7741C19.158 57.4741 19.158 51.2741 19.158 44.9741C19.158 44.3741 18.958 44.1741 18.358 44.1741C15.158 44.1741 12.058 44.1741 8.85803 44.1741C8.15803 44.1741 7.95803 44.3741 7.95803 45.0741C8.05803 48.1741 8.05803 51.1741 8.05803 54.2741ZM36.858 54.3741C36.858 51.2741 36.858 48.0741 36.858 44.9741C36.858 44.2741 36.658 44.1741 36.058 44.1741C32.858 44.1741 29.758 44.1741 26.558 44.1741C25.858 44.1741 25.658 44.2741 25.658 45.0741C25.658 51.2741 25.658 57.4741 25.658 63.6741C25.658 64.3741 25.858 64.4741 26.458 64.4741C29.658 64.4741 32.758 64.4741 35.958 64.4741C36.758 64.4741 36.858 64.1741 36.858 63.5741C36.758 60.4741 36.858 57.3741 36.858 54.3741ZM13.658 80.5741C15.258 80.5741 16.958 80.5741 18.558 80.5741C19.058 80.5741 19.258 80.4741 19.258 79.9741C19.258 77.1741 19.258 74.3741 19.258 71.5741C19.258 71.0741 19.058 70.8741 18.558 70.8741C15.358 70.8741 12.058 70.8741 8.85803 70.8741C8.35803 70.8741 8.05803 70.9741 8.15803 71.5741C8.15803 74.3741 8.15803 77.1741 8.15803 79.9741C8.15803 80.4741 8.35803 80.6741 8.85803 80.6741C10.358 80.5741 11.958 80.5741 13.658 80.5741ZM31.158 80.5741C32.758 80.5741 34.458 80.5741 36.058 80.5741C36.658 80.5741 36.758 80.3741 36.758 79.8741C36.758 77.0741 36.758 74.3741 36.758 71.5741C36.758 70.9741 36.558 70.8741 36.058 70.8741C32.858 70.8741 29.558 70.8741 26.358 70.8741C25.758 70.8741 25.658 71.0741 25.658 71.5741C25.658 74.3741 25.658 77.0741 25.658 79.8741C25.658 80.4741 25.858 80.5741 26.358 80.5741C27.958 80.5741 29.558 80.5741 31.158 80.5741ZM73.958 71.9741C74.058 70.9741 74.058 69.6741 74.158 68.2741C74.158 67.7741 74.058 67.4741 73.458 67.4741C70.958 67.4741 68.458 67.4741 65.958 67.4741C65.358 67.4741 65.158 67.6741 65.258 68.2741C65.458 70.9741 65.558 73.7741 65.658 76.4741C65.658 77.0741 65.958 77.1741 66.458 77.1741C68.658 77.1741 70.858 77.1741 73.058 77.1741C73.658 77.1741 73.758 76.9741 73.858 76.4741C73.858 75.0741 73.958 73.6741 73.958 71.9741ZM43.858 72.3741C43.858 73.7741 43.858 75.1741 43.858 76.5741C43.858 76.9741 43.958 77.2741 44.458 77.2741C46.258 77.2741 48.058 77.2741 49.858 77.2741C50.258 77.2741 50.458 77.1741 50.458 76.6741C50.658 73.8741 50.758 70.9741 50.958 68.1741C50.958 67.6741 50.858 67.4741 50.358 67.4741C48.458 67.4741 46.458 67.4741 44.558 67.4741C44.058 67.4741 43.958 67.6741 43.958 68.0741C43.858 69.5741 43.858 70.9741 43.858 72.3741Z" fill="black"/>
<path d="M72.558 13.7742C72.558 16.7742 70.558 19.2742 67.558 19.8742C67.058 19.9742 66.758 20.1742 66.558 20.7742C65.858 22.8742 64.358 24.0742 62.158 24.4742C61.658 24.5742 61.458 24.7742 61.158 25.1742C59.858 27.0742 57.258 27.4742 55.558 26.0742C53.758 24.6742 53.558 22.0742 55.158 20.3742C55.558 19.9742 55.658 19.5742 55.658 19.0742C55.558 16.6742 57.058 14.4742 59.358 13.6742C59.958 13.4742 60.158 13.1742 60.258 12.5742C60.958 9.37423 63.758 7.27423 67.158 7.67423C70.158 7.87423 72.558 10.6742 72.558 13.7742Z" fill="black"/>
</svg>
