<svg width="115" height="110" viewBox="0 0 115 110" fill="none" xmlns="http://www.w3.org/2000/svg">
<path d="M114.974 87.5691C114.303 90.1112 112.538 91.6276 110.325 92.8987C103.71 96.645 97.1618 100.458 90.6361 104.338C84.4455 107.995 77.7857 109.735 70.6118 109.712C55.1913 109.668 39.7484 109.69 24.3279 109.69C22.8753 109.69 22.8753 109.69 22.8753 108.263C22.8753 96.0875 22.8976 83.912 22.8529 71.7364C22.8529 70.7776 23.1658 70.3093 24.0374 69.9302C26.6298 68.7929 29.334 68.2577 32.1276 68.1239C35.5022 67.9678 38.8768 67.7225 42.1844 68.6591C44.6874 69.3727 46.7435 70.7107 48.1738 72.9629C49.8947 75.6388 52.3977 76.8876 55.5712 76.8876C59.4375 76.8653 63.2814 76.843 67.1477 76.8876C72.1985 76.9545 75.5955 82.128 73.7629 86.8109C73.4724 87.5691 73.0701 87.859 72.2209 87.859C63.7731 87.8144 55.303 87.8367 46.8553 87.8367C44.1958 87.8367 42.4526 89.9328 43.056 92.3412C43.4136 93.7237 44.6204 94.7718 46.0507 94.9502C46.2295 94.9725 46.4306 94.9948 46.6094 94.9948C56.331 94.9725 66.0527 95.0394 75.7743 94.9056C80.9815 94.8387 85.9205 93.3446 90.6808 91.2485C97.7206 88.1266 104.783 85.0492 111.8 81.905C112.582 81.5482 112.985 81.7266 113.476 82.3287C114.236 83.243 114.594 84.3134 114.974 85.3837C114.974 86.075 114.974 86.8332 114.974 87.5691Z" fill="#0075FE"/>
<path d="M87.9543 33.4257C87.9989 49.8604 74.5228 63.3293 58.0519 63.3516C41.5139 63.3739 27.9931 49.8827 28.0154 33.4034C28.0378 16.9241 41.4692 3.56665 57.9848 3.56665C74.5004 3.56665 87.9096 16.9241 87.9543 33.4257ZM60.4655 28.0961V28.0738C62.2087 28.0738 63.9519 28.1407 65.6951 28.0515C67.3489 27.9846 68.578 26.7135 68.7568 25.0634C68.9356 23.5247 67.9746 22.0752 66.4549 21.5401C65.7621 21.2948 65.0693 21.3617 64.3542 21.3617C62.3428 21.3617 62.3428 21.3617 62.2311 19.4216C62.1193 17.7268 60.8454 16.4112 59.214 16.2551C57.5155 16.099 55.9511 17.2139 55.5935 18.8864C55.5041 19.3547 55.4818 19.8453 55.5265 20.3136C55.6159 21.1164 55.37 21.3394 54.5208 21.4063C49.4253 21.7853 46.0283 26.7581 47.5257 31.6194C48.4867 34.7414 51.2803 36.9936 54.5655 37.172C56.5992 37.2835 58.6553 37.2166 60.689 37.2389C61.4489 37.2612 62.0076 37.5734 62.0076 38.4208C62.0076 39.2459 61.4712 39.5804 60.689 39.6027C60.4208 39.6027 60.175 39.6027 59.9068 39.6027C56.9121 39.6027 53.895 39.5804 50.9003 39.6027C48.8219 39.625 47.3246 40.9852 47.2799 42.8807C47.2352 44.843 48.6431 46.2702 50.8109 46.3594C51.7049 46.404 52.5988 46.3594 53.4928 46.3817C55.4371 46.3817 55.4371 46.3817 55.5488 48.2995C55.6606 50.0834 57.1356 51.5106 58.9011 51.5106C60.6667 51.5106 62.1417 50.1057 62.2534 48.2995C62.2758 47.8981 62.2981 47.4744 62.2534 47.073C62.164 46.4263 62.4545 46.2033 63.0579 46.0026C67.0807 44.7538 69.2932 41.2082 68.6898 37.1051C68.1534 33.3588 64.8011 30.5491 60.7784 30.4822C59.0352 30.4599 57.292 30.4599 55.5488 30.4822C54.7219 30.4822 54.0068 30.3038 53.9844 29.3449C53.9621 28.2968 54.7219 28.0961 55.5712 28.1184C57.2026 28.1184 58.8341 28.0961 60.4655 28.0961Z" fill="#0075FE"/>
<path d="M0.995981 93.8576C0.995981 88.9294 1.01833 84.0236 0.973633 79.0954C0.973633 78.3372 1.15242 78.0696 1.95697 78.0696C6.22554 78.1142 10.4941 78.1142 14.7403 78.0696C15.5449 78.0696 15.7013 78.3595 15.7013 79.0954C15.679 88.9294 15.679 98.7858 15.7013 108.62C15.7013 109.423 15.5225 109.69 14.6733 109.69C10.4494 109.646 6.22554 109.646 2.00167 109.69C1.13007 109.69 0.973633 109.4 0.973633 108.62C1.01833 103.714 0.995981 98.7858 0.995981 93.8576Z" fill="#0075FE"/>
<path d="M98.5697 18.7304C96.7819 18.7304 95.3068 17.3925 95.1728 15.5862C95.1281 14.828 95.3962 13.8468 95.0163 13.3339C94.5917 12.7765 93.5637 13.2001 92.8038 13.1332C90.9042 12.9772 89.5186 11.55 89.5409 9.72142C89.5633 7.89286 90.9265 6.51029 92.8709 6.3765C93.6084 6.3319 94.5246 6.68869 95.0163 6.1981C95.508 5.70751 95.1504 4.79323 95.1728 4.05735C95.2621 2.18419 96.6925 0.734719 98.525 0.71242C100.358 0.69012 101.788 2.09499 101.922 3.99045C101.967 4.74863 101.587 5.70751 102.146 6.2204C102.66 6.68869 103.576 6.3319 104.313 6.3765C106.213 6.53259 107.621 7.95976 107.621 9.76602C107.599 11.5054 106.213 12.9326 104.38 13.1332C103.598 13.2224 102.525 12.7542 102.078 13.3785C101.699 13.8914 101.967 14.8726 101.9 15.6531C101.743 17.4148 100.335 18.7081 98.5697 18.7304Z" fill="#0075FE"/>
<path d="M25.177 24.6846C25.2217 26.4908 23.7914 27.9403 21.9141 28.0964C21.1543 28.1633 20.171 27.7619 19.6569 28.2971C19.1653 28.81 19.5452 29.7911 19.4782 30.5493C19.3664 32.3556 17.9138 33.7605 16.1259 33.7605C14.3827 33.7605 12.8853 32.3556 12.7512 30.5716C12.6842 29.7688 13.1088 28.7654 12.5278 28.2525C12.0137 27.7842 11.0304 28.141 10.2706 28.0741C8.43797 27.918 7.07471 26.4685 7.07471 24.7069C7.09706 22.9452 8.48267 21.4957 10.2929 21.3619C11.0974 21.295 12.1478 21.741 12.6171 21.1389C12.9971 20.6483 12.7289 19.6449 12.7736 18.8867C12.8853 17.0804 14.3827 15.7202 16.1706 15.7425C17.9361 15.7648 19.3441 17.1027 19.4782 18.8421C19.5452 19.6449 19.1429 20.6706 19.6569 21.1835C20.171 21.6964 21.199 21.295 22.0035 21.3619C23.7914 21.5403 25.1547 22.9675 25.177 24.6846Z" fill="#0075FE"/>
<path d="M108.872 60.9435C108.872 62.7721 107.465 64.1769 105.543 64.2884C104.783 64.333 103.777 63.9316 103.33 64.5337C102.972 65.0243 103.218 65.9609 103.196 66.6968C103.107 68.5476 101.609 69.9971 99.799 69.9748C98.0334 69.9525 96.5808 68.5253 96.469 66.7191C96.4243 65.9609 96.8043 64.9797 96.2903 64.4668C95.7762 63.9539 94.8152 64.333 94.033 64.2661C92.2005 64.1323 90.8148 62.7275 90.7702 60.9435C90.7478 59.1595 92.2005 57.6432 94.0554 57.5317C94.8152 57.4871 95.7986 57.8662 96.2903 57.3533C96.7819 56.8404 96.402 55.8815 96.4467 55.101C96.5584 53.2948 97.9887 51.9122 99.7766 51.8899C101.565 51.8899 103.017 53.2502 103.151 55.0564C103.218 55.8592 102.794 56.9073 103.375 57.3756C103.866 57.7547 104.872 57.4871 105.632 57.5317C107.465 57.6878 108.872 59.1818 108.872 60.9435Z" fill="#0075FE"/>
</svg>
