<svg width="83" height="83" viewBox="0 0 83 83" fill="none" xmlns="http://www.w3.org/2000/svg">
<path d="M47.3742 14.2122C57.842 14.2122 68.3239 14.2122 78.7917 14.2122C79.9107 14.2122 79.9107 14.2122 79.9107 15.2887C79.9107 26.8472 79.8966 38.4056 79.9249 49.9499C79.9249 50.7432 79.7832 51.0406 78.9192 51.0123C77.1061 50.9415 77.1061 50.9981 77.1061 49.1567C77.1061 41.621 77.0919 34.0712 77.1203 26.5355C77.1203 25.7706 76.9361 25.5298 76.1429 25.544C68.3098 25.5723 60.4908 25.544 52.6576 25.5865C51.8078 25.5865 51.6236 25.3457 51.6378 24.5383C51.6944 22.2861 51.6378 20.0481 51.6661 17.7959C51.6661 17.2718 51.5528 17.0593 50.9579 17.0593C40.0793 17.0734 29.2149 17.0734 18.3363 17.0593C17.7698 17.0593 17.6989 17.2718 17.6989 17.7534C17.7131 27.6545 17.7131 37.5699 17.6989 47.4711C17.6989 48.0377 17.8547 48.1935 18.4213 48.1793C19.1012 48.1652 19.9795 47.8677 20.3902 48.2927C20.8577 48.7601 20.5319 49.6525 20.5461 50.3465C20.5744 52.4146 20.5602 52.4146 18.4638 52.4146C17.4723 52.4146 16.4666 52.4004 15.4751 52.4288C15.0359 52.4429 14.8376 52.2871 14.8801 51.848C14.8943 51.678 14.8801 51.5081 14.8801 51.3381C14.8801 39.3263 14.8943 27.3146 14.866 15.3028C14.866 14.4388 15.0784 14.2263 15.9425 14.2263C26.4244 14.2263 36.8922 14.2122 47.3742 14.2122Z" fill="black"/>
<path d="M43.1673 48.1367C49.4848 48.1367 55.8023 48.1509 62.1198 48.1226C62.7855 48.1226 62.9838 48.2784 62.9838 48.9725C62.9555 56.4231 62.9555 63.888 62.9838 71.3386C62.9838 72.0894 62.743 72.2594 62.0631 72.2027C61.2982 72.146 60.5333 72.1885 59.7542 72.1885C58.3944 72.2027 57.1479 72.1035 55.8448 71.4236C53.2101 70.0355 49.9805 70.8145 47.9125 73.0526C47.53 73.4634 47.3601 73.5767 46.9209 73.0809C44.6262 70.5312 41.0001 70.0355 38.0679 71.8344C37.6855 72.061 37.3314 72.1885 36.8781 72.1885C32.6428 72.1744 28.3934 72.1744 24.1581 72.1885C23.5207 72.1885 23.3366 72.0327 23.3507 71.3811C23.3791 63.9021 23.3791 56.409 23.3507 48.93C23.3507 48.2076 23.6057 48.1084 24.2289 48.1084C30.5464 48.1509 36.8639 48.1367 43.1673 48.1367ZM43.1673 69.3414C46.2127 69.3414 49.2581 69.3272 52.3036 69.3556C52.856 69.3556 53.0968 69.2564 53.0968 68.619C53.0685 62.9814 53.0826 57.358 53.0968 51.7204C53.0968 51.1963 52.9976 50.9697 52.4027 50.9697C46.2552 50.9838 40.1077 50.9838 33.9743 50.9697C33.3936 50.9697 33.2802 51.168 33.2802 51.7063C33.2944 57.3438 33.2944 62.9673 33.2802 68.6048C33.2802 69.2281 33.4927 69.3556 34.0593 69.3414C37.0764 69.3272 40.1218 69.3414 43.1673 69.3414Z" fill="black"/>
<path d="M20.5602 32.5698C20.5602 28.6461 20.5885 24.7083 20.546 20.7847C20.5318 20.0056 20.7726 19.8356 21.5092 19.8498C23.7047 19.8923 25.8861 19.8923 28.0817 19.8498C28.8041 19.8356 29.0874 19.9773 29.0449 20.7705C28.9741 22.102 29.0449 23.4477 29.0165 24.7791C29.0024 25.3032 29.1157 25.5299 29.7106 25.5299C33.011 25.5015 36.3114 25.5015 39.6118 25.5299C40.1642 25.5299 40.3625 25.3599 40.3484 24.8075C40.3201 23.391 40.3625 21.9604 40.3342 20.5439C40.3201 20.0198 40.5042 19.8498 41.0283 19.864C43.4221 19.8923 45.816 19.8781 48.1957 19.864C48.6631 19.864 48.8473 19.9914 48.8331 20.4872C48.8048 21.9604 48.8048 23.4477 48.8331 24.9208C48.8473 25.4307 48.6348 25.544 48.1815 25.5299C46.765 25.5015 45.3344 25.5582 43.9179 25.5015C43.3088 25.4874 43.1672 25.6857 43.1672 26.2664C43.1813 32.3006 43.1672 38.3348 43.1955 44.369C43.1955 45.1198 43.0114 45.3322 42.2606 45.3181C40.3484 45.2756 40.3484 45.3039 40.3484 43.3917C40.3484 42.3435 40.3342 41.2811 40.3484 40.2329C40.3625 39.7938 40.1926 39.638 39.7535 39.638C36.3681 39.6522 32.9827 39.6522 29.5973 39.638C29.144 39.638 29.0165 39.8363 29.0307 40.2613C29.0449 41.6777 29.0165 43.1084 29.0449 44.5248C29.059 45.0773 28.9457 45.3322 28.3083 45.3322C25.9711 45.3039 23.6339 45.3039 21.3109 45.3322C20.6735 45.3464 20.5602 45.0773 20.5743 44.5248C20.5602 40.5445 20.5602 36.5642 20.5602 32.5698Z" fill="black"/>
<path d="M74.2589 39.6663C74.2589 43.1083 74.2447 46.5504 74.273 49.9924C74.2872 50.7432 74.1314 50.9981 73.3098 50.9981C70.9302 50.9981 68.5363 50.814 66.1425 51.1114C65.59 51.1823 65.7742 50.7998 65.7742 50.5732C65.76 49.2134 65.76 47.8394 65.76 46.4796C65.76 45.318 65.76 45.318 64.641 45.318C58.7484 45.318 52.8559 45.3039 46.9633 45.3322C46.1701 45.3322 45.9718 45.1056 45.9718 44.3265C46.0001 39.2838 46.0001 34.2553 45.9718 29.2127C45.9718 28.4903 46.1843 28.3061 46.8925 28.3203C49.1164 28.3628 51.3403 28.3769 53.55 28.3203C54.3432 28.292 54.499 28.5752 54.4707 29.2835C54.414 30.5866 54.4848 31.904 54.4423 33.2071C54.4282 33.7879 54.5698 34.0004 55.1931 34.0004C58.4935 33.972 61.7939 33.972 65.0943 34.0004C65.6184 34.0004 65.7883 33.8446 65.7742 33.3205C65.7458 31.904 65.7883 30.4733 65.76 29.0569C65.7458 28.5044 65.93 28.3203 66.4966 28.3344C68.8054 28.3628 71.1143 28.3628 73.409 28.3344C74.0606 28.3203 74.273 28.4761 74.273 29.1702C74.2447 32.6689 74.2589 36.1676 74.2589 39.6663Z" fill="black"/>
<path d="M81.5255 5.74168C81.0439 5.74168 80.7606 5.74168 80.4915 5.74168C58.4652 5.74168 36.4248 5.74168 14.3985 5.74168C14.2002 5.74168 14.0019 5.74168 13.8036 5.74168C13.4637 5.74168 13.407 5.60003 13.5911 5.3309C14.6677 3.67362 15.7725 2.01634 16.8774 0.359058C17.1182 -0.00922658 17.4865 0.104092 17.8123 0.104092C23.9314 0.104092 30.0506 0.104092 36.1698 0.104092C49.7255 0.104092 63.2671 0.104092 76.8228 0.089927C77.5452 0.089927 77.956 0.302399 78.3243 0.89732C79.3158 2.46961 80.3782 4.01358 81.5255 5.74168Z" fill="black"/>
<path d="M47.445 8.54614C58.8334 8.54614 70.2219 8.54614 81.5963 8.54614C82.7578 8.54614 82.7578 8.54614 82.7578 9.66516C82.7578 11.3933 82.7578 11.3933 81.0155 11.3933C58.4227 11.3933 35.8157 11.3933 13.2228 11.3933C11.8913 11.3933 12.0896 11.5774 12.0755 10.2884C12.0613 8.54614 12.0755 8.54614 13.8036 8.54614C25.0079 8.54614 36.2264 8.54614 47.445 8.54614Z" fill="black"/>
<path d="M20.5602 63.7323C20.5602 66.2111 20.5319 68.69 20.5744 71.1546C20.5885 71.9478 20.4327 72.302 19.5545 72.2028C18.8179 72.1178 18.0814 72.1745 17.3306 72.1887C15.9708 72.217 14.7243 72.1037 13.4211 71.4096C11.2964 70.2906 9.05839 70.5597 6.99033 71.8062C6.55122 72.0753 6.14044 72.1887 5.63051 72.1887C4.24236 72.1603 2.84004 72.1603 1.45189 72.1887C0.970289 72.2028 0.743652 72.1037 0.743652 71.5371C0.771982 68.3217 0.757817 65.1063 0.743652 61.8909C0.743652 61.5084 0.899465 61.2534 1.15443 61.0126C2.96753 59.2137 4.78062 57.4006 6.59371 55.5875C6.87701 55.3042 7.17447 55.1909 7.57108 55.1909C11.6364 55.2051 15.7017 55.2051 19.7811 55.1909C20.3761 55.1909 20.5602 55.3609 20.5602 55.9558C20.546 58.548 20.5602 61.1401 20.5602 63.7323ZM10.6023 69.3415C12.7412 69.3415 14.866 69.3274 17.0048 69.3557C17.5573 69.3699 17.7272 69.2141 17.7272 68.6475C17.6989 65.3471 17.6989 62.0467 17.7272 58.7463C17.7272 58.1797 17.5573 58.038 17.0048 58.038C14.4127 58.0664 11.8205 58.0522 9.22836 58.038C8.83175 58.038 8.53429 58.1372 8.25099 58.4205C6.83451 59.8653 5.40387 61.2959 3.95906 62.7124C3.67577 62.9957 3.53412 63.279 3.54828 63.6898C3.56245 65.3471 3.57661 66.9902 3.54828 68.6475C3.53412 69.2141 3.71826 69.3699 4.28485 69.3699C6.39541 69.3132 8.4918 69.3415 10.6023 69.3415Z" fill="black"/>
<path d="M82.7579 62.344C82.7579 64.5395 82.7579 66.735 82.7579 68.9164C82.7579 70.4037 81.6105 71.197 80.194 70.7437C79.8258 70.6304 79.9107 70.3612 79.9107 70.1346C79.9107 68.7181 79.8824 67.2875 79.9107 65.871C79.9249 65.3186 79.8116 65.0636 79.1742 65.0778C75.8738 65.1061 72.5734 65.1061 69.273 65.0778C68.7489 65.0778 68.5931 65.2336 68.5931 65.7577C68.6214 67.1458 68.5789 68.5481 68.6214 69.9363C68.6356 70.5454 68.5223 70.7862 67.8424 70.772C66.2134 70.7437 65.7743 70.3471 65.7743 68.6898C65.7743 64.3979 65.7743 60.0918 65.7743 55.7998C65.7743 54.1567 66.61 53.491 68.239 53.7743C68.6922 53.8451 68.6072 54.1284 68.6072 54.3975C68.6072 55.814 68.6356 57.2446 68.5931 58.6611C68.5789 59.2277 68.6922 59.4543 69.3297 59.4543C72.6017 59.426 75.8738 59.426 79.1459 59.4543C79.7408 59.4543 79.9249 59.2985 79.9107 58.6894C79.8683 57.3013 79.9249 55.899 79.8824 54.5108C79.8683 53.9726 79.9957 53.7743 80.5907 53.7743C82.2621 53.7743 82.7437 54.2134 82.7437 55.8707C82.7579 58.0237 82.7579 60.1909 82.7579 62.344Z" fill="black"/>
<path d="M53.0826 73.5909C55.4057 73.6051 57.3321 75.5456 57.3179 77.8545C57.3037 80.1634 55.349 82.104 53.0543 82.0898C50.7313 82.0757 48.819 80.1351 48.8332 77.8262C48.8332 75.489 50.7596 73.5767 53.0826 73.5909ZM54.4566 77.8262C54.4566 77.033 53.8617 76.438 53.0543 76.4522C52.2611 76.4522 51.6662 77.0471 51.6803 77.8545C51.6803 78.6478 52.2894 79.2427 53.0826 79.2427C53.8617 79.2144 54.4566 78.6053 54.4566 77.8262Z" fill="black"/>
<path d="M6.42366 77.8545C6.4095 75.5031 8.29342 73.5909 10.6164 73.5767C12.9395 73.5626 14.8517 75.4465 14.88 77.7837C14.8942 80.1209 13.0103 82.0331 10.6873 82.0614C8.36424 82.1039 6.43783 80.1917 6.42366 77.8545ZM12.0613 77.897C12.1037 77.1321 11.5088 76.4805 10.7298 76.438C9.93653 76.3955 9.29912 76.9763 9.25662 77.7553C9.21413 78.5202 9.82321 79.186 10.5881 79.2143C11.353 79.2568 12.0188 78.6619 12.0613 77.897Z" fill="black"/>
<path d="M37.5155 77.812C37.5297 75.4748 39.4277 73.5767 41.7649 73.5909C44.088 73.6051 45.986 75.5315 45.9719 77.8545C45.9577 80.1775 44.0171 82.1039 41.7083 82.0897C39.3994 82.0614 37.5155 80.1492 37.5155 77.812ZM41.7083 79.2285C42.4873 79.2568 43.1247 78.6477 43.1531 77.8828C43.1814 77.1037 42.5865 76.4805 41.7933 76.4522C41 76.4238 40.3768 77.0188 40.3485 77.7978C40.3343 78.5627 40.9292 79.2001 41.7083 79.2285Z" fill="black"/>
<path d="M29.3283 74.979C31.0705 74.979 32.7986 74.9932 34.5409 74.979C35.065 74.979 35.3058 75.064 35.0508 75.6448C34.9234 75.9564 34.8525 76.2963 34.7959 76.6363C34.5976 77.8261 34.6117 77.8261 33.3652 77.8261C30.3198 77.8261 27.2744 77.812 24.2289 77.8403C23.6057 77.8403 23.3365 77.7553 23.3365 77.0187C23.379 74.979 23.3365 74.979 25.3904 74.979C26.7078 74.979 28.0109 74.979 29.3283 74.979Z" fill="black"/>
<path d="M60.1508 31.1957C59.3859 31.1957 58.621 31.1815 57.8561 31.1957C57.4453 31.2098 57.2754 31.054 57.3179 30.6574C57.3179 30.6007 57.3179 30.5441 57.3179 30.4874C57.2612 28.3344 57.2612 28.3344 59.4001 28.3344C60.3916 28.3344 61.3831 28.3485 62.3888 28.3344C62.828 28.3202 62.9554 28.476 62.9838 28.9151C63.0829 31.1957 63.0971 31.1957 60.8449 31.1957C60.6182 31.1957 60.3916 31.1957 60.1508 31.1957Z" fill="black"/>
<path d="M34.6117 45.318C33.9035 45.318 33.1952 45.2896 32.487 45.3321C31.9912 45.3605 31.8779 45.1621 31.8637 44.6947C31.7929 42.4992 31.7787 42.4992 33.9743 42.4992C34.9658 42.4992 35.9573 42.5133 36.9489 42.485C37.4022 42.4708 37.5155 42.6267 37.5296 43.0658C37.6146 45.3321 37.6288 45.3321 35.3766 45.3321C35.1216 45.318 34.8667 45.318 34.6117 45.318Z" fill="black"/>
<path d="M74.3439 67.9392C74.5705 67.9392 74.7971 67.9392 75.0238 67.9392C77.361 67.9392 77.3468 67.9392 77.1202 70.2622C77.0777 70.6163 76.9644 70.7721 76.6102 70.7721C75.0804 70.7721 73.5365 70.758 72.0067 70.7721C71.6101 70.7721 71.4826 70.6163 71.4401 70.2197C71.2559 67.9392 71.2418 67.9392 73.494 67.9392C73.7631 67.9392 74.0464 67.9392 74.3439 67.9392Z" fill="black"/>
<path d="M74.3298 53.7885C74.6131 53.7885 74.8964 53.7743 75.1797 53.7885C75.7888 53.8452 76.6528 53.491 76.9503 53.9443C77.3752 54.5676 77.0636 55.4883 77.0777 56.2673C77.0919 56.5648 76.8936 56.6356 76.6245 56.6356C75.0663 56.6356 73.5082 56.6356 71.9501 56.6356C71.596 56.6356 71.4118 56.5081 71.426 56.1399C71.426 56.1115 71.426 56.0832 71.426 56.0549C71.2419 53.7743 71.2419 53.7743 73.4657 53.7743C73.7632 53.7885 74.0465 53.7885 74.3298 53.7885Z" fill="black"/>
<path d="M34.6826 22.6826C33.9177 22.6826 33.1528 22.6685 32.3737 22.6826C32.0196 22.6968 31.8213 22.5976 31.8638 22.201C31.8638 22.1444 31.8638 22.0877 31.8638 22.031C31.7929 19.8638 31.7929 19.8638 33.9318 19.8638C34.9234 19.8638 35.9291 19.878 36.9206 19.8638C37.3455 19.8497 37.5014 19.9772 37.5297 20.4446C37.643 22.6826 37.6572 22.6826 35.4475 22.6826C35.1925 22.6826 34.9375 22.6826 34.6826 22.6826Z" fill="black"/>
<path d="M18.7754 74.9791C20.546 74.9791 20.5602 74.9791 20.546 76.6788C20.546 78.0387 20.6593 77.812 19.342 77.8262C17.8264 77.8404 17.8122 77.8262 17.5714 76.4664C17.4864 75.9989 17.0331 75.4182 17.3023 75.1207C17.6422 74.7524 18.3221 75.0357 18.7754 74.9791Z" fill="black"/>
<path d="M60.9581 77.8404C60.3207 77.9962 60.0516 77.7129 60.0516 76.948C60.0516 76.4522 59.8674 75.9423 59.7116 75.4749C59.57 75.0499 59.7116 74.9933 60.0799 74.9933C60.8731 75.0074 61.6664 74.9933 62.4596 74.9933C62.6862 74.9933 62.8845 74.9791 62.9837 75.2907C63.3803 76.7638 62.5871 77.8262 60.9581 77.8404Z" fill="black"/>
<path d="M2.54266 74.9649C3.02427 74.9933 3.66168 74.8374 3.93081 75.0924C4.28493 75.4182 3.76083 75.9423 3.71834 76.4097C3.71834 76.4664 3.70418 76.523 3.69001 76.5797C3.47754 77.9112 3.47754 77.9112 2.2452 77.8262C1.282 77.7695 0.786228 77.2454 0.757899 76.2398C0.729569 74.9791 0.729569 74.9791 2.54266 74.9649Z" fill="black"/>
<path d="M43.1814 53.7886C45.2778 53.7886 47.3883 53.8027 49.4847 53.7744C50.023 53.7744 50.2355 53.9019 50.2213 54.4827C50.193 58.2647 50.193 62.0466 50.2213 65.8286C50.2213 66.3952 50.0513 66.551 49.4989 66.551C45.2636 66.5369 41.0283 66.5369 36.7931 66.551C36.2831 66.551 36.099 66.4236 36.099 65.8853C36.1132 62.075 36.1132 58.2646 36.099 54.4543C36.099 53.9302 36.269 53.7744 36.7789 53.7744C38.9178 53.8027 41.0425 53.7886 43.1814 53.7886Z" fill="black"/>
<path d="M10.6024 66.5368C9.46918 66.5368 8.32184 66.5084 7.18865 66.5509C6.62206 66.5651 6.42375 66.4376 6.38126 65.8144C6.31044 64.7378 6.74954 64.0296 7.40112 63.208C8.94509 61.2816 10.7582 60.5592 13.1662 60.8425C14.866 61.0408 14.8801 60.885 14.8801 62.6273C14.8801 63.5905 14.8235 64.5679 14.8943 65.5311C14.9651 66.3809 14.6393 66.5934 13.8319 66.5509C12.7696 66.4801 11.6931 66.5368 10.6024 66.5368Z" fill="black"/>
</svg>
