<svg width="96" height="87" viewBox="0 0 96 87" fill="none" xmlns="http://www.w3.org/2000/svg">
<path d="M95.4587 7.67418C94.8587 9.57418 93.9587 11.2742 92.0587 12.1742C91.2587 12.5742 90.2587 12.4742 89.7587 12.9742C89.1587 13.4742 89.1587 14.4742 88.5587 15.1742C87.6587 16.3742 86.4587 17.0742 84.9587 17.2742C84.5587 17.3742 84.2587 17.4742 83.9587 17.8742C82.6587 19.8742 80.0587 20.2742 78.2587 18.7742C76.4587 17.2742 76.2587 14.7742 77.9587 13.0742C78.3587 12.6742 78.3587 12.3742 78.3587 11.8742C78.4587 9.37418 79.8587 7.27418 82.2587 6.47418C82.7587 6.27418 82.9587 6.07418 83.0587 5.57418C83.6587 2.67418 86.0587 0.674179 88.8587 0.474179C91.7587 0.374179 94.2587 2.17418 95.1587 4.97418C95.2587 5.27418 95.3587 5.57418 95.4587 5.87418C95.4587 6.47418 95.4587 7.07418 95.4587 7.67418Z" fill="#4E4444"/>
<path d="M44.4587 86.3741C30.6587 86.3741 16.9587 86.3741 3.15869 86.3741C0.858691 86.3741 0.158691 85.6741 0.158691 83.3741C0.158691 69.3741 0.158691 55.3741 0.158691 41.3741C0.158691 39.1741 0.858691 38.3741 3.05869 38.3741C15.4587 38.3741 27.7587 38.3741 40.1587 38.3741C42.2587 38.3741 43.0587 39.1741 43.0587 41.2741C43.0587 46.6741 43.0587 51.9741 43.0587 57.3741C43.0587 58.1741 43.2587 58.3741 44.0587 58.3741C45.9587 58.2741 47.9587 58.3741 49.9587 58.3741C50.4587 58.3741 50.7587 58.3741 50.7587 57.6741C50.9587 54.2741 51.1587 50.8741 51.3587 47.4741C51.3587 46.9741 51.3587 46.5741 50.7587 46.1741C49.2587 45.0741 49.5587 41.7741 51.2587 40.8741C51.6587 40.6741 51.7587 40.4741 51.7587 40.0741C51.8587 38.7741 51.8587 37.4741 51.9587 36.1741C51.9587 35.6741 51.9587 35.4741 51.3587 35.2741C50.5587 35.0741 50.1587 34.4741 49.9587 33.6741C49.7587 32.9741 49.8587 32.1741 49.8587 31.4741C50.0587 30.1741 50.7587 29.4741 52.0587 29.4741C55.6587 29.4741 59.1587 29.4741 62.7587 29.4741C64.0587 29.4741 64.8587 30.2741 64.8587 31.5741C64.8587 32.1741 64.8587 32.7741 64.8587 33.3741C64.7587 34.3741 64.2587 35.0741 63.2587 35.2741C62.7587 35.3741 62.6587 35.6741 62.6587 36.0741C62.7587 37.2741 62.8587 38.5741 62.8587 39.7741C62.8587 40.2741 62.9587 40.5741 63.5587 40.6741C63.9587 40.7741 64.1587 41.0741 64.4587 41.3741C65.4587 42.5741 64.9587 45.3741 63.6587 46.2741C63.3587 46.4741 63.2587 46.6741 63.2587 46.9741C63.4587 50.4741 63.6587 53.9741 63.8587 57.4741C63.8587 58.1741 64.1587 58.2741 64.7587 58.2741C67.5587 58.2741 70.2587 58.2741 73.0587 58.2741C73.7587 58.2741 73.9587 58.0741 73.9587 57.3741C74.1587 51.6741 74.4587 46.0741 74.7587 40.3741C74.7587 39.8741 74.7587 39.4741 74.1587 39.2741C73.9587 39.1741 73.8587 39.0741 73.7587 38.8741C72.5587 37.5741 73.1587 34.5741 74.6587 33.7741C74.9587 33.6741 75.0587 33.4741 75.0587 33.2741C75.1587 31.8741 75.1587 30.4741 75.2587 28.9741C75.2587 28.6741 75.1587 28.3741 74.8587 28.3741C74.7587 28.3741 74.6587 28.3741 74.5587 28.2741C73.3587 27.7741 72.8587 26.3741 73.2587 24.3741C73.4587 23.1741 74.1587 22.4741 75.4587 22.4741C78.9587 22.4741 82.5587 22.4741 86.0587 22.4741C87.3587 22.4741 88.0587 23.1741 88.2587 24.3741C88.3587 25.1741 88.3587 25.8741 88.1587 26.6741C87.9587 27.4741 87.4587 28.0741 86.6587 28.1741C86.0587 28.2741 85.9587 28.5741 85.9587 29.1741C86.0587 30.3741 86.0587 31.6741 86.1587 32.8741C86.1587 33.2741 86.2587 33.5741 86.7587 33.6741C87.5587 33.8741 88.0587 34.4741 88.1587 35.3741C88.2587 36.1741 88.2587 36.8741 88.1587 37.6741C88.0587 38.0741 87.9587 38.6741 87.5587 38.7741C86.1587 39.3741 86.5587 40.4741 86.5587 41.4741C87.2587 52.4741 87.7587 63.1741 88.3587 73.8741C88.5587 77.0741 88.6587 80.3741 88.7587 83.5741C88.8587 85.4741 88.0587 86.2741 86.1587 86.2741C72.2587 86.3741 58.3587 86.3741 44.4587 86.3741ZM7.35869 54.2741C7.35869 57.3741 7.35869 60.5741 7.35869 63.6741C7.25869 64.1741 7.35869 64.4741 7.95869 64.4741C11.2587 64.4741 14.5587 64.4741 17.7587 64.4741C18.3587 64.4741 18.4587 64.2741 18.4587 63.7741C18.4587 57.4741 18.4587 51.2741 18.4587 44.9741C18.4587 44.3741 18.2587 44.1741 17.6587 44.1741C14.4587 44.1741 11.3587 44.1741 8.15869 44.1741C7.45869 44.1741 7.25869 44.3741 7.25869 45.0741C7.35869 48.1741 7.35869 51.1741 7.35869 54.2741ZM36.1587 54.3741C36.1587 51.2741 36.1587 48.0741 36.1587 44.9741C36.1587 44.2741 35.9587 44.1741 35.3587 44.1741C32.1587 44.1741 29.0587 44.1741 25.8587 44.1741C25.1587 44.1741 24.9587 44.2741 24.9587 45.0741C24.9587 51.2741 24.9587 57.4741 24.9587 63.6741C24.9587 64.3741 25.1587 64.4741 25.7587 64.4741C28.9587 64.4741 32.0587 64.4741 35.2587 64.4741C36.0587 64.4741 36.1587 64.1741 36.1587 63.5741C36.0587 60.4741 36.1587 57.3741 36.1587 54.3741ZM12.9587 80.5741C14.5587 80.5741 16.2587 80.5741 17.8587 80.5741C18.3587 80.5741 18.5587 80.4741 18.5587 79.9741C18.5587 77.1741 18.5587 74.3741 18.5587 71.5741C18.5587 71.0741 18.3587 70.8741 17.8587 70.8741C14.6587 70.8741 11.3587 70.8741 8.15869 70.8741C7.65869 70.8741 7.35869 70.9741 7.45869 71.5741C7.45869 74.3741 7.45869 77.1741 7.45869 79.9741C7.45869 80.4741 7.65869 80.6741 8.15869 80.6741C9.65869 80.5741 11.2587 80.5741 12.9587 80.5741ZM30.4587 80.5741C32.0587 80.5741 33.7587 80.5741 35.3587 80.5741C35.9587 80.5741 36.0587 80.3741 36.0587 79.8741C36.0587 77.0741 36.0587 74.3741 36.0587 71.5741C36.0587 70.9741 35.8587 70.8741 35.3587 70.8741C32.1587 70.8741 28.8587 70.8741 25.6587 70.8741C25.0587 70.8741 24.9587 71.0741 24.9587 71.5741C24.9587 74.3741 24.9587 77.0741 24.9587 79.8741C24.9587 80.4741 25.1587 80.5741 25.6587 80.5741C27.2587 80.5741 28.8587 80.5741 30.4587 80.5741ZM73.2587 71.9741C73.3587 70.9741 73.3587 69.6741 73.4587 68.2741C73.4587 67.7741 73.3587 67.4741 72.7587 67.4741C70.2587 67.4741 67.7587 67.4741 65.2587 67.4741C64.6587 67.4741 64.4587 67.6741 64.5587 68.2741C64.7587 70.9741 64.8587 73.7741 64.9587 76.4741C64.9587 77.0741 65.2587 77.1741 65.7587 77.1741C67.9587 77.1741 70.1587 77.1741 72.3587 77.1741C72.9587 77.1741 73.0587 76.9741 73.1587 76.4741C73.1587 75.0741 73.2587 73.6741 73.2587 71.9741ZM43.1587 72.3741C43.1587 73.7741 43.1587 75.1741 43.1587 76.5741C43.1587 76.9741 43.2587 77.2741 43.7587 77.2741C45.5587 77.2741 47.3587 77.2741 49.1587 77.2741C49.5587 77.2741 49.7587 77.1741 49.7587 76.6741C49.9587 73.8741 50.0587 70.9741 50.2587 68.1741C50.2587 67.6741 50.1587 67.4741 49.6587 67.4741C47.7587 67.4741 45.7587 67.4741 43.8587 67.4741C43.3587 67.4741 43.2587 67.6741 43.2587 68.0741C43.1587 69.5741 43.1587 70.9741 43.1587 72.3741Z" fill="#4E4444"/>
<path d="M71.8587 13.7742C71.8587 16.7742 69.8587 19.2742 66.8587 19.8742C66.3587 19.9742 66.0587 20.1742 65.8587 20.7742C65.1587 22.8742 63.6587 24.0742 61.4587 24.4742C60.9587 24.5742 60.7587 24.7742 60.4587 25.1742C59.1587 27.0742 56.5587 27.4742 54.8587 26.0742C53.0587 24.6742 52.8587 22.0742 54.4587 20.3742C54.8587 19.9742 54.9587 19.5742 54.9587 19.0742C54.8587 16.6742 56.3587 14.4742 58.6587 13.6742C59.2587 13.4742 59.4587 13.1742 59.5587 12.5742C60.2587 9.37423 63.0587 7.27423 66.4587 7.67423C69.4587 7.87423 71.8587 10.6742 71.8587 13.7742Z" fill="#4E4444"/>
</svg>
