<svg width="1168" height="325" viewBox="0 0 1168 325" fill="none" xmlns="http://www.w3.org/2000/svg">
<path d="M8.96273 200.14H7.58947V238.454H0.173828V270.726H7.58947V309.04H8.96273V270.726H16.5157V238.454H8.96273V200.14Z" fill="#B2B2B2" fill-opacity="0.2"/>
<path d="M30.6602 216.482H29.4243V233.648H21.8713V248.204H29.4243V265.507H30.6602V248.204H38.2132V233.648H30.6602V216.482Z" fill="#B2B2B2" fill-opacity="0.2"/>
<path d="M52.4952 228.567H51.1219V252.05H43.569V271.825H51.1219V295.445H52.4952V271.825H59.9108V252.05H52.4952V228.567Z" fill="#B2B2B2" fill-opacity="0.2"/>
<path d="M74.1928 219.641H72.8196V234.609H65.2666V247.243H72.8196V262.349H74.1928V247.243H81.6084V234.609H74.1928V219.641Z" fill="#B2B2B2" fill-opacity="0.2"/>
<path d="M95.8903 142.6H94.5171V185.309H86.9641V248.891H94.5171V291.599H95.8903V248.891H103.306V185.309H95.8903V142.6Z" fill="#B2B2B2" fill-opacity="0.2"/>
<path d="M117.588 226.644H116.215V247.38H108.799V255.071H116.215V305.607H117.588V255.071H125.004V247.38H117.588V226.644Z" fill="#B2B2B2" fill-opacity="0.2"/>
<path d="M139.285 167.731H137.912V244.909H130.497V257.543H137.912V276.631H139.285V257.543H146.701V244.909H139.285V167.731Z" fill="#B2B2B2" fill-opacity="0.2"/>
<path d="M160.983 216.07H159.61V223.76H152.194V256.032H159.61V324.97H160.983V256.032H168.399V223.76H160.983V216.07Z" fill="#B2B2B2" fill-opacity="0.2"/>
<path d="M182.681 183.936H181.307V243.947H173.892V258.504H181.307V292.698H182.681V258.504H190.096V243.947H182.681V183.936Z" fill="#B2B2B2" fill-opacity="0.2"/>
<path d="M204.378 189.566H203.005V228.704H195.589V282.673H203.005V298.466H204.378V282.673H211.794V228.704H204.378V189.566Z" fill="#B2B2B2" fill-opacity="0.2"/>
<path d="M226.076 150.565H224.703V237.356H217.287V248.616H224.703V259.465H226.076V248.616H233.629V237.356H226.076V150.565Z" fill="#B2B2B2" fill-opacity="0.2"/>
<path d="M247.773 142.6H246.4V181.326H238.984V248.616H246.4V251.363H247.773V248.616H255.326V181.326H247.773V142.6Z" fill="#B2B2B2" fill-opacity="0.2"/>
<path d="M269.471 133.125H268.098V200.552H260.682V223.074H268.098V242.025H269.471V223.074H277.024V200.552H269.471V133.125Z" fill="#B2B2B2" fill-opacity="0.2"/>
<path d="M291.169 171.851H289.933V211.813H282.38V223.074H289.933V280.613H291.169V223.074H298.721V211.813H291.169V171.851Z" fill="#B2B2B2" fill-opacity="0.2"/>
<path d="M312.866 183.661H311.63V227.605H304.077V233.236H311.63V292.561H312.866V233.236H320.419V227.605H312.866V183.661Z" fill="#B2B2B2" fill-opacity="0.2"/>
<path d="M334.701 162.65H333.328V181.601H325.775V233.236H333.328V271.55H334.701V233.236H342.117V181.601H334.701V162.65Z" fill="#B2B2B2" fill-opacity="0.2"/>
<path d="M356.399 96.0469H355.025V173.911H347.472V179.541H355.025V204.947H356.399V179.541H363.814V173.911H356.399V96.0469Z" fill="#B2B2B2" fill-opacity="0.2"/>
<path d="M378.096 139.579H376.723V163.474H369.307V179.541H376.723V248.479H378.096V179.541H385.512V163.474H378.096V139.579Z" fill="#B2B2B2" fill-opacity="0.2"/>
<path d="M399.794 142.875H398.42V147.269H391.005V228.841H398.42V251.775H399.794V228.841H407.209V147.269H399.794V142.875Z" fill="#B2B2B2" fill-opacity="0.2"/>
<path d="M421.491 81.6274H420.118V163.474H412.702V179.541H420.118V190.39H421.491V179.541H428.907V163.474H421.491V81.6274Z" fill="#B2B2B2" fill-opacity="0.2"/>
<path d="M443.189 50.729H441.816V87.2578H434.4V99.0679H441.816V108.269H443.189V99.0679H450.604V87.2578H443.189V50.729Z" fill="#B2B2B2" fill-opacity="0.2"/>
<path d="M464.886 72.8384H463.513V99.0677H456.097V105.659H463.513V130.378H464.886V105.659H472.302V99.0677H464.886V72.8384Z" fill="#B2B2B2" fill-opacity="0.2"/>
<path d="M486.584 98.5186H485.211V125.709H477.795V152.763H485.211V156.058H486.584V152.763H494V125.709H486.584V98.5186Z" fill="#B2B2B2" fill-opacity="0.2"/>
<path d="M508.282 104.424H506.908V149.879H499.493V152.762H506.908V161.963H508.282V152.762H515.835V149.879H508.282V104.424Z" fill="#B2B2B2" fill-opacity="0.2"/>
<path d="M529.979 84.7859H528.606V129.829H521.19V133.125H528.606V142.326H529.979V133.125H537.532V129.829H529.979V84.7859Z" fill="#B2B2B2" fill-opacity="0.2"/>
<path d="M551.677 112.114H550.441V128.181H542.888V134.773H550.441V169.654H551.677V134.773H559.229V128.181H551.677V112.114Z" fill="#B2B2B2" fill-opacity="0.2"/>
<path d="M573.374 114.723H572.138V150.428H564.585V160.315H572.138V172.263H573.374V160.315H580.927V150.428H573.374V114.723Z" fill="#B2B2B2" fill-opacity="0.2"/>
<path d="M595.209 139.442H593.836V164.298H586.283V171.988H593.836V196.982H595.209V171.988H602.625V164.298H595.209V139.442Z" fill="#B2B2B2" fill-opacity="0.2"/>
<path d="M616.907 152.213H615.533V179.266H607.98V182.562H615.533V209.753H616.907V182.562H624.322V179.266H616.907V152.213Z" fill="#B2B2B2" fill-opacity="0.2"/>
<path d="M638.604 129.966H637.231V161.414H629.678V171.439H637.231V187.506H638.604V171.439H646.02V161.414H638.604V129.966Z" fill="#B2B2B2" fill-opacity="0.2"/>
<path d="M660.302 105.248H658.929V131.477H651.513V136.558H658.929V162.787H660.302V136.558H667.717V131.477H660.302V105.248Z" fill="#B2B2B2" fill-opacity="0.2"/>
<path d="M681.999 67.7573H680.626V104.698H673.21V112.388H680.626V125.297H681.999V112.388H689.415V104.698H681.999V67.7573Z" fill="#B2B2B2" fill-opacity="0.2"/>
<path d="M703.697 87.3953H702.324V105.248H694.908V131.477H702.324V144.935H703.697V131.477H711.113V105.248H703.697V87.3953Z" fill="#B2B2B2" fill-opacity="0.2"/>
<path d="M725.395 63.5002H724.021V89.8669H716.606V103.325H724.021V121.04H725.395V103.325H732.81V89.8669H725.395V63.5002Z" fill="#B2B2B2" fill-opacity="0.2"/>
<path d="M747.092 66.1096H745.719V86.2966H738.303V112.526H745.719V123.649H747.092V112.526H754.508V86.2966H747.092V66.1096Z" fill="#B2B2B2" fill-opacity="0.2"/>
<path d="M768.79 45.6477H767.416V66.9333H760.001V96.5958H767.416V103.187H768.79V96.5958H776.343V66.9333H768.79V45.6477Z" fill="#B2B2B2" fill-opacity="0.2"/>
<path d="M790.487 96.7334H789.114V113.625H781.698V120.354H789.114V154.273H790.487V120.354H798.04V113.625H790.487V96.7334Z" fill="#B2B2B2" fill-opacity="0.2"/>
<path d="M812.185 112.114H810.812V138.755H803.396V149.879H810.812V169.654H812.185V149.879H819.738V138.755H812.185V112.114Z" fill="#B2B2B2" fill-opacity="0.2"/>
<path d="M833.882 125.709H832.646V151.664H825.094V176.657H832.646V183.249H833.882V176.657H841.435V151.664H833.882V125.709Z" fill="#B2B2B2" fill-opacity="0.2"/>
<path d="M855.717 139.442H854.344V166.495H846.791V169.791H854.344V196.982H855.717V169.791H863.133V166.495H855.717V139.442Z" fill="#B2B2B2" fill-opacity="0.2"/>
<path d="M877.415 107.033H876.042V124.748H868.489V131.477H876.042V164.573H877.415V131.477H884.831V124.748H877.415V107.033Z" fill="#B2B2B2" fill-opacity="0.2"/>
<path d="M899.112 76.2717H897.739V109.779H890.186V115.684H897.739V133.811H899.112V115.684H906.528V109.779H899.112V76.2717Z" fill="#B2B2B2" fill-opacity="0.2"/>
<path d="M920.81 90.0044H919.437V95.6348H912.021V117.882H919.437V147.544H920.81V117.882H928.226V95.6348H920.81V90.0044Z" fill="#B2B2B2" fill-opacity="0.2"/>
<path d="M942.508 72.0146H941.134V117.882H933.719V125.297H941.134V129.554H942.508V125.297H949.923V117.882H942.508V72.0146Z" fill="#B2B2B2" fill-opacity="0.2"/>
<path d="M964.205 57.0459H962.832V67.8947H955.416V100.166H962.832V165.946H964.205V100.166H971.621V67.8947H964.205V57.0459Z" fill="#B2B2B2" fill-opacity="0.2"/>
<path d="M985.903 29.5806H984.529V94.6733H977.114V105.797H984.529V138.48H985.903V105.797H993.318V94.6733H985.903V29.5806Z" fill="#B2B2B2" fill-opacity="0.2"/>
<path d="M1007.6 0.467529H1006.23V52.7889H998.812V104.561H1006.23V109.505H1007.6V104.561H1015.02V52.7889H1007.6V0.467529Z" fill="#B2B2B2" fill-opacity="0.2"/>
<path d="M1029.3 29.5806H1027.92V80.8033H1020.51V87.2577H1027.92V138.48H1029.3V87.2577H1036.85V80.8033H1029.3V29.5806Z" fill="#B2B2B2" fill-opacity="0.2"/>
<path d="M1051 82.8633H1049.62V125.984H1042.21V176.108H1049.62V191.763H1051V176.108H1058.55V125.984H1051V82.8633Z" fill="#B2B2B2" fill-opacity="0.2"/>
<path d="M1072.69 129.142H1071.32V147.681H1063.9V157.844H1071.32V186.682H1072.69V157.844H1080.25V147.681H1072.69V129.142Z" fill="#B2B2B2" fill-opacity="0.2"/>
<path d="M1094.39 91.927H1093.15V121.452H1085.6V140.129H1093.15V197.806H1094.39V140.129H1101.94V121.452H1094.39V91.927Z" fill="#B2B2B2" fill-opacity="0.2"/>
<path d="M1116.23 66.7961H1114.85V104.012H1107.3V125.297H1114.85V172.675H1116.23V125.297H1123.64V104.012H1116.23V66.7961Z" fill="#B2B2B2" fill-opacity="0.2"/>
<path d="M1137.92 51.1409H1136.55V121.452H1129V140.128H1136.55V157.02H1137.92V140.128H1145.34V121.452H1137.92V51.1409Z" fill="#B2B2B2" fill-opacity="0.2"/>
<path d="M1167.04 77.233H1159.62V26.0103H1158.25V77.233H1150.69V91.9269H1158.25V131.889H1159.62V91.9269H1167.04V77.233Z" fill="#B2B2B2" fill-opacity="0.2"/>
</svg>
