<svg width="1920" height="943" viewBox="0 0 1920 943" fill="none" xmlns="http://www.w3.org/2000/svg">
<path d="M2005.75 111.481L1663.19 332.223C1663.19 332.223 1663.19 332.223 1663.19 332.432C1665.48 337.429 1663.6 343.469 1658.81 345.551C1654.02 347.634 1648.4 345.343 1646.11 340.345C1644.44 336.596 1645.07 332.432 1647.36 329.516L1396.63 38.5944C1396 39.0109 1395.59 39.4274 1394.96 39.6357C1391.22 41.3016 1386.63 40.0522 1383.93 36.9285L1170.26 209.566C1170.47 209.982 1170.68 210.19 1170.89 210.607C1173.18 215.605 1171.31 221.644 1166.52 223.726C1161.73 225.809 1156.1 223.518 1153.81 218.52C1152.36 215.396 1152.56 211.856 1154.02 209.149L961.184 52.547C960.351 53.38 959.518 54.213 958.269 54.6295C955.145 56.0872 951.605 55.4625 948.898 53.38L725.448 320.978C725.865 321.603 726.281 322.227 726.698 322.852C728.989 327.85 727.114 333.889 722.325 335.972C717.535 338.054 711.912 335.764 709.622 330.766C707.747 326.809 708.58 322.436 711.079 319.728L538.65 52.3388C538.442 52.3388 538.442 52.547 538.234 52.547C535.11 54.0047 531.362 53.38 528.655 51.2975L284.38 413.648C285.422 414.481 286.046 415.73 286.671 416.98C288.962 421.978 287.088 428.017 282.298 430.1C277.508 432.182 271.886 429.891 269.595 424.893C268.554 422.394 268.345 419.895 268.97 417.605L-195.63 182.077L-194.797 179.994L269.803 415.73C270.636 414.065 272.094 412.815 273.76 411.982C276.675 410.733 279.799 410.941 282.506 412.607L526.989 49.8398C526.364 49.2151 525.739 48.3821 525.323 47.3408C523.032 42.3429 524.906 36.3037 529.696 34.2212C534.485 32.1388 540.108 34.4295 542.399 39.4274C544.273 43.5924 543.232 48.382 540.316 51.0893L712.745 318.271C713.162 318.062 713.578 317.854 713.995 317.646C717.327 316.188 721.283 316.813 723.991 319.312L947.024 51.9223C946.399 51.0893 945.774 50.2563 945.358 49.4233C943.067 44.4254 944.941 38.3862 949.731 36.3037C954.521 34.2212 960.143 36.512 962.434 41.5099C963.892 44.6336 963.683 48.1738 962.226 50.881L1155.06 207.483C1155.9 206.65 1156.73 205.817 1157.77 205.401C1161.52 203.735 1165.68 204.776 1168.6 207.9L1382.26 35.0542C1382.05 34.846 1382.05 34.6377 1381.84 34.4295C1379.55 29.4315 1381.43 23.3924 1386.22 21.3099C1391.01 19.2274 1396.63 21.5182 1398.92 26.5161C1400.59 30.2645 1399.96 34.2212 1397.88 37.1367L1648.82 327.85C1649.23 327.434 1649.86 327.225 1650.28 327.017C1654.23 325.143 1659.02 326.601 1661.73 330.141L2004.3 109.607L2005.75 111.481Z" fill="#B2B2B2" fill-opacity="0.2"/>
<path d="M1694.22 19.4357L2016.58 688.743L2014.71 689.576L1692.34 20.2687C1689.22 21.31 1685.89 20.4769 1683.18 18.3945L1379.14 371.79C1379.76 372.415 1380.39 373.248 1381.01 374.289C1383.51 379.287 1382.05 385.118 1377.47 387.617C1372.89 390.116 1367.06 388.034 1364.35 383.036C1362.89 380.12 1362.89 376.997 1363.94 374.289L1046.98 175.413C1046.15 176.454 1045.11 177.495 1043.86 178.12C1040.74 179.786 1036.99 179.37 1034.07 177.079L705.873 622.728C706.498 623.353 706.914 623.978 707.331 624.811C709.83 629.809 708.372 635.64 703.791 638.139C699.209 640.638 693.378 638.555 690.671 633.557C688.589 629.809 689.213 625.227 691.712 622.312L302.706 107.733C302.498 107.941 302.29 108.149 301.873 108.357C299.582 109.607 296.875 109.607 294.584 108.774L-72.3474 942.388L-74.2217 941.347L292.71 107.524C291.253 106.483 290.003 105.234 288.962 103.568C286.463 98.5697 287.921 92.7388 292.502 90.2398C297.083 87.7409 302.914 89.8233 305.622 94.8213C307.704 98.778 307.079 103.359 304.372 106.275L692.962 620.854C693.378 620.646 693.587 620.438 694.003 620.23C697.335 618.564 701.083 618.98 703.999 621.271L1031.99 175.621C1031.36 174.997 1030.95 174.372 1030.53 173.539C1028.03 168.541 1029.49 162.71 1034.28 160.211C1038.86 157.712 1044.69 159.794 1047.4 164.792C1048.86 167.708 1048.86 170.832 1047.82 173.539L1364.77 372.415C1365.6 371.374 1366.64 370.333 1367.89 369.708C1371.02 368.042 1374.56 368.458 1377.47 370.333L1681.72 16.7285C1681.3 16.312 1681.1 15.6873 1680.68 15.0625C1677.97 10.0646 1679.64 4.23365 1684.22 1.73468C1688.8 -0.76429 1694.63 1.31818 1697.34 6.31612C1699.63 11.3141 1698.38 16.7285 1694.22 19.4357Z" fill="#B2B2B2" fill-opacity="0.2"/>
</svg>
