<svg width="98" height="97" viewBox="0 0 98 97" fill="none" xmlns="http://www.w3.org/2000/svg">
<path d="M97.0613 51.5883C96.8103 53.3198 96.6096 55.0512 96.3085 56.7576C94.4766 66.7699 89.9096 75.377 82.6576 82.5035C75.8071 89.2537 67.6266 93.5949 58.1663 95.4267C50.2117 96.9825 42.3825 96.5308 34.6537 94.1218C33.399 93.7454 33.0226 92.9675 33.4743 91.7631C34.2522 89.6301 35.0552 87.4972 35.8833 85.3642C36.3601 84.1095 36.9623 83.8084 38.2923 84.2099C42.1065 85.314 45.996 85.8912 49.9607 85.7406C66.8487 85.1886 81.0265 73.8965 85.3677 57.5606C89.3576 42.5045 83.2849 26.1937 70.3618 17.3106C70.1108 17.1349 69.8348 16.9844 69.5839 16.7836C68.9314 16.2316 68.7056 15.5541 69.1573 14.7762C70.437 12.6432 71.767 10.5103 73.0719 8.37732C73.3981 7.85035 73.8749 7.62451 74.4771 7.62451C80.9763 7.62451 87.5006 7.62451 93.9999 7.62451C95.0036 7.62451 95.5556 8.17657 95.5807 9.2054C95.6058 11.6395 95.6058 14.0986 95.5807 16.5327C95.5807 17.5866 95.0287 18.1387 93.9497 18.1387C91.8167 18.1638 89.6838 18.1387 87.5759 18.1387C87.2999 18.1387 87.0239 18.0383 86.6976 18.2642C88.1029 20.1211 89.4328 21.978 90.5871 23.9855C94.2006 30.2087 96.3335 36.9086 96.9107 44.0854C96.9358 44.3363 96.9107 44.5872 97.0863 44.788C97.0613 47.0966 97.0613 49.3299 97.0613 51.5883ZM83.8621 10.6357C81.2273 10.6357 78.5924 10.6608 75.9827 10.6357C75.4557 10.6357 75.1295 10.7612 74.8535 11.238C74.2262 12.3421 73.5486 13.4462 72.846 14.5252C72.5198 15.002 72.6202 15.2278 73.0719 15.5541C74.5022 16.5829 75.8572 17.687 77.0868 18.9417C87.5006 29.4057 91.4403 41.9524 88.7051 56.4063C86.9486 65.6909 82.1557 73.3695 74.9037 79.417C67.7018 85.4144 59.3457 88.526 49.9607 88.7769C46.2469 88.8773 42.5832 88.4758 38.9949 87.5473C38.4679 87.3968 38.2672 87.5473 38.1166 88.0241C37.7904 88.9777 37.4642 89.9312 37.0627 90.8346C36.7866 91.4619 36.887 91.6627 37.5645 91.8132C44.114 93.4945 50.7386 93.7956 57.3633 92.4908C69.4584 90.0818 79.1194 83.8335 86.0954 73.6957C93.1467 63.4576 95.4804 52.0902 93.2721 39.8697C91.7665 31.5888 88.1029 24.3368 82.4568 18.0634C81.9299 17.4863 81.4782 16.9091 81.8546 16.0559C82.231 15.2278 82.9336 15.1275 83.7366 15.1526C86.3965 15.1777 89.0564 15.1275 91.7163 15.1777C92.444 15.2027 92.6197 14.9769 92.5695 14.2743C92.5193 13.3458 92.5193 12.3923 92.5695 11.4638C92.6197 10.8114 92.419 10.6106 91.7414 10.6357C89.1317 10.6608 86.4969 10.6357 83.8621 10.6357Z" fill="#0075FE"/>
<path d="M52.3697 0.121582C54.1011 0.372517 55.8326 0.598359 57.539 0.874387C59.5213 1.17551 61.4535 1.67738 63.3606 2.30472C64.6153 2.70622 64.9666 3.43393 64.4899 4.6886C63.712 6.82155 62.909 8.9545 62.0809 11.0874C61.6292 12.2919 60.9768 12.6181 59.7221 12.2417C54.9794 10.8365 50.1615 10.3095 45.2682 10.8616C35.6323 11.9155 27.5271 16.0058 21.0279 23.2076C15.9841 28.7784 12.8223 35.3278 11.8437 42.7555C10.1624 55.3524 13.9013 66.2179 22.8848 75.2265C24.4406 76.7823 26.1721 78.1122 27.9788 79.3669C29.1833 80.195 29.3338 80.8223 28.581 82.0268C27.4267 83.959 26.2223 85.8661 25.0679 87.7983C24.6414 88.526 24.0642 88.8271 23.211 88.8271C16.8624 88.802 10.4886 88.8271 4.13996 88.8021C2.88529 88.8021 2.35832 88.3002 2.35832 87.0455C2.35832 84.6867 2.35832 82.353 2.35832 79.9942C2.35832 78.7897 2.88529 78.2879 4.06468 78.2628C6.42347 78.2628 8.80735 78.2628 11.3669 78.2628C10.9403 77.7107 10.6141 77.2841 10.313 76.8826C5.31936 70.0823 2.18267 62.504 1.22911 54.0977C-0.301591 40.5974 3.13622 28.4522 11.6931 17.9129C19.1459 8.70357 28.832 3.00734 40.5256 0.874387C42.2068 0.573265 43.9132 0.372517 45.6195 0.121582C47.8529 0.121582 50.1113 0.121582 52.3697 0.121582ZM14.1021 85.7908C16.7118 85.7908 19.2964 85.7657 21.9062 85.8159C22.5084 85.8159 22.8848 85.6905 23.1859 85.1133C23.738 84.1096 24.3151 83.0807 24.9927 82.1523C25.4945 81.4747 25.2938 81.1736 24.6915 80.6968C12.195 70.8351 6.79987 57.9119 8.90773 42.1532C10.3381 31.5136 15.6328 22.8312 24.1144 16.2065C31.4166 10.4852 39.7727 7.67474 49.0573 7.62455C52.4199 7.62455 55.7322 8.02603 58.9693 8.85412C59.4962 8.97959 59.697 8.85412 59.8476 8.40244C60.1738 7.49907 60.4749 6.57062 60.8513 5.69234C61.1524 5.03991 61.1273 4.78897 60.3243 4.58822C52.8214 2.68112 45.2933 2.60584 37.7904 4.58822C25.9964 7.69982 16.8373 14.4751 10.4886 24.8638C4.41599 34.8008 2.55907 45.591 4.79239 57.0337C6.37328 65.1389 9.98675 72.2403 15.4822 78.3882C16.0092 78.9654 16.4609 79.5425 16.0845 80.3957C15.7081 81.2238 15.0055 81.3242 14.2025 81.3242C11.5425 81.2991 8.88264 81.3493 6.22272 81.2991C5.49501 81.274 5.31936 81.4998 5.36954 82.2024C5.41973 83.1309 5.41973 84.0845 5.36954 85.0129C5.31936 85.6654 5.5201 85.8661 6.19763 85.841C8.85754 85.7657 11.4673 85.7908 14.1021 85.7908Z" fill="#0075FE"/>
<path d="M44.0638 57.9872C47.1252 57.9872 50.1866 58.0122 53.2731 57.9872C55.13 57.9621 56.2592 56.3561 55.5315 54.8254C55.0547 53.8467 54.2015 53.4954 53.1476 53.4954C50.3121 53.4954 47.4514 53.4954 44.6158 53.4954C37.966 53.4954 32.4706 48.6022 31.768 42.0779C31.0904 35.6539 35.3312 29.7319 41.7301 28.2263C42.3825 28.0757 43.3361 28.2764 43.6372 27.7746C43.9634 27.2476 43.7376 26.3944 43.7626 25.6667C43.7626 24.4873 43.7626 23.2828 43.7626 22.1034C43.7626 20.9742 44.3147 20.4473 45.4439 20.4473C47.8278 20.4473 50.2117 20.4473 52.5705 20.4473C53.7499 20.4473 54.2517 20.9993 54.2768 22.1787C54.2768 23.8349 54.3019 25.4911 54.2517 27.1472C54.2266 27.8248 54.4525 27.9753 55.1049 27.9502C57.7397 27.9251 60.3745 27.9251 62.9843 27.9251C64.2891 27.9251 64.791 28.427 64.791 29.757C64.791 32.0405 64.791 34.324 64.791 36.6075C64.791 37.9625 64.2891 38.4393 62.909 38.4393C57.0622 38.4393 51.2154 38.4393 45.3435 38.4393C45.0926 38.4393 44.8417 38.4393 44.5907 38.4393C43.2608 38.5146 42.2821 39.4681 42.257 40.6726C42.2319 41.9022 43.2608 42.9311 44.6409 42.9561C47.602 42.9812 50.5881 42.9561 53.5491 42.9561C60.1236 42.9561 65.7446 48.0752 66.2715 54.4992C66.7985 61.2995 62.2315 67.2216 55.6068 68.3257C54.2768 68.5515 54.2768 68.5515 54.2768 69.8815C54.2768 71.362 54.2768 72.8174 54.2768 74.2979C54.2768 75.4773 53.7499 76.0043 52.5454 76.0043C50.1866 76.0043 47.8529 76.0043 45.4941 76.0043C44.2645 76.0043 43.7626 75.4773 43.7626 74.2227C43.7626 72.5916 43.7125 70.9605 43.7877 69.3294C43.8128 68.6017 43.5619 68.4512 42.8844 68.4762C40.2997 68.5264 37.69 68.5013 35.0803 68.5013C33.7252 68.5013 33.2485 67.9995 33.2234 66.6193C33.2234 64.3609 33.2234 62.1025 33.2234 59.8692C33.2234 58.4639 33.7002 57.9872 35.1556 57.9872C38.1166 57.9872 41.0776 57.9872 44.0638 57.9872ZM45.469 60.9733C42.6585 60.9733 39.823 60.9984 37.0125 60.9733C36.4353 60.9733 36.1593 61.0737 36.2095 61.7261C36.2597 62.7298 36.2597 63.7336 36.2095 64.7373C36.1844 65.3647 36.4102 65.5152 37.0125 65.5152C39.6724 65.4901 42.3323 65.4901 44.9922 65.5152C46.2218 65.5152 46.7488 66.0422 46.7488 67.2969C46.7488 68.953 46.7739 70.6092 46.7237 72.2654C46.6986 72.8927 46.9244 73.0684 47.5267 73.0433C48.5304 72.9931 49.5342 72.9931 50.5379 73.0433C51.115 73.0684 51.2907 72.9178 51.2907 72.3156C51.2405 70.5841 51.2656 68.8777 51.2907 67.1463C51.2907 66.0673 51.8428 65.5654 52.8967 65.5152C53.6746 65.465 54.4525 65.4399 55.2304 65.3396C60.1236 64.662 63.9378 59.5179 63.185 54.6246C62.382 49.3801 58.4674 46.0175 53.1727 45.9925C50.3121 45.9674 47.4765 45.9925 44.6158 45.9925C44.2143 45.9925 43.7877 45.9925 43.4113 45.8921C40.6761 45.2648 38.9698 42.8307 39.2709 40.0453C39.5469 37.4607 41.8555 35.5034 44.6158 35.4783C50.0611 35.4783 55.5064 35.4783 60.9517 35.4783C61.579 35.4783 61.8551 35.3779 61.8049 34.6753C61.7547 33.6966 61.7547 32.7431 61.8049 31.7644C61.8551 31.0869 61.6041 30.9363 60.9768 30.9363C58.3169 30.9614 55.657 30.9614 52.9971 30.9363C51.8177 30.9363 51.2907 30.4094 51.2907 29.2049C51.2907 27.5236 51.2656 25.8173 51.2907 24.136C51.3158 23.5338 51.115 23.3832 50.5379 23.4083C49.5342 23.4585 48.5304 23.4585 47.5267 23.4083C46.9244 23.3832 46.7237 23.5589 46.7237 24.1862C46.7739 25.9177 46.7488 27.624 46.7237 29.3555C46.7237 30.3592 46.1716 30.9113 45.1679 30.9363C44.8668 30.9363 44.5405 30.9364 44.2394 30.9615C37.8406 31.2626 33.4994 37.1094 35.1054 43.2573C36.1844 47.473 40.0488 50.4089 44.6409 50.4591C47.5769 50.4842 50.5379 50.4591 53.4738 50.4591C56.4851 50.4591 58.7937 52.7426 58.7937 55.7036C58.7937 58.6647 56.4851 60.9482 53.4738 60.9733C50.7888 60.9984 48.1289 60.9733 45.469 60.9733Z" fill="#0075FE"/>
<path d="M83.5861 47.774C83.6111 52.8931 82.6576 57.4601 80.7756 61.8013C80.2988 62.9305 79.3453 63.3069 78.467 62.7549C77.7644 62.3283 77.5636 61.5504 77.9651 60.5968C78.8936 58.3886 79.6213 56.08 80.0228 53.7212C81.6539 44.0602 79.3453 35.4029 73.097 27.9C67.8524 21.6015 61.0772 17.9379 52.9469 16.8588C47.4765 16.1311 42.1818 16.909 37.0627 18.9918C36.8118 19.0922 36.5357 19.2176 36.2848 19.2929C35.4065 19.594 34.6286 19.2678 34.3024 18.4397C33.9762 17.6869 34.2773 16.8839 35.1305 16.5075C36.9623 15.6794 38.8443 15.0521 40.8016 14.5753C60.3244 9.90792 79.4958 22.4547 83.1093 42.2786C83.4606 44.2108 83.6362 46.1932 83.5861 47.774Z" fill="#0075FE"/>
<path d="M49.5842 82.8047C32.3952 82.8298 18.0417 70.9104 14.9803 54.5745C13.6754 47.6989 14.4533 41.024 17.2136 34.575C17.7405 33.3705 18.7945 33.0192 19.6728 33.7469C20.3503 34.324 20.3503 35.0015 20.0241 35.7794C18.9199 38.339 18.1671 40.9989 17.7656 43.7592C16.5862 52.3914 18.5937 60.2205 23.8383 67.1463C29.1832 74.2227 36.3348 78.338 45.1176 79.5174C50.5127 80.2452 55.7572 79.4422 60.8261 77.4096C61.077 77.3092 61.3531 77.1837 61.604 77.0834C62.5325 76.7571 63.3355 77.0834 63.6868 77.9114C64.013 78.7144 63.6617 79.4672 62.7583 79.8687C60.4748 80.8725 58.0909 81.6253 55.6318 82.1021C53.4235 82.629 51.1902 82.8549 49.5842 82.8047Z" fill="#0075FE"/>
<path d="M25.6953 26.3943C25.0178 26.294 24.5159 26.0681 24.2399 25.5161C23.9639 24.9389 24.0141 24.3367 24.4658 23.8599C25.9965 22.279 27.6526 20.8738 29.4845 19.6944C30.162 19.2427 31.0403 19.4685 31.4669 20.121C31.8934 20.7985 31.9185 21.5513 31.2661 22.0532C29.6099 23.3329 28.0039 24.6378 26.4732 26.0681C26.2474 26.2689 25.8961 26.294 25.6953 26.3943Z" fill="#0075FE"/>
<path d="M67.8523 76.9579C67.0493 76.9579 66.5725 76.6066 66.3467 76.0044C66.1209 75.4272 66.1711 74.7748 66.698 74.3733C68.3542 73.1186 69.9602 71.7636 71.516 70.3584C72.1182 69.8063 72.871 69.9318 73.4482 70.5089C74.0253 71.0861 74.1257 71.864 73.5736 72.4662C72.0429 74.1475 70.2864 75.6029 68.3542 76.8074C68.1534 76.9328 67.9276 76.9329 67.8523 76.9579Z" fill="#0075FE"/>
</svg>
