<svg width="102" height="102" viewBox="0 0 102 102" fill="none" xmlns="http://www.w3.org/2000/svg">
<path d="M63.6561 0.975098C66.5993 0.975098 69.5688 0.975098 72.512 0.975098C72.6434 1.21161 72.9062 1.15905 73.1164 1.23788C75.1399 1.99996 76.4275 3.81318 76.4275 5.99431C76.4538 7.67615 76.4538 7.67615 78.1357 7.67615C79.2393 7.67615 80.3693 7.67615 81.473 7.67615C84.8104 7.70243 87.4383 9.9624 88.0953 13.3786C88.6471 16.3218 86.8864 19.4753 83.9432 20.6052C83.3388 20.8418 83.1023 21.1045 83.1286 21.7878C83.1549 30.2758 83.1549 38.7638 83.1286 47.2518C83.1286 47.8825 83.26 48.1978 83.9169 48.4606C86.9915 49.6431 88.6734 52.744 88.0164 55.95C87.885 56.6333 88.0427 56.8961 88.6208 57.1851C94.9803 60.4437 99.0534 65.568 100.893 72.4793C101.182 73.5304 101.366 74.6341 101.576 75.7116C101.576 77.3408 101.576 78.9964 101.576 80.6257C101.261 80.9936 101.392 81.4403 101.34 81.8608C99.3688 93.4759 89.6982 101.675 77.8729 101.675C58.9522 101.675 40.0579 101.675 21.1373 101.675C19.6919 101.675 18.2729 101.543 16.8539 101.281C7.86656 99.5463 0.929004 91.216 0.876447 82.071C0.850168 78.1817 1.92758 74.5816 3.34663 71.034C6.65774 62.8613 11.4142 55.477 16.5385 48.3555C17.248 47.3832 17.8524 46.3058 18.7722 45.4911C19.1927 45.1232 19.3503 44.7816 19.3503 44.256C19.3503 36.7403 19.324 29.2509 19.3503 21.7352C19.3503 21.1045 19.1401 20.8417 18.5882 20.6315C15.8027 19.5278 14.042 16.7686 14.2786 13.9042C14.5939 10.3566 17.4583 7.67615 21.0322 7.67615C33.4094 7.67615 45.8129 7.67615 58.1902 7.67615C59.5566 7.67615 59.5566 7.67615 59.5829 6.36222C59.5829 4.99573 59.9245 3.78692 60.818 2.73577C61.6064 1.81602 62.6312 1.39556 63.6561 0.975098ZM51.3314 21.1571C42.1339 21.1571 32.9101 21.1571 23.7126 21.1571C23.1607 21.1571 22.7403 21.0783 22.7403 21.9192C22.7665 29.4349 22.7666 36.9243 22.7666 44.44C22.7666 44.729 22.6614 45.0444 23.003 45.2283C23.7389 45.7014 24.1856 46.4372 24.6586 47.1467C25.0528 47.7511 25.4995 47.9876 26.2616 47.9876C43.7632 47.9613 61.2648 47.9613 78.7663 47.9876C79.6335 47.9876 79.8438 47.7774 79.8438 46.9102C79.8175 38.6849 79.7912 30.4597 79.8438 22.2345C79.8438 21.2885 79.5284 21.1308 78.6875 21.1308C69.5425 21.1834 60.4238 21.1571 51.3314 21.1571ZM21.0322 48.0664C19.0613 50.6155 17.2743 53.1908 15.5399 55.8186C11.7821 61.5474 8.28701 67.4075 5.92193 73.8721C4.66056 77.2883 3.81964 80.7833 4.47661 84.4361C6.18472 94.0015 14.8829 99.9668 24.4484 98.1798C31.5699 96.8396 37.2198 90.3751 37.7191 83.1747C37.9293 79.9687 37.2461 76.9466 36.1687 73.9772C33.8036 67.4338 30.256 61.5211 26.4456 55.7398C24.7637 53.1119 22.9768 50.5892 21.0322 48.0664ZM61.5801 61.4948C61.2385 61.4422 61.1071 61.416 60.9757 61.416C52.2512 61.416 43.5529 61.416 34.8284 61.3897C33.935 61.3897 34.1452 61.705 34.4343 62.2306C36.4052 65.7782 38.1921 69.4047 39.5323 73.2414C41.1353 77.8401 41.8974 82.4914 40.3732 87.2742C40.1105 88.1414 40.3469 88.2465 41.1353 88.2465C46.0231 88.2202 50.8847 88.2202 55.7725 88.2465C56.6134 88.2465 56.8237 88.1676 56.4558 87.2742C53.933 81.2564 53.933 75.186 56.3769 69.1419C57.5595 66.3038 59.2676 63.8073 61.5801 61.4948ZM51.2526 17.7146C53.4863 17.7146 55.72 17.7146 57.9274 17.7146C65.7584 17.7146 73.5894 17.7146 81.4205 17.7146C83.26 17.7146 84.6265 16.4269 84.7316 14.64C84.863 12.8268 83.7067 11.4077 81.8935 11.1186C81.4467 11.0398 80.9737 11.0398 80.527 11.0398C61.002 11.0398 41.4507 11.0398 21.9256 11.0398C21.5052 11.0398 21.0847 11.0398 20.638 11.0924C19.7182 11.1975 18.9299 11.5917 18.378 12.3275C17.5634 13.4312 17.432 14.64 18.0364 15.8488C18.6408 17.1102 19.7182 17.6883 21.1373 17.6883C31.202 17.7146 41.2404 17.7146 51.2526 17.7146ZM77.978 98.3375C88.9362 98.3112 97.9497 89.7969 98.2388 78.5234C98.5279 67.5652 89.5406 58.2888 78.451 58.0523C67.3877 57.8158 58.2427 66.7243 58.0062 77.9452C57.7434 88.956 66.7044 98.101 77.978 98.3375ZM27.6807 51.325C29.0997 53.5587 30.4662 55.6347 31.7801 57.7107C32.0429 58.1049 32.4108 57.9998 32.7524 57.9998C43.6318 57.9998 54.5111 57.9998 65.3905 57.9998C65.8372 57.9998 66.2051 57.9209 66.5993 57.6844C71.855 54.7675 77.3998 53.9266 83.2863 55.2142C84.7579 55.5296 85.1258 55.1091 84.6265 53.6112C84.4951 53.2433 84.3111 52.8754 84.0746 52.5864C83.26 51.5352 82.13 51.2724 80.8423 51.2724C63.4721 51.2724 46.102 51.2724 28.7318 51.2724C28.4427 51.325 28.1537 51.325 27.6807 51.325ZM32.3583 98.2849C43.6318 98.2849 54.6425 98.2849 65.6796 98.2849C65.627 98.1798 65.627 98.101 65.5744 98.0747C63.0517 96.4454 60.8706 94.4482 59.1099 91.9781C58.8997 91.689 58.6632 91.6627 58.3478 91.6627C51.9358 91.6627 45.4976 91.6627 39.0856 91.6627C38.7965 91.6627 38.5075 91.6627 38.3235 91.9781C36.8519 94.4482 34.881 96.4717 32.3583 98.2849ZM68.0709 7.67615C69.5162 7.67615 70.9616 7.67615 72.4069 7.67615C72.6434 7.67615 72.9325 7.78126 73.0639 7.43964C73.6683 6.04687 72.6171 4.36504 71.0667 4.33876C69.2272 4.31248 67.3877 4.33876 65.5744 4.33876C63.4721 4.33876 62.9991 4.86433 63.0254 6.96662C63.0254 7.51848 63.1831 7.70242 63.7349 7.70242C65.1803 7.64987 66.6256 7.67615 68.0709 7.67615Z" fill="#0075FE"/>
<path d="M74.7982 34.5855C74.7982 37.1345 74.7982 39.6835 74.7982 42.2588C74.7982 42.6793 74.7982 43.0998 74.6405 43.5202C74.3778 44.2035 73.8785 44.5976 73.1689 44.6239C72.4069 44.6765 71.8287 44.3086 71.5397 43.6253C71.4083 43.3363 71.3557 42.9946 71.3557 42.6793C71.3557 37.2659 71.3557 31.8788 71.3557 26.4654C71.3557 25.6245 71.6448 24.9149 72.4857 24.5996C73.2215 24.3105 73.8522 24.5208 74.3515 25.0726C74.7719 25.5456 74.7982 26.1238 74.7982 26.7282C74.7982 29.356 74.7982 31.9576 74.7982 34.5855Z" fill="#0075FE"/>
<path d="M20.4277 95C14.3047 94.8949 8.65484 89.902 7.78765 83.8316C7.68253 83.1484 7.57741 82.4651 7.60369 81.7819C7.65625 80.7833 8.33949 80.0738 9.25924 80.0475C10.179 80.0212 10.8885 80.5993 10.9674 81.5979C11.1513 83.8316 11.6769 85.9076 13.0959 87.6946C14.8566 89.902 17.1166 91.2159 19.9284 91.505C20.3226 91.5575 20.7167 91.5838 21.1109 91.6101C22.1621 91.7415 22.7665 92.3722 22.7665 93.3182C22.7402 94.2905 22.0307 94.9475 20.9532 94.9737C20.743 95 20.5853 95 20.4277 95Z" fill="#0075FE"/>
<path d="M94.9276 78.1817C94.9013 87.5106 87.3856 95.0001 78.0304 95.0001C68.8066 94.9738 61.2909 87.4055 61.3172 78.1029C61.3435 68.8528 68.9643 61.3371 78.3195 61.3897C87.4119 61.416 94.9276 69.0368 94.9276 78.1817ZM64.7071 78.2343C64.7071 85.6186 70.7775 91.6627 78.1881 91.6364C85.4673 91.6101 91.4851 85.5923 91.5376 78.2868C91.5639 70.9025 85.4673 64.7533 78.1355 64.8059C70.6724 64.8322 64.7071 70.7974 64.7071 78.2343Z" fill="#0075FE"/>
<path d="M83.1548 82.0711C83.1022 83.5427 82.235 85.0406 80.4744 85.9866C80.0802 86.1968 79.8437 86.4071 79.7648 86.9064C79.6334 87.7998 78.9765 88.2991 78.1093 88.2728C77.2421 88.2466 76.6114 87.7473 76.5063 86.8538C76.4537 86.3808 76.2435 86.1706 75.8756 86.0129C75.0347 85.6187 74.3514 85.0143 73.8521 84.1996C73.3528 83.385 73.5368 82.4915 74.2463 81.9397C74.9296 81.4141 75.9282 81.493 76.5326 82.2025C77.1633 82.9646 77.8465 83.5427 78.8714 82.9908C79.5283 82.6492 79.8699 82.0448 79.7648 81.2827C79.6072 80.363 78.9502 79.9425 77.61 79.8374C75.534 79.6797 73.7207 78.103 73.1952 75.9482C72.6959 73.8459 73.6682 71.5859 75.5865 70.4822C76.0858 70.1931 76.4275 69.9829 76.5589 69.2997C76.6902 68.485 77.3735 68.0383 78.2407 68.0646C79.0553 68.1171 79.686 68.5901 79.7911 69.4311C79.8437 69.9304 80.0802 70.1669 80.4744 70.3508C81.3416 70.745 81.9985 71.3757 82.4715 72.1641C82.9446 72.9787 82.7343 73.8984 81.9985 74.424C81.3416 74.897 80.3692 74.7919 79.7648 74.1612C79.5546 73.951 79.397 73.6882 79.1604 73.5043C78.6349 73.0838 78.0567 72.9787 77.426 73.294C76.8216 73.6094 76.48 74.1087 76.48 74.7919C76.48 75.4489 76.8216 76.0007 77.4523 76.2635C77.7414 76.3949 78.083 76.4475 78.3984 76.4737C81.1313 76.7102 83.1548 78.8125 83.1548 82.0711Z" fill="#0075FE"/>
</svg>
