<svg width="86" height="100" viewBox="0 0 86 100" fill="none" xmlns="http://www.w3.org/2000/svg">
<path d="M77.2475 0.280762C78.2638 0.922625 78.6382 1.80519 78.6115 3.03543C78.558 7.28777 78.5847 11.5401 78.5847 15.7925C78.5847 17.0227 77.9161 17.9053 76.9266 18.0657C75.6161 18.2797 74.5731 17.3436 74.5463 15.9529C74.5196 13.439 74.5463 10.925 74.5463 8.41103C74.5463 8.0901 74.5463 7.76917 74.5463 7.26103C74.1719 7.6087 73.9044 7.82266 73.6637 8.06335C66.416 15.3111 59.1951 22.5588 51.9474 29.8065C51.5195 30.2344 51.1183 30.7158 50.4764 30.8495C49.6206 31.0367 48.9788 30.689 48.4171 30.1007C46.1706 27.8274 43.8973 25.5809 41.7043 23.2809C41.1694 22.7192 40.902 22.7727 40.3671 23.3076C28.4124 35.2891 16.4577 47.2438 4.50297 59.1985C4.02157 59.6799 3.56692 60.1613 2.81808 60.2415C1.90877 60.3217 1.24017 59.9741 0.785519 59.2252C0.330866 58.4229 0.491331 57.674 1.05296 56.9787C1.24017 56.7647 1.45413 56.5508 1.64134 56.3368C14.1042 43.874 26.567 31.4111 39.0299 18.9483C40.5008 17.4774 41.5171 17.4506 42.9613 18.9215C45.1276 21.0878 47.3206 23.2274 49.4602 25.3937C49.8613 25.7948 50.0753 25.8483 50.5299 25.4204C57.4032 18.5471 64.3032 11.6738 71.2033 4.82729C71.2835 4.74706 71.3637 4.64008 71.444 4.53311C71.2033 4.23892 70.8823 4.37264 70.6416 4.37264C68.2881 4.37264 65.9346 4.37264 63.5811 4.37264C62.0032 4.37264 61.2811 3.99822 60.9335 2.95519C60.6125 2.01914 60.9602 1.2703 62.1637 0.33425C67.1916 0.280762 72.2196 0.280762 77.2475 0.280762Z" fill="#0075FE"/>
<path d="M45.6892 77.2509C46.2241 73.9613 47.3473 70.9125 49.2194 68.1578C49.4869 67.7834 49.4066 67.3555 49.4066 66.9543C49.4066 57.5403 49.4066 48.1531 49.4066 38.7391C49.4066 36.6798 50.0485 36.0647 52.1346 36.0647C54.3543 36.0647 56.5741 36.0647 58.7939 36.0647C60.5323 36.0647 61.2544 36.7868 61.2544 38.5251C61.2544 45.3182 61.2811 52.1112 61.2276 58.9043C61.2276 59.8136 61.4416 60.1078 62.3241 59.8136C62.6183 59.7066 62.9393 59.6799 63.2602 59.6531C65.0253 59.4659 65.0253 59.4927 65.0253 57.6741C65.0253 47.8589 65.0253 38.017 65.0253 28.2018C65.0253 26.3297 65.6939 25.6611 67.5928 25.6611C69.866 25.6611 72.1661 25.6611 74.4661 25.6611C76.1777 25.6611 76.8463 26.3565 76.8463 28.0681C76.8463 39.3275 76.8463 50.6136 76.8196 61.8729C76.8196 62.6485 77.0603 63.1299 77.6754 63.638C84.2812 69.0137 86.7684 75.9672 84.8696 84.2579C83.158 91.8533 76.5789 97.7905 68.8765 99.0208C57.9113 100.786 47.6415 93.3242 45.9566 82.3323C45.9031 82.0114 45.9031 81.7172 45.6624 81.3963C45.6624 82.5998 45.6624 83.8033 45.6624 85.0067C45.6624 87.0928 44.9403 87.8149 42.881 87.8149C40.7682 87.8149 38.6287 87.8149 36.5159 87.8149C34.5101 87.8149 33.7612 87.0928 33.7612 85.1137C33.7612 73.4532 33.7612 61.7927 33.7612 50.1322C33.7612 48.2601 34.5101 47.4845 36.3822 47.4845C38.6019 47.4845 40.8217 47.4845 43.0415 47.4845C44.8869 47.4845 45.6624 48.2601 45.6624 50.1322C45.6624 58.7973 45.6624 67.4625 45.6624 76.1276C45.6892 76.4753 45.6892 76.8765 45.6892 77.2509ZM65.6672 95.1696C74.3858 95.1696 81.4998 88.0556 81.4998 79.337C81.4998 70.6451 74.3323 63.4776 65.6404 63.5043C56.9485 63.5311 49.8613 70.6718 49.8346 79.4172C49.8078 88.0556 57.002 95.1963 65.6672 95.1696ZM37.8531 67.6229C37.8531 72.6776 37.8531 77.7323 37.8531 82.787C37.8531 83.3753 37.8531 83.8033 38.6287 83.723C39.3508 83.6695 40.0996 83.6695 40.8485 83.723C41.5171 83.7765 41.6508 83.4823 41.6508 82.8939C41.6241 72.6776 41.6241 62.488 41.6508 52.2717C41.6508 51.7101 41.5171 51.4426 40.902 51.4961C40.2066 51.5496 39.4845 51.5764 38.7892 51.4961C37.9868 51.4159 37.8531 51.7368 37.8531 52.4857C37.8531 57.5136 37.8531 62.5683 37.8531 67.6229ZM72.8347 45.3182C72.8347 40.3972 72.8347 35.4763 72.8347 30.5553C72.8347 29.9135 72.6742 29.6193 71.9788 29.6728C71.3637 29.7263 70.7486 29.753 70.1602 29.6728C69.3044 29.5658 69.0904 29.86 69.0904 30.7158C69.1172 39.7554 69.1172 48.795 69.1172 57.8345C69.1172 59.7066 69.1172 59.7066 70.9626 60.2148C71.3102 60.295 71.6579 60.402 71.9788 60.5357C72.7277 60.8834 72.8614 60.6159 72.8614 59.8938C72.8079 55.0264 72.8347 50.1857 72.8347 45.3182ZM53.4718 63.6648C54.5148 62.8892 55.3974 62.2741 56.3602 61.8729C57.109 61.552 57.216 61.0973 57.216 60.402C57.1892 54.545 57.216 48.688 57.1892 42.831C57.1892 41.9752 57.4834 40.8252 57.0288 40.317C56.5206 39.7286 55.3171 40.21 54.4346 40.1031C53.6322 39.9961 53.4183 40.2635 53.4183 41.0926C53.445 48.2601 53.445 55.4543 53.445 62.6218C53.4718 62.8892 53.4718 63.1567 53.4718 63.6648Z" fill="#0075FE"/>
<path d="M29.8834 69.8962C29.8834 74.9241 29.8834 79.952 29.8834 84.9532C29.8834 86.8253 29.1078 87.5742 27.2357 87.6009C25.0159 87.6009 22.7962 87.6009 20.5764 87.6009C18.7578 87.6009 17.9822 86.8253 17.9822 85.0067C17.9822 74.8706 17.9822 64.7345 17.9822 54.5984C17.9822 52.8333 18.7578 52.0845 20.5229 52.0845C22.7427 52.0845 24.9624 52.0845 27.1822 52.0845C29.188 52.0845 29.8834 52.7798 29.8834 54.8391C29.8834 59.8403 29.8834 64.8682 29.8834 69.8962ZM25.845 69.8962C25.845 65.5903 25.8183 61.2845 25.8717 56.9519C25.8717 56.2833 25.7113 56.0426 25.0159 56.0961C24.3473 56.1496 23.652 56.1764 22.9834 56.0961C22.181 56.0159 22.0206 56.3368 22.0473 57.0857C22.0741 62.381 22.0741 67.7031 22.0741 72.9985C22.0741 76.2881 22.1008 79.5509 22.0741 82.8404C22.0741 83.509 22.2613 83.7765 22.9299 83.723C23.5717 83.6695 24.2136 83.6695 24.8555 83.723C25.6311 83.8032 25.8985 83.5625 25.8985 82.7334C25.8183 78.4544 25.845 74.1753 25.845 69.8962Z" fill="#0075FE"/>
<path d="M14.0506 78.481C14.0506 80.7008 14.0506 82.9206 14.0506 85.1404C14.0506 86.745 13.2751 87.5741 11.7239 87.5741C9.3169 87.6009 6.88317 87.6009 4.47619 87.5741C3.00525 87.5474 2.20292 86.7718 2.20292 85.2741C2.17618 80.7008 2.17618 76.1275 2.20292 71.5543C2.20292 70.0298 3.00525 69.281 4.55642 69.281C6.93666 69.281 9.31691 69.281 11.6971 69.281C13.2216 69.281 14.0239 70.0833 14.0239 71.6078C14.0507 73.9078 14.0506 76.181 14.0506 78.481ZM6.26806 78.4543C6.26806 79.952 6.26806 81.4764 6.26806 82.9741C6.26806 83.4822 6.37503 83.7497 6.9634 83.7229C7.76573 83.6962 8.56806 83.6962 9.37039 83.7229C9.87853 83.7497 10.039 83.5625 10.039 83.0543C10.0123 80.0322 10.0123 77.0101 10.039 73.988C10.039 73.4264 9.82504 73.2659 9.3169 73.2927C8.56806 73.3194 7.84596 73.3461 7.09712 73.2927C6.48201 73.2659 6.24131 73.4264 6.26806 74.095C6.2948 75.5659 6.26806 77.0101 6.26806 78.4543Z" fill="#0075FE"/>
<path d="M72.2195 74.5498C72.2195 76.2882 71.4974 77.144 70.3474 77.2242C69.1172 77.2777 68.3416 76.5289 68.1811 75.1649C68.0207 73.694 67.0311 72.7579 65.6672 72.7579C64.3567 72.7579 63.2869 73.7742 63.2067 75.1114C63.1265 76.4219 64.0893 77.5452 65.5334 77.7056C66.5497 77.8126 67.566 77.8928 68.5288 78.3742C70.7753 79.5242 72.0858 81.3428 72.2463 83.8568C72.4067 86.5312 71.2567 88.6173 68.9567 89.9545C68.3683 90.3022 68.1544 90.6231 68.1544 91.2917C68.1276 92.6557 67.2986 93.4848 66.0951 93.458C64.9183 93.4313 64.1695 92.6824 64.1427 91.3185C64.1427 90.7568 63.9288 90.5429 63.4474 90.3557C60.9067 89.3394 59.5427 87.4138 59.2218 84.7126C59.0613 83.4289 59.8102 82.3859 60.9602 82.2522C62.1637 82.1184 63.0195 82.894 63.2067 84.2312C63.3939 85.7289 64.2765 86.6382 65.5602 86.6917C66.8707 86.7452 67.8602 85.9964 68.1544 84.7126C68.4753 83.3219 67.4323 81.958 65.9346 81.7975C64.7311 81.6905 63.5811 81.5033 62.5113 80.8882C60.2916 79.5777 59.1683 77.5719 59.2485 75.0579C59.3288 72.3568 60.666 70.3509 63.1799 69.2544C63.902 68.9335 64.1962 68.6126 64.1695 67.8102C64.116 66.3928 64.9183 65.4567 66.1218 65.43C67.3521 65.4032 68.2614 66.366 68.1811 67.8102C68.1277 68.7463 68.4486 69.2009 69.2509 69.6823C71.1498 70.8591 72.1125 72.7044 72.2195 74.5498Z" fill="#0075FE"/>
</svg>
