<svg width="30" height="29" viewBox="0 0 30 29" fill="none" xmlns="http://www.w3.org/2000/svg">
<path d="M0.55664 28.4614C0.927734 28.8205 1.37207 29 1.88965 29C2.40723 29 2.85156 28.8205 3.22266 28.4614L9.02344 22.8485C11.3672 24.5305 13.9844 25.3715 16.875 25.3715C18.6523 25.3715 20.3516 25.036 21.9727 24.3651C23.5937 23.6942 24.9902 22.7918 26.1621 21.6579C27.334 20.524 28.2666 19.1774 28.96 17.6183C29.6533 16.0591 30 14.415 30 12.6857C30 10.9565 29.6533 9.30759 28.96 7.739C28.2666 6.17041 27.334 4.82388 26.1621 3.69941C24.9902 2.57494 23.5938 1.67726 21.9727 1.00635C20.3516 0.33545 18.6523 -9.92044e-07 16.875 -1.14742e-06C15.0977 -1.3028e-06 13.3984 0.33545 11.7773 1.00635C10.1563 1.67725 8.75977 2.57494 7.58789 3.69941C6.41602 4.82388 5.4834 6.17041 4.79004 7.739C4.09668 9.30759 3.75 10.9518 3.75 12.6716C3.75 15.4875 4.61914 18.0199 6.35742 20.2688L0.55664 25.8817C0.185546 26.2408 -4.24282e-07 26.6707 -4.68064e-07 27.1716C-5.11847e-07 27.6724 0.185546 28.1023 0.55664 28.4614ZM16.875 3.62854C18.5742 3.62854 20.1416 4.03014 21.5771 4.83333C23.0127 5.63653 24.1504 6.73737 24.9902 8.13588C25.8301 9.53438 26.25 11.051 26.25 12.6857C26.25 14.3205 25.8301 15.8371 24.9902 17.2356C24.1504 18.6341 23.0127 19.7349 21.5771 20.5381C20.1416 21.3413 18.5742 21.7429 16.875 21.7429C15.1758 21.7429 13.6084 21.3413 12.1729 20.5381C10.7373 19.7349 9.59961 18.6341 8.75977 17.2356C7.91992 15.8371 7.5 14.3205 7.5 12.6857C7.5 11.051 7.91992 9.53438 8.75977 8.13587C9.59961 6.73737 10.7373 5.63653 12.1729 4.83333C13.6084 4.03014 15.1758 3.62854 16.875 3.62854Z" fill="black"/>
</svg>
