<svg width="23" height="23" viewBox="0 0 23 23" fill="none" xmlns="http://www.w3.org/2000/svg">
<path d="M1.56 18.8267L7.34667 13.04C6.6 11.8267 6.22667 10.4267 6.22667 8.93333C6.22667 4.54667 9.77333 1 14.16 1C18.4533 1 22 4.54667 22 8.93333C22 13.32 18.4533 16.8667 14.0667 16.8667C12.5733 16.8667 11.1733 16.4933 9.96 15.7467L4.17333 21.5333C3.8 21.8133 3.33333 22 2.86667 22C2.4 22 1.93333 21.8133 1.56 21.44C0.813334 20.6933 0.813334 19.5733 1.56 18.8267ZM10.52 15.9333C11.5467 16.4933 12.76 16.7733 14.0667 16.7733C18.36 16.7733 21.9067 13.2267 21.9067 8.93333C21.9067 4.64 18.36 1.09333 14.0667 1.09333C9.77333 1.09333 6.22667 4.64 6.22667 8.93333C6.22667 10.24 6.50667 11.4533 7.06667 12.48C7.81333 13.9733 9.02667 15.1867 10.52 15.9333Z" stroke="white"/>
</svg>
