<svg width="31" height="32" viewBox="0 0 31 32" fill="none" xmlns="http://www.w3.org/2000/svg">
<path d="M15.5 0.222656C17.6136 0.222656 19.2649 1.03878 20.4538 2.67103C21.6428 4.30327 22.2372 6.38978 22.2372 8.93054C22.2519 12.0872 21.2831 14.5895 19.331 16.4373C19.0814 16.6837 18.9934 16.9994 19.0668 17.3843L19.5732 18.493C19.7346 18.8626 19.9731 19.1513 20.2887 19.3592C20.6043 19.5671 21.2685 19.8635 22.2812 20.2485C22.3253 20.2639 23.2537 20.5795 25.0664 21.1955C26.8791 21.8114 27.8442 22.1502 27.9616 22.2118C29.1946 22.7507 30.0019 23.3128 30.3835 23.8979C30.7945 24.868 31 27.3241 31 31.2661H0C0 27.3241 0.205494 24.868 0.616478 23.8979C0.998106 23.3128 1.8054 22.7507 3.03835 22.2118C3.15578 22.1502 4.12086 21.8114 5.93359 21.1955C7.74633 20.5795 8.67472 20.2639 8.71875 20.2485C9.73153 19.8635 10.3957 19.5671 10.7113 19.3592C11.0269 19.1513 11.2654 18.8626 11.4268 18.493L11.9332 17.3843C12.0066 16.9994 11.9186 16.6837 11.669 16.4373C9.71686 14.5895 8.74811 12.0872 8.76278 8.93054C8.76278 6.38978 9.35724 4.30327 10.5462 2.67103C11.7351 1.03878 13.3864 0.222656 15.5 0.222656Z" fill="#0209AD"/>
</svg>
